<mxfile host="app.diagrams.net" modified="2020-10-04T08:13:25.439Z" agent="5.0 (Macintosh; Intel Mac OS X 10_15_7) AppleWebKit/537.36 (KHTML, like Gecko) Chrome/81.0.4044.129 Safari/537.36" etag="fLFyv92XY15T4dPC-6Ql" version="12.9.10" type="github" pages="11">
  <diagram id="P2-Mg_CkBTSxw6RYj7ge" name="Login">
    <mxGraphModel dx="3530" dy="2812" grid="1" gridSize="10" guides="1" tooltips="1" connect="1" arrows="1" fold="1" page="1" pageScale="1" pageWidth="827" pageHeight="1169" math="0" shadow="0">
      <root>
        <mxCell id="0" />
        <mxCell id="1" parent="0" />
        <mxCell id="zRbBur8kEJc097PaeT---3" value="" style="ellipse;html=1;shape=startState;fillColor=#000000;strokeColor=#ff0000;" parent="1" vertex="1">
          <mxGeometry x="-570" y="110" width="30" height="30" as="geometry" />
        </mxCell>
        <mxCell id="zRbBur8kEJc097PaeT---4" value="" style="edgeStyle=orthogonalEdgeStyle;html=1;verticalAlign=bottom;endArrow=open;endSize=8;strokeColor=#ff0000;" parent="1" source="zRbBur8kEJc097PaeT---3" edge="1">
          <mxGeometry relative="1" as="geometry">
            <mxPoint x="-555" y="200" as="targetPoint" />
            <Array as="points">
              <mxPoint x="-555" y="200" />
            </Array>
          </mxGeometry>
        </mxCell>
        <mxCell id="zRbBur8kEJc097PaeT---14" value="" style="endArrow=none;html=1;" parent="1" edge="1">
          <mxGeometry width="50" height="50" relative="1" as="geometry">
            <mxPoint x="-360" y="1100" as="sourcePoint" />
            <mxPoint x="-360" y="80" as="targetPoint" />
          </mxGeometry>
        </mxCell>
        <mxCell id="zRbBur8kEJc097PaeT---15" value="" style="endArrow=none;html=1;" parent="1" edge="1">
          <mxGeometry width="50" height="50" relative="1" as="geometry">
            <mxPoint x="220" y="1100" as="sourcePoint" />
            <mxPoint x="220" y="70" as="targetPoint" />
          </mxGeometry>
        </mxCell>
        <mxCell id="zRbBur8kEJc097PaeT---17" value="&lt;font style=&quot;font-size: 24px&quot;&gt;User&lt;/font&gt;" style="text;html=1;align=center;verticalAlign=middle;resizable=0;points=[];autosize=1;" parent="1" vertex="1">
          <mxGeometry x="-595" y="50" width="70" height="20" as="geometry" />
        </mxCell>
        <mxCell id="zRbBur8kEJc097PaeT---18" value="&lt;font style=&quot;font-size: 24px&quot;&gt;System&lt;/font&gt;" style="text;html=1;align=center;verticalAlign=middle;resizable=0;points=[];autosize=1;" parent="1" vertex="1">
          <mxGeometry x="-100" y="50" width="100" height="20" as="geometry" />
        </mxCell>
        <mxCell id="zRbBur8kEJc097PaeT---19" value="&lt;font style=&quot;font-size: 24px&quot;&gt;Admin&lt;/font&gt;" style="text;html=1;align=center;verticalAlign=middle;resizable=0;points=[];autosize=1;" parent="1" vertex="1">
          <mxGeometry x="400" y="50" width="80" height="20" as="geometry" />
        </mxCell>
        <mxCell id="zRbBur8kEJc097PaeT---24" style="edgeStyle=orthogonalEdgeStyle;rounded=0;orthogonalLoop=1;jettySize=auto;html=1;entryX=0;entryY=0.5;entryDx=0;entryDy=0;" parent="1" source="zRbBur8kEJc097PaeT---20" target="zRbBur8kEJc097PaeT---21" edge="1">
          <mxGeometry relative="1" as="geometry">
            <Array as="points">
              <mxPoint x="-230" y="240" />
            </Array>
          </mxGeometry>
        </mxCell>
        <mxCell id="zRbBur8kEJc097PaeT---20" value="&lt;font style=&quot;font-size: 24px&quot;&gt;Login&lt;/font&gt;" style="shape=ext;rounded=1;html=1;whiteSpace=wrap;strokeWidth=3;shadow=0;" parent="1" vertex="1">
          <mxGeometry x="-615" y="200" width="120" height="80" as="geometry" />
        </mxCell>
        <mxCell id="zRbBur8kEJc097PaeT---28" style="edgeStyle=orthogonalEdgeStyle;rounded=0;orthogonalLoop=1;jettySize=auto;html=1;" parent="1" source="zRbBur8kEJc097PaeT---21" edge="1">
          <mxGeometry relative="1" as="geometry">
            <mxPoint x="-175" y="350" as="targetPoint" />
          </mxGeometry>
        </mxCell>
        <mxCell id="zRbBur8kEJc097PaeT---35" style="edgeStyle=orthogonalEdgeStyle;rounded=0;orthogonalLoop=1;jettySize=auto;html=1;" parent="1" source="zRbBur8kEJc097PaeT---21" target="zRbBur8kEJc097PaeT---33" edge="1">
          <mxGeometry relative="1" as="geometry" />
        </mxCell>
        <mxCell id="zRbBur8kEJc097PaeT---21" value="&lt;font style=&quot;font-size: 18px&quot;&gt;Check&lt;/font&gt;" style="rhombus;whiteSpace=wrap;html=1;fillColor=#ffffc0;strokeColor=#ff0000;shadow=0;" parent="1" vertex="1">
          <mxGeometry x="-230" y="200" width="110" height="80" as="geometry" />
        </mxCell>
        <mxCell id="zRbBur8kEJc097PaeT---31" style="edgeStyle=orthogonalEdgeStyle;rounded=0;orthogonalLoop=1;jettySize=auto;html=1;entryX=0.5;entryY=1;entryDx=0;entryDy=0;" parent="1" source="zRbBur8kEJc097PaeT---29" target="zRbBur8kEJc097PaeT---20" edge="1">
          <mxGeometry relative="1" as="geometry" />
        </mxCell>
        <mxCell id="zRbBur8kEJc097PaeT---29" value="&lt;font style=&quot;font-size: 24px&quot;&gt;&amp;nbsp;Login Error&lt;/font&gt;" style="shape=ext;rounded=1;html=1;whiteSpace=wrap;strokeWidth=3;shadow=0;" parent="1" vertex="1">
          <mxGeometry x="-230" y="350" width="120" height="80" as="geometry" />
        </mxCell>
        <mxCell id="zRbBur8kEJc097PaeT---30" value="&lt;font style=&quot;font-size: 14px&quot;&gt;Fail&lt;/font&gt;" style="text;html=1;align=center;verticalAlign=middle;resizable=0;points=[];autosize=1;" parent="1" vertex="1">
          <mxGeometry x="-175" y="297" width="40" height="20" as="geometry" />
        </mxCell>
        <mxCell id="zRbBur8kEJc097PaeT---40" style="edgeStyle=orthogonalEdgeStyle;rounded=0;orthogonalLoop=1;jettySize=auto;html=1;entryX=0.5;entryY=0;entryDx=0;entryDy=0;" parent="1" source="zRbBur8kEJc097PaeT---33" target="zRbBur8kEJc097PaeT---36" edge="1">
          <mxGeometry relative="1" as="geometry" />
        </mxCell>
        <mxCell id="zRbBur8kEJc097PaeT---33" value="&lt;span style=&quot;font-size: 24px&quot;&gt;Kiểm tra quyền sử dụng&lt;/span&gt;" style="shape=ext;rounded=1;html=1;whiteSpace=wrap;strokeWidth=3;shadow=0;" parent="1" vertex="1">
          <mxGeometry x="-60" y="350" width="190" height="80" as="geometry" />
        </mxCell>
        <mxCell id="zRbBur8kEJc097PaeT---34" value="&lt;font style=&quot;font-size: 36px&quot;&gt;&amp;nbsp;LOGIN&lt;/font&gt;" style="text;html=1;align=center;verticalAlign=middle;resizable=0;points=[];autosize=1;" parent="1" vertex="1">
          <mxGeometry x="-120" y="-30" width="140" height="30" as="geometry" />
        </mxCell>
        <mxCell id="zRbBur8kEJc097PaeT---41" style="edgeStyle=orthogonalEdgeStyle;rounded=0;orthogonalLoop=1;jettySize=auto;html=1;entryX=1;entryY=0.5;entryDx=0;entryDy=0;" parent="1" source="zRbBur8kEJc097PaeT---36" target="zRbBur8kEJc097PaeT---45" edge="1">
          <mxGeometry relative="1" as="geometry">
            <mxPoint x="-440.0000000000002" y="555" as="targetPoint" />
          </mxGeometry>
        </mxCell>
        <mxCell id="9cH3_oTof0fT2-37QfT_-3" style="edgeStyle=orthogonalEdgeStyle;rounded=0;orthogonalLoop=1;jettySize=auto;html=1;entryX=0;entryY=0.5;entryDx=0;entryDy=0;" edge="1" parent="1" source="zRbBur8kEJc097PaeT---36" target="zRbBur8kEJc097PaeT---44">
          <mxGeometry relative="1" as="geometry" />
        </mxCell>
        <mxCell id="zRbBur8kEJc097PaeT---36" value="&lt;font style=&quot;font-size: 18px&quot;&gt;Check&lt;/font&gt;" style="rhombus;whiteSpace=wrap;html=1;fillColor=#ffffc0;strokeColor=#ff0000;shadow=0;" parent="1" vertex="1">
          <mxGeometry x="-38.75" y="510" width="147.5" height="90" as="geometry" />
        </mxCell>
        <mxCell id="zRbBur8kEJc097PaeT---57" style="edgeStyle=orthogonalEdgeStyle;rounded=0;orthogonalLoop=1;jettySize=auto;html=1;entryX=0.25;entryY=1;entryDx=0;entryDy=0;" parent="1" source="zRbBur8kEJc097PaeT---44" target="zRbBur8kEJc097PaeT---56" edge="1">
          <mxGeometry relative="1" as="geometry" />
        </mxCell>
        <mxCell id="zRbBur8kEJc097PaeT---44" value="&lt;font style=&quot;font-size: 24px&quot;&gt;&amp;nbsp;HIển thị trang quản trị&amp;nbsp;&lt;/font&gt;" style="shape=ext;rounded=1;html=1;whiteSpace=wrap;strokeWidth=3;shadow=0;" parent="1" vertex="1">
          <mxGeometry x="300" y="515" width="160" height="80" as="geometry" />
        </mxCell>
        <mxCell id="zRbBur8kEJc097PaeT---55" style="edgeStyle=orthogonalEdgeStyle;rounded=0;orthogonalLoop=1;jettySize=auto;html=1;entryX=0.5;entryY=0;entryDx=0;entryDy=0;" parent="1" source="zRbBur8kEJc097PaeT---45" target="zRbBur8kEJc097PaeT---53" edge="1">
          <mxGeometry relative="1" as="geometry" />
        </mxCell>
        <mxCell id="zRbBur8kEJc097PaeT---45" value="&lt;font style=&quot;font-size: 24px&quot;&gt;&amp;nbsp;Hiển thị trang bán hàng&lt;/font&gt;" style="shape=ext;rounded=1;html=1;whiteSpace=wrap;strokeWidth=3;shadow=0;" parent="1" vertex="1">
          <mxGeometry x="-625.5" y="517.5" width="175" height="75" as="geometry" />
        </mxCell>
        <mxCell id="zRbBur8kEJc097PaeT---48" value="&lt;font style=&quot;font-size: 14px&quot;&gt;User&lt;/font&gt;" style="text;html=1;align=center;verticalAlign=middle;resizable=0;points=[];autosize=1;" parent="1" vertex="1">
          <mxGeometry x="-88.75" y="530" width="50" height="20" as="geometry" />
        </mxCell>
        <mxCell id="zRbBur8kEJc097PaeT---49" value="&lt;font style=&quot;font-size: 14px&quot;&gt;True&lt;br&gt;&lt;/font&gt;" style="text;html=1;align=center;verticalAlign=middle;resizable=0;points=[];autosize=1;" parent="1" vertex="1">
          <mxGeometry x="-120" y="210" width="40" height="20" as="geometry" />
        </mxCell>
        <mxCell id="zRbBur8kEJc097PaeT---50" value="Admin&lt;br&gt;" style="text;html=1;align=center;verticalAlign=middle;resizable=0;points=[];autosize=1;" parent="1" vertex="1">
          <mxGeometry x="108.75" y="530" width="50" height="20" as="geometry" />
        </mxCell>
        <mxCell id="zRbBur8kEJc097PaeT---58" style="edgeStyle=orthogonalEdgeStyle;rounded=0;orthogonalLoop=1;jettySize=auto;html=1;entryX=0;entryY=0.5;entryDx=0;entryDy=0;" parent="1" source="zRbBur8kEJc097PaeT---53" target="tmoUdF3aTovA2c40iYar-2" edge="1">
          <mxGeometry relative="1" as="geometry">
            <Array as="points">
              <mxPoint x="-540" y="980" />
            </Array>
            <mxPoint x="-68.75" y="985" as="targetPoint" />
          </mxGeometry>
        </mxCell>
        <mxCell id="zRbBur8kEJc097PaeT---53" value="&lt;font style=&quot;font-size: 24px&quot;&gt;&amp;nbsp;Thực hiện các chức năng mua / xem hàng&lt;/font&gt;" style="shape=ext;rounded=1;html=1;whiteSpace=wrap;strokeWidth=3;shadow=0;" parent="1" vertex="1">
          <mxGeometry x="-663" y="720" width="250" height="100" as="geometry" />
        </mxCell>
        <mxCell id="zRbBur8kEJc097PaeT---59" style="edgeStyle=orthogonalEdgeStyle;rounded=0;orthogonalLoop=1;jettySize=auto;html=1;entryX=1;entryY=0.5;entryDx=0;entryDy=0;" parent="1" source="zRbBur8kEJc097PaeT---56" target="tmoUdF3aTovA2c40iYar-2" edge="1">
          <mxGeometry relative="1" as="geometry">
            <mxPoint x="-38.75" y="985" as="targetPoint" />
            <Array as="points">
              <mxPoint x="470" y="980" />
            </Array>
          </mxGeometry>
        </mxCell>
        <mxCell id="zRbBur8kEJc097PaeT---56" value="&lt;font style=&quot;font-size: 24px&quot;&gt;Thực hiện các thao tác thêm / sửa / xóa dữ liệu&lt;/font&gt;" style="shape=ext;rounded=1;html=1;whiteSpace=wrap;strokeWidth=3;shadow=0;" parent="1" vertex="1">
          <mxGeometry x="300" y="280" width="320" height="93" as="geometry" />
        </mxCell>
        <mxCell id="tmoUdF3aTovA2c40iYar-1" value="" style="ellipse;html=1;shape=endState;fillColor=#000000;strokeColor=#ff0000;" vertex="1" parent="1">
          <mxGeometry x="-65" y="1063" width="30" height="30" as="geometry" />
        </mxCell>
        <mxCell id="tmoUdF3aTovA2c40iYar-11" style="edgeStyle=orthogonalEdgeStyle;rounded=0;orthogonalLoop=1;jettySize=auto;html=1;entryX=0.5;entryY=0;entryDx=0;entryDy=0;" edge="1" parent="1" source="tmoUdF3aTovA2c40iYar-2" target="tmoUdF3aTovA2c40iYar-1">
          <mxGeometry relative="1" as="geometry" />
        </mxCell>
        <mxCell id="tmoUdF3aTovA2c40iYar-2" value="" style="shape=rhombus;html=1;verticalLabelPosition=top;verticalAlignment=bottom;shadow=0;" vertex="1" parent="1">
          <mxGeometry x="-70" y="960" width="40" height="40" as="geometry" />
        </mxCell>
        <mxCell id="tmoUdF3aTovA2c40iYar-6" value="Text" style="text;html=1;align=center;verticalAlign=middle;resizable=0;points=[];autosize=1;" vertex="1" parent="1">
          <mxGeometry x="205" y="1043" width="40" height="20" as="geometry" />
        </mxCell>
      </root>
    </mxGraphModel>
  </diagram>
  <diagram id="k8XDYn30NCzdJcheloBk" name="Admin-Add-New-Product">
    <mxGraphModel dx="1351" dy="821" grid="1" gridSize="10" guides="1" tooltips="1" connect="1" arrows="1" fold="1" page="1" pageScale="1" pageWidth="827" pageHeight="1169" math="0" shadow="0">
      <root>
        <mxCell id="zHs-a88d3GPJ17fAGSpT-0" />
        <mxCell id="zHs-a88d3GPJ17fAGSpT-1" parent="zHs-a88d3GPJ17fAGSpT-0" />
        <mxCell id="zHs-a88d3GPJ17fAGSpT-2" value="&lt;span style=&quot;font-size: 24px&quot;&gt;&amp;nbsp;Thêm sản phẩm mới vào hệ thống&lt;/span&gt;" style="text;html=1;align=center;verticalAlign=middle;resizable=0;points=[];autosize=1;" vertex="1" parent="zHs-a88d3GPJ17fAGSpT-1">
          <mxGeometry x="220" y="40" width="390" height="20" as="geometry" />
        </mxCell>
        <mxCell id="zHs-a88d3GPJ17fAGSpT-3" value="&amp;nbsp;Admin" style="text;html=1;align=center;verticalAlign=middle;resizable=0;points=[];autosize=1;" vertex="1" parent="zHs-a88d3GPJ17fAGSpT-1">
          <mxGeometry x="150" y="80" width="50" height="20" as="geometry" />
        </mxCell>
        <mxCell id="zHs-a88d3GPJ17fAGSpT-4" value="System" style="text;html=1;align=center;verticalAlign=middle;resizable=0;points=[];autosize=1;" vertex="1" parent="zHs-a88d3GPJ17fAGSpT-1">
          <mxGeometry x="610" y="80" width="60" height="20" as="geometry" />
        </mxCell>
        <mxCell id="zHs-a88d3GPJ17fAGSpT-5" value="" style="endArrow=none;html=1;" edge="1" parent="zHs-a88d3GPJ17fAGSpT-1">
          <mxGeometry width="50" height="50" relative="1" as="geometry">
            <mxPoint x="420" y="1030" as="sourcePoint" />
            <mxPoint x="420" y="80" as="targetPoint" />
          </mxGeometry>
        </mxCell>
        <mxCell id="zHs-a88d3GPJ17fAGSpT-6" value="" style="ellipse;html=1;shape=startState;fillColor=#000000;strokeColor=#ff0000;shadow=0;" vertex="1" parent="zHs-a88d3GPJ17fAGSpT-1">
          <mxGeometry x="160" y="134" width="30" height="30" as="geometry" />
        </mxCell>
        <mxCell id="zHs-a88d3GPJ17fAGSpT-7" value="" style="edgeStyle=orthogonalEdgeStyle;html=1;verticalAlign=bottom;endArrow=open;endSize=8;strokeColor=#ff0000;" edge="1" source="zHs-a88d3GPJ17fAGSpT-6" parent="zHs-a88d3GPJ17fAGSpT-1">
          <mxGeometry relative="1" as="geometry">
            <mxPoint x="175" y="224" as="targetPoint" />
          </mxGeometry>
        </mxCell>
        <mxCell id="zHs-a88d3GPJ17fAGSpT-12" style="edgeStyle=orthogonalEdgeStyle;rounded=0;orthogonalLoop=1;jettySize=auto;html=1;entryX=0;entryY=0.5;entryDx=0;entryDy=0;" edge="1" parent="zHs-a88d3GPJ17fAGSpT-1" source="zHs-a88d3GPJ17fAGSpT-8" target="zHs-a88d3GPJ17fAGSpT-20">
          <mxGeometry relative="1" as="geometry" />
        </mxCell>
        <mxCell id="zHs-a88d3GPJ17fAGSpT-8" value="Input product information" style="shape=ext;rounded=1;html=1;whiteSpace=wrap;strokeWidth=3;shadow=0;" vertex="1" parent="zHs-a88d3GPJ17fAGSpT-1">
          <mxGeometry x="120" y="230" width="120" height="80" as="geometry" />
        </mxCell>
        <mxCell id="zHs-a88d3GPJ17fAGSpT-13" style="edgeStyle=orthogonalEdgeStyle;rounded=0;orthogonalLoop=1;jettySize=auto;html=1;exitX=0.5;exitY=0;exitDx=0;exitDy=0;entryX=0.75;entryY=0;entryDx=0;entryDy=0;" edge="1" parent="zHs-a88d3GPJ17fAGSpT-1" source="zHs-a88d3GPJ17fAGSpT-9" target="zHs-a88d3GPJ17fAGSpT-8">
          <mxGeometry relative="1" as="geometry">
            <Array as="points">
              <mxPoint x="640" y="160" />
              <mxPoint x="210" y="160" />
            </Array>
          </mxGeometry>
        </mxCell>
        <mxCell id="zHs-a88d3GPJ17fAGSpT-16" style="edgeStyle=orthogonalEdgeStyle;rounded=0;orthogonalLoop=1;jettySize=auto;html=1;entryX=0.5;entryY=0;entryDx=0;entryDy=0;" edge="1" parent="zHs-a88d3GPJ17fAGSpT-1" source="zHs-a88d3GPJ17fAGSpT-9" target="zHs-a88d3GPJ17fAGSpT-15">
          <mxGeometry relative="1" as="geometry" />
        </mxCell>
        <mxCell id="zHs-a88d3GPJ17fAGSpT-9" value="Check" style="rhombus;whiteSpace=wrap;html=1;fillColor=#ffffc0;strokeColor=#ff0000;shadow=0;" vertex="1" parent="zHs-a88d3GPJ17fAGSpT-1">
          <mxGeometry x="590" y="240" width="100" height="60" as="geometry" />
        </mxCell>
        <mxCell id="zHs-a88d3GPJ17fAGSpT-14" value="Fail" style="text;html=1;align=center;verticalAlign=middle;resizable=0;points=[];autosize=1;" vertex="1" parent="zHs-a88d3GPJ17fAGSpT-1">
          <mxGeometry x="640" y="220" width="30" height="20" as="geometry" />
        </mxCell>
        <mxCell id="zHs-a88d3GPJ17fAGSpT-23" style="edgeStyle=orthogonalEdgeStyle;rounded=0;orthogonalLoop=1;jettySize=auto;html=1;exitX=0.5;exitY=1;exitDx=0;exitDy=0;entryX=0.5;entryY=0;entryDx=0;entryDy=0;" edge="1" parent="zHs-a88d3GPJ17fAGSpT-1" source="zHs-a88d3GPJ17fAGSpT-15" target="zHs-a88d3GPJ17fAGSpT-17">
          <mxGeometry relative="1" as="geometry" />
        </mxCell>
        <mxCell id="zHs-a88d3GPJ17fAGSpT-15" value="Kiểm tra sản phẩm tồn tại" style="shape=ext;rounded=1;html=1;whiteSpace=wrap;strokeWidth=3;shadow=0;" vertex="1" parent="zHs-a88d3GPJ17fAGSpT-1">
          <mxGeometry x="580" y="370" width="120" height="80" as="geometry" />
        </mxCell>
        <mxCell id="zHs-a88d3GPJ17fAGSpT-22" style="edgeStyle=orthogonalEdgeStyle;rounded=0;orthogonalLoop=1;jettySize=auto;html=1;entryX=0.5;entryY=1;entryDx=0;entryDy=0;" edge="1" parent="zHs-a88d3GPJ17fAGSpT-1" source="zHs-a88d3GPJ17fAGSpT-17" target="zHs-a88d3GPJ17fAGSpT-8">
          <mxGeometry relative="1" as="geometry" />
        </mxCell>
        <mxCell id="vm2u1MBJqttjpxPe-2Jn-1" style="edgeStyle=orthogonalEdgeStyle;rounded=0;orthogonalLoop=1;jettySize=auto;html=1;entryX=0.5;entryY=0;entryDx=0;entryDy=0;" edge="1" parent="zHs-a88d3GPJ17fAGSpT-1" source="zHs-a88d3GPJ17fAGSpT-17" target="vm2u1MBJqttjpxPe-2Jn-0">
          <mxGeometry relative="1" as="geometry" />
        </mxCell>
        <mxCell id="zHs-a88d3GPJ17fAGSpT-17" value="Check" style="rhombus;whiteSpace=wrap;html=1;fillColor=#ffffc0;strokeColor=#ff0000;shadow=0;" vertex="1" parent="zHs-a88d3GPJ17fAGSpT-1">
          <mxGeometry x="600" y="485" width="80" height="40" as="geometry" />
        </mxCell>
        <mxCell id="zHs-a88d3GPJ17fAGSpT-21" style="edgeStyle=orthogonalEdgeStyle;rounded=0;orthogonalLoop=1;jettySize=auto;html=1;exitX=1;exitY=0.5;exitDx=0;exitDy=0;entryX=0;entryY=0.5;entryDx=0;entryDy=0;" edge="1" parent="zHs-a88d3GPJ17fAGSpT-1" source="zHs-a88d3GPJ17fAGSpT-20" target="zHs-a88d3GPJ17fAGSpT-9">
          <mxGeometry relative="1" as="geometry" />
        </mxCell>
        <mxCell id="zHs-a88d3GPJ17fAGSpT-20" value="Kiểm tra format" style="shape=ext;rounded=1;html=1;whiteSpace=wrap;strokeWidth=3;shadow=0;" vertex="1" parent="zHs-a88d3GPJ17fAGSpT-1">
          <mxGeometry x="450" y="230" width="120" height="80" as="geometry" />
        </mxCell>
        <mxCell id="vm2u1MBJqttjpxPe-2Jn-7" style="edgeStyle=orthogonalEdgeStyle;rounded=0;orthogonalLoop=1;jettySize=auto;html=1;entryX=1;entryY=0.5;entryDx=0;entryDy=0;" edge="1" parent="zHs-a88d3GPJ17fAGSpT-1" source="vm2u1MBJqttjpxPe-2Jn-0" target="vm2u1MBJqttjpxPe-2Jn-8">
          <mxGeometry relative="1" as="geometry">
            <mxPoint x="260" y="625" as="targetPoint" />
          </mxGeometry>
        </mxCell>
        <mxCell id="vm2u1MBJqttjpxPe-2Jn-0" value="&amp;nbsp;Thêm sản phẩm mới" style="shape=ext;rounded=1;html=1;whiteSpace=wrap;strokeWidth=3;shadow=0;" vertex="1" parent="zHs-a88d3GPJ17fAGSpT-1">
          <mxGeometry x="580" y="585" width="120" height="80" as="geometry" />
        </mxCell>
        <mxCell id="vm2u1MBJqttjpxPe-2Jn-2" value="True" style="text;html=1;align=center;verticalAlign=middle;resizable=0;points=[];autosize=1;" vertex="1" parent="zHs-a88d3GPJ17fAGSpT-1">
          <mxGeometry x="635" y="300" width="40" height="20" as="geometry" />
        </mxCell>
        <mxCell id="vm2u1MBJqttjpxPe-2Jn-3" value="True" style="text;html=1;align=center;verticalAlign=middle;resizable=0;points=[];autosize=1;" vertex="1" parent="zHs-a88d3GPJ17fAGSpT-1">
          <mxGeometry x="640" y="525" width="40" height="20" as="geometry" />
        </mxCell>
        <mxCell id="vm2u1MBJqttjpxPe-2Jn-6" value="Fail" style="text;html=1;align=center;verticalAlign=middle;resizable=0;points=[];autosize=1;" vertex="1" parent="zHs-a88d3GPJ17fAGSpT-1">
          <mxGeometry x="570" y="485" width="30" height="20" as="geometry" />
        </mxCell>
        <mxCell id="vm2u1MBJqttjpxPe-2Jn-14" style="edgeStyle=orthogonalEdgeStyle;rounded=0;orthogonalLoop=1;jettySize=auto;html=1;entryX=0.5;entryY=0;entryDx=0;entryDy=0;" edge="1" parent="zHs-a88d3GPJ17fAGSpT-1" source="vm2u1MBJqttjpxPe-2Jn-8" target="vm2u1MBJqttjpxPe-2Jn-10">
          <mxGeometry relative="1" as="geometry" />
        </mxCell>
        <mxCell id="vm2u1MBJqttjpxPe-2Jn-8" value="&amp;nbsp;Hiển thị thông tin được thêm mới" style="shape=ext;rounded=1;html=1;whiteSpace=wrap;strokeWidth=3;shadow=0;" vertex="1" parent="zHs-a88d3GPJ17fAGSpT-1">
          <mxGeometry x="130" y="585" width="120" height="80" as="geometry" />
        </mxCell>
        <mxCell id="vm2u1MBJqttjpxPe-2Jn-15" style="edgeStyle=orthogonalEdgeStyle;rounded=0;orthogonalLoop=1;jettySize=auto;html=1;entryX=0.5;entryY=0;entryDx=0;entryDy=0;" edge="1" parent="zHs-a88d3GPJ17fAGSpT-1" source="vm2u1MBJqttjpxPe-2Jn-10" target="vm2u1MBJqttjpxPe-2Jn-11">
          <mxGeometry relative="1" as="geometry" />
        </mxCell>
        <mxCell id="vm2u1MBJqttjpxPe-2Jn-10" value="Thêm tiếp sản phẩm khác ?" style="shape=ext;rounded=1;html=1;whiteSpace=wrap;strokeWidth=3;shadow=0;" vertex="1" parent="zHs-a88d3GPJ17fAGSpT-1">
          <mxGeometry x="130" y="730" width="120" height="80" as="geometry" />
        </mxCell>
        <mxCell id="vm2u1MBJqttjpxPe-2Jn-16" style="edgeStyle=orthogonalEdgeStyle;rounded=0;orthogonalLoop=1;jettySize=auto;html=1;" edge="1" parent="zHs-a88d3GPJ17fAGSpT-1" source="vm2u1MBJqttjpxPe-2Jn-11">
          <mxGeometry relative="1" as="geometry">
            <mxPoint x="190" y="980" as="targetPoint" />
          </mxGeometry>
        </mxCell>
        <mxCell id="vm2u1MBJqttjpxPe-2Jn-20" style="edgeStyle=orthogonalEdgeStyle;rounded=0;orthogonalLoop=1;jettySize=auto;html=1;entryX=0;entryY=0.5;entryDx=0;entryDy=0;" edge="1" parent="zHs-a88d3GPJ17fAGSpT-1" source="vm2u1MBJqttjpxPe-2Jn-11" target="zHs-a88d3GPJ17fAGSpT-8">
          <mxGeometry relative="1" as="geometry">
            <mxPoint x="80" y="390" as="targetPoint" />
            <Array as="points">
              <mxPoint x="50" y="870" />
              <mxPoint x="50" y="270" />
            </Array>
          </mxGeometry>
        </mxCell>
        <mxCell id="vm2u1MBJqttjpxPe-2Jn-11" value="" style="rhombus;whiteSpace=wrap;html=1;fillColor=#ffffc0;strokeColor=#ff0000;shadow=0;" vertex="1" parent="zHs-a88d3GPJ17fAGSpT-1">
          <mxGeometry x="150" y="850" width="80" height="40" as="geometry" />
        </mxCell>
        <mxCell id="vm2u1MBJqttjpxPe-2Jn-18" value="" style="ellipse;html=1;shape=endState;fillColor=#000000;strokeColor=#ff0000;shadow=0;" vertex="1" parent="zHs-a88d3GPJ17fAGSpT-1">
          <mxGeometry x="175" y="980" width="30" height="30" as="geometry" />
        </mxCell>
        <mxCell id="vm2u1MBJqttjpxPe-2Jn-19" value="No" style="text;html=1;align=center;verticalAlign=middle;resizable=0;points=[];autosize=1;" vertex="1" parent="zHs-a88d3GPJ17fAGSpT-1">
          <mxGeometry x="190" y="890" width="30" height="20" as="geometry" />
        </mxCell>
        <mxCell id="vm2u1MBJqttjpxPe-2Jn-21" value="Yes" style="text;html=1;align=center;verticalAlign=middle;resizable=0;points=[];autosize=1;" vertex="1" parent="zHs-a88d3GPJ17fAGSpT-1">
          <mxGeometry x="110" y="850" width="40" height="20" as="geometry" />
        </mxCell>
      </root>
    </mxGraphModel>
  </diagram>
  <diagram id="lNAilAFBC876tT9Df9E-" name="Edit-Product">
    <mxGraphModel dx="1577" dy="958" grid="1" gridSize="10" guides="1" tooltips="1" connect="1" arrows="1" fold="1" page="1" pageScale="1" pageWidth="827" pageHeight="1169" math="0" shadow="0">
      <root>
        <mxCell id="9_HHhEcuFP4VOnC7p468-0" />
        <mxCell id="9_HHhEcuFP4VOnC7p468-1" parent="9_HHhEcuFP4VOnC7p468-0" />
        <mxCell id="5tH3CqDgPVyV3SlfPhvh-0" value="&lt;span style=&quot;font-size: 24px&quot;&gt;Chỉnh sửa sản phẩm&lt;/span&gt;" style="text;html=1;align=center;verticalAlign=middle;resizable=0;points=[];autosize=1;" vertex="1" parent="9_HHhEcuFP4VOnC7p468-1">
          <mxGeometry x="295" y="40" width="240" height="20" as="geometry" />
        </mxCell>
        <mxCell id="5tH3CqDgPVyV3SlfPhvh-1" value="&amp;nbsp;Admin" style="text;html=1;align=center;verticalAlign=middle;resizable=0;points=[];autosize=1;" vertex="1" parent="9_HHhEcuFP4VOnC7p468-1">
          <mxGeometry x="150" y="80" width="50" height="20" as="geometry" />
        </mxCell>
        <mxCell id="5tH3CqDgPVyV3SlfPhvh-2" value="System" style="text;html=1;align=center;verticalAlign=middle;resizable=0;points=[];autosize=1;" vertex="1" parent="9_HHhEcuFP4VOnC7p468-1">
          <mxGeometry x="610" y="80" width="60" height="20" as="geometry" />
        </mxCell>
        <mxCell id="5tH3CqDgPVyV3SlfPhvh-3" value="" style="endArrow=none;html=1;" edge="1" parent="9_HHhEcuFP4VOnC7p468-1">
          <mxGeometry width="50" height="50" relative="1" as="geometry">
            <mxPoint x="420" y="1420" as="sourcePoint" />
            <mxPoint x="419.9999999999998" y="80" as="targetPoint" />
          </mxGeometry>
        </mxCell>
        <mxCell id="5tH3CqDgPVyV3SlfPhvh-4" value="" style="ellipse;html=1;shape=startState;fillColor=#000000;strokeColor=#ff0000;shadow=0;" vertex="1" parent="9_HHhEcuFP4VOnC7p468-1">
          <mxGeometry x="165" y="134" width="30" height="30" as="geometry" />
        </mxCell>
        <mxCell id="5tH3CqDgPVyV3SlfPhvh-5" value="" style="edgeStyle=orthogonalEdgeStyle;html=1;verticalAlign=bottom;endArrow=open;endSize=8;strokeColor=#ff0000;entryX=0.5;entryY=0;entryDx=0;entryDy=0;" edge="1" parent="9_HHhEcuFP4VOnC7p468-1" source="5tH3CqDgPVyV3SlfPhvh-4" target="5tH3CqDgPVyV3SlfPhvh-7">
          <mxGeometry relative="1" as="geometry">
            <mxPoint x="175.00000000000023" y="224" as="targetPoint" />
          </mxGeometry>
        </mxCell>
        <mxCell id="5tH3CqDgPVyV3SlfPhvh-6" style="edgeStyle=orthogonalEdgeStyle;rounded=0;orthogonalLoop=1;jettySize=auto;html=1;entryX=0;entryY=0.5;entryDx=0;entryDy=0;" edge="1" parent="9_HHhEcuFP4VOnC7p468-1" source="5tH3CqDgPVyV3SlfPhvh-7" target="5tH3CqDgPVyV3SlfPhvh-18">
          <mxGeometry relative="1" as="geometry" />
        </mxCell>
        <mxCell id="5tH3CqDgPVyV3SlfPhvh-7" value="Tìm kiếm sản phẩm muốn chỉnh sửa" style="shape=ext;rounded=1;html=1;whiteSpace=wrap;strokeWidth=3;shadow=0;" vertex="1" parent="9_HHhEcuFP4VOnC7p468-1">
          <mxGeometry x="120" y="230" width="120" height="80" as="geometry" />
        </mxCell>
        <mxCell id="5tH3CqDgPVyV3SlfPhvh-8" style="edgeStyle=orthogonalEdgeStyle;rounded=0;orthogonalLoop=1;jettySize=auto;html=1;exitX=0.5;exitY=0;exitDx=0;exitDy=0;entryX=0.75;entryY=0;entryDx=0;entryDy=0;" edge="1" parent="9_HHhEcuFP4VOnC7p468-1" source="5tH3CqDgPVyV3SlfPhvh-10" target="5tH3CqDgPVyV3SlfPhvh-7">
          <mxGeometry relative="1" as="geometry">
            <Array as="points">
              <mxPoint x="640" y="160" />
              <mxPoint x="210" y="160" />
            </Array>
          </mxGeometry>
        </mxCell>
        <mxCell id="5tH3CqDgPVyV3SlfPhvh-9" style="edgeStyle=orthogonalEdgeStyle;rounded=0;orthogonalLoop=1;jettySize=auto;html=1;entryX=0.5;entryY=0;entryDx=0;entryDy=0;" edge="1" parent="9_HHhEcuFP4VOnC7p468-1" source="5tH3CqDgPVyV3SlfPhvh-10" target="5tH3CqDgPVyV3SlfPhvh-13">
          <mxGeometry relative="1" as="geometry" />
        </mxCell>
        <mxCell id="5tH3CqDgPVyV3SlfPhvh-10" value="Check" style="rhombus;whiteSpace=wrap;html=1;fillColor=#ffffc0;strokeColor=#ff0000;shadow=0;" vertex="1" parent="9_HHhEcuFP4VOnC7p468-1">
          <mxGeometry x="590" y="240" width="100" height="60" as="geometry" />
        </mxCell>
        <mxCell id="5tH3CqDgPVyV3SlfPhvh-11" value="Fail" style="text;html=1;align=center;verticalAlign=middle;resizable=0;points=[];autosize=1;" vertex="1" parent="9_HHhEcuFP4VOnC7p468-1">
          <mxGeometry x="640" y="220" width="30" height="20" as="geometry" />
        </mxCell>
        <mxCell id="5tH3CqDgPVyV3SlfPhvh-12" style="edgeStyle=orthogonalEdgeStyle;rounded=0;orthogonalLoop=1;jettySize=auto;html=1;exitX=0.5;exitY=1;exitDx=0;exitDy=0;entryX=0.5;entryY=0;entryDx=0;entryDy=0;" edge="1" parent="9_HHhEcuFP4VOnC7p468-1" source="5tH3CqDgPVyV3SlfPhvh-13" target="5tH3CqDgPVyV3SlfPhvh-16">
          <mxGeometry relative="1" as="geometry" />
        </mxCell>
        <mxCell id="5tH3CqDgPVyV3SlfPhvh-13" value="Kiểm tra sản phẩm thêm trong vòng 2 giờ" style="shape=ext;rounded=1;html=1;whiteSpace=wrap;strokeWidth=3;shadow=0;" vertex="1" parent="9_HHhEcuFP4VOnC7p468-1">
          <mxGeometry x="570" y="370" width="140" height="80" as="geometry" />
        </mxCell>
        <mxCell id="5tH3CqDgPVyV3SlfPhvh-35" style="edgeStyle=orthogonalEdgeStyle;rounded=0;orthogonalLoop=1;jettySize=auto;html=1;entryX=1;entryY=0.5;entryDx=0;entryDy=0;" edge="1" parent="9_HHhEcuFP4VOnC7p468-1" source="5tH3CqDgPVyV3SlfPhvh-16" target="5tH3CqDgPVyV3SlfPhvh-62">
          <mxGeometry relative="1" as="geometry">
            <mxPoint x="400" y="520" as="targetPoint" />
          </mxGeometry>
        </mxCell>
        <mxCell id="5tH3CqDgPVyV3SlfPhvh-52" style="edgeStyle=orthogonalEdgeStyle;rounded=0;orthogonalLoop=1;jettySize=auto;html=1;" edge="1" parent="9_HHhEcuFP4VOnC7p468-1" source="5tH3CqDgPVyV3SlfPhvh-16" target="5tH3CqDgPVyV3SlfPhvh-51">
          <mxGeometry relative="1" as="geometry" />
        </mxCell>
        <mxCell id="5tH3CqDgPVyV3SlfPhvh-16" value="Check" style="rhombus;whiteSpace=wrap;html=1;fillColor=#ffffc0;strokeColor=#ff0000;shadow=0;" vertex="1" parent="9_HHhEcuFP4VOnC7p468-1">
          <mxGeometry x="600" y="500" width="80" height="40" as="geometry" />
        </mxCell>
        <mxCell id="5tH3CqDgPVyV3SlfPhvh-17" style="edgeStyle=orthogonalEdgeStyle;rounded=0;orthogonalLoop=1;jettySize=auto;html=1;exitX=1;exitY=0.5;exitDx=0;exitDy=0;entryX=0;entryY=0.5;entryDx=0;entryDy=0;" edge="1" parent="9_HHhEcuFP4VOnC7p468-1" source="5tH3CqDgPVyV3SlfPhvh-18" target="5tH3CqDgPVyV3SlfPhvh-10">
          <mxGeometry relative="1" as="geometry" />
        </mxCell>
        <mxCell id="5tH3CqDgPVyV3SlfPhvh-18" value="Kiểm tra sản phẩm tồn tại" style="shape=ext;rounded=1;html=1;whiteSpace=wrap;strokeWidth=3;shadow=0;" vertex="1" parent="9_HHhEcuFP4VOnC7p468-1">
          <mxGeometry x="450" y="230" width="120" height="80" as="geometry" />
        </mxCell>
        <mxCell id="5tH3CqDgPVyV3SlfPhvh-21" value="True" style="text;html=1;align=center;verticalAlign=middle;resizable=0;points=[];autosize=1;" vertex="1" parent="9_HHhEcuFP4VOnC7p468-1">
          <mxGeometry x="635" y="300" width="40" height="20" as="geometry" />
        </mxCell>
        <mxCell id="Ikn8HG0rkWI2z5CSAfAs-2" style="edgeStyle=orthogonalEdgeStyle;rounded=0;orthogonalLoop=1;jettySize=auto;html=1;entryX=0.5;entryY=0;entryDx=0;entryDy=0;" edge="1" parent="9_HHhEcuFP4VOnC7p468-1" source="5tH3CqDgPVyV3SlfPhvh-25" target="5tH3CqDgPVyV3SlfPhvh-27">
          <mxGeometry relative="1" as="geometry" />
        </mxCell>
        <mxCell id="5tH3CqDgPVyV3SlfPhvh-25" value="&amp;nbsp;Hiển thị lại thông tin mới được cập nhật" style="shape=ext;rounded=1;html=1;whiteSpace=wrap;strokeWidth=3;shadow=0;" vertex="1" parent="9_HHhEcuFP4VOnC7p468-1">
          <mxGeometry x="125" y="850" width="120" height="80" as="geometry" />
        </mxCell>
        <mxCell id="5tH3CqDgPVyV3SlfPhvh-26" style="edgeStyle=orthogonalEdgeStyle;rounded=0;orthogonalLoop=1;jettySize=auto;html=1;entryX=0.5;entryY=0;entryDx=0;entryDy=0;" edge="1" parent="9_HHhEcuFP4VOnC7p468-1" source="5tH3CqDgPVyV3SlfPhvh-27" target="5tH3CqDgPVyV3SlfPhvh-30">
          <mxGeometry relative="1" as="geometry" />
        </mxCell>
        <mxCell id="5tH3CqDgPVyV3SlfPhvh-27" value="&amp;nbsp;Chỉnh sửa tiếp sản phẩm khác" style="shape=ext;rounded=1;html=1;whiteSpace=wrap;strokeWidth=3;shadow=0;" vertex="1" parent="9_HHhEcuFP4VOnC7p468-1">
          <mxGeometry x="125" y="986" width="120" height="80" as="geometry" />
        </mxCell>
        <mxCell id="5tH3CqDgPVyV3SlfPhvh-28" style="edgeStyle=orthogonalEdgeStyle;rounded=0;orthogonalLoop=1;jettySize=auto;html=1;entryX=0.5;entryY=0;entryDx=0;entryDy=0;" edge="1" parent="9_HHhEcuFP4VOnC7p468-1" source="5tH3CqDgPVyV3SlfPhvh-30" target="Ikn8HG0rkWI2z5CSAfAs-3">
          <mxGeometry relative="1" as="geometry">
            <mxPoint x="184.99999999999977" y="1235.9999999999998" as="targetPoint" />
          </mxGeometry>
        </mxCell>
        <mxCell id="5tH3CqDgPVyV3SlfPhvh-50" style="edgeStyle=orthogonalEdgeStyle;rounded=0;orthogonalLoop=1;jettySize=auto;html=1;entryX=0;entryY=0.425;entryDx=0;entryDy=0;entryPerimeter=0;" edge="1" parent="9_HHhEcuFP4VOnC7p468-1" source="5tH3CqDgPVyV3SlfPhvh-30" target="5tH3CqDgPVyV3SlfPhvh-7">
          <mxGeometry relative="1" as="geometry">
            <Array as="points">
              <mxPoint x="185" y="1126" />
              <mxPoint x="30" y="1126" />
              <mxPoint x="30" y="264" />
            </Array>
          </mxGeometry>
        </mxCell>
        <mxCell id="5tH3CqDgPVyV3SlfPhvh-30" value="" style="rhombus;whiteSpace=wrap;html=1;fillColor=#ffffc0;strokeColor=#ff0000;shadow=0;" vertex="1" parent="9_HHhEcuFP4VOnC7p468-1">
          <mxGeometry x="145" y="1106" width="80" height="40" as="geometry" />
        </mxCell>
        <mxCell id="5tH3CqDgPVyV3SlfPhvh-31" value="" style="ellipse;html=1;shape=endState;fillColor=#000000;strokeColor=#ff0000;shadow=0;" vertex="1" parent="9_HHhEcuFP4VOnC7p468-1">
          <mxGeometry x="170" y="1350" width="30" height="30" as="geometry" />
        </mxCell>
        <mxCell id="5tH3CqDgPVyV3SlfPhvh-32" value="No" style="text;html=1;align=center;verticalAlign=middle;resizable=0;points=[];autosize=1;" vertex="1" parent="9_HHhEcuFP4VOnC7p468-1">
          <mxGeometry x="185" y="1146" width="30" height="20" as="geometry" />
        </mxCell>
        <mxCell id="5tH3CqDgPVyV3SlfPhvh-33" value="Yes" style="text;html=1;align=center;verticalAlign=middle;resizable=0;points=[];autosize=1;" vertex="1" parent="9_HHhEcuFP4VOnC7p468-1">
          <mxGeometry x="105" y="1106" width="40" height="20" as="geometry" />
        </mxCell>
        <mxCell id="5tH3CqDgPVyV3SlfPhvh-36" value="&amp;nbsp;True" style="text;html=1;align=center;verticalAlign=middle;resizable=0;points=[];autosize=1;" vertex="1" parent="9_HHhEcuFP4VOnC7p468-1">
          <mxGeometry x="560" y="500" width="40" height="20" as="geometry" />
        </mxCell>
        <mxCell id="5tH3CqDgPVyV3SlfPhvh-42" style="edgeStyle=orthogonalEdgeStyle;rounded=0;orthogonalLoop=1;jettySize=auto;html=1;entryX=0.5;entryY=0;entryDx=0;entryDy=0;" edge="1" parent="9_HHhEcuFP4VOnC7p468-1" source="5tH3CqDgPVyV3SlfPhvh-38" target="5tH3CqDgPVyV3SlfPhvh-41">
          <mxGeometry relative="1" as="geometry" />
        </mxCell>
        <mxCell id="5tH3CqDgPVyV3SlfPhvh-38" value="&amp;nbsp;Hiển thị pop-up chỉnh sửa sản phẩm" style="shape=ext;rounded=1;html=1;whiteSpace=wrap;strokeWidth=3;shadow=0;" vertex="1" parent="9_HHhEcuFP4VOnC7p468-1">
          <mxGeometry x="125" y="480" width="120" height="80" as="geometry" />
        </mxCell>
        <mxCell id="Ikn8HG0rkWI2z5CSAfAs-0" style="edgeStyle=orthogonalEdgeStyle;rounded=0;orthogonalLoop=1;jettySize=auto;html=1;entryX=0;entryY=0.5;entryDx=0;entryDy=0;" edge="1" parent="9_HHhEcuFP4VOnC7p468-1" source="5tH3CqDgPVyV3SlfPhvh-41" target="5tH3CqDgPVyV3SlfPhvh-45">
          <mxGeometry relative="1" as="geometry" />
        </mxCell>
        <mxCell id="5tH3CqDgPVyV3SlfPhvh-41" value=" Nhập thông tin chỉnh sửa" style="shape=ext;rounded=1;html=1;whiteSpace=wrap;strokeWidth=3;shadow=0;" vertex="1" parent="9_HHhEcuFP4VOnC7p468-1">
          <mxGeometry x="125" y="670" width="120" height="80" as="geometry" />
        </mxCell>
        <mxCell id="Ikn8HG0rkWI2z5CSAfAs-1" style="edgeStyle=orthogonalEdgeStyle;rounded=0;orthogonalLoop=1;jettySize=auto;html=1;entryX=1;entryY=0.5;entryDx=0;entryDy=0;" edge="1" parent="9_HHhEcuFP4VOnC7p468-1" source="5tH3CqDgPVyV3SlfPhvh-45" target="5tH3CqDgPVyV3SlfPhvh-25">
          <mxGeometry relative="1" as="geometry">
            <Array as="points">
              <mxPoint x="640" y="890" />
            </Array>
          </mxGeometry>
        </mxCell>
        <mxCell id="5tH3CqDgPVyV3SlfPhvh-45" value="&amp;nbsp;Lưu thông tin mới vào cơ sở dữ liệu" style="shape=ext;rounded=1;html=1;whiteSpace=wrap;strokeWidth=3;shadow=0;" vertex="1" parent="9_HHhEcuFP4VOnC7p468-1">
          <mxGeometry x="580" y="670" width="120" height="80" as="geometry" />
        </mxCell>
        <mxCell id="5tH3CqDgPVyV3SlfPhvh-57" style="edgeStyle=orthogonalEdgeStyle;rounded=0;orthogonalLoop=1;jettySize=auto;html=1;entryX=0.5;entryY=0;entryDx=0;entryDy=0;" edge="1" parent="9_HHhEcuFP4VOnC7p468-1" source="5tH3CqDgPVyV3SlfPhvh-51" target="5tH3CqDgPVyV3SlfPhvh-54">
          <mxGeometry relative="1" as="geometry" />
        </mxCell>
        <mxCell id="5tH3CqDgPVyV3SlfPhvh-51" value="&amp;nbsp;Kiểm tra số lần thêm trong ngày" style="shape=ext;rounded=1;html=1;whiteSpace=wrap;strokeWidth=3;shadow=0;" vertex="1" parent="9_HHhEcuFP4VOnC7p468-1">
          <mxGeometry x="770" y="480" width="120" height="80" as="geometry" />
        </mxCell>
        <mxCell id="5tH3CqDgPVyV3SlfPhvh-53" value="Fail" style="text;html=1;align=center;verticalAlign=middle;resizable=0;points=[];autosize=1;" vertex="1" parent="9_HHhEcuFP4VOnC7p468-1">
          <mxGeometry x="680" y="500" width="30" height="20" as="geometry" />
        </mxCell>
        <mxCell id="5tH3CqDgPVyV3SlfPhvh-74" style="edgeStyle=orthogonalEdgeStyle;rounded=0;orthogonalLoop=1;jettySize=auto;html=1;entryX=0.5;entryY=1;entryDx=0;entryDy=0;" edge="1" parent="9_HHhEcuFP4VOnC7p468-1" source="5tH3CqDgPVyV3SlfPhvh-54" target="5tH3CqDgPVyV3SlfPhvh-62">
          <mxGeometry relative="1" as="geometry" />
        </mxCell>
        <mxCell id="Ikn8HG0rkWI2z5CSAfAs-7" style="edgeStyle=orthogonalEdgeStyle;rounded=0;orthogonalLoop=1;jettySize=auto;html=1;" edge="1" parent="9_HHhEcuFP4VOnC7p468-1" source="5tH3CqDgPVyV3SlfPhvh-54">
          <mxGeometry relative="1" as="geometry">
            <mxPoint x="210" y="1260" as="targetPoint" />
            <Array as="points">
              <mxPoint x="830" y="1260" />
            </Array>
          </mxGeometry>
        </mxCell>
        <mxCell id="5tH3CqDgPVyV3SlfPhvh-54" value="Condition" style="rhombus;whiteSpace=wrap;html=1;fillColor=#ffffc0;strokeColor=#ff0000;shadow=0;" vertex="1" parent="9_HHhEcuFP4VOnC7p468-1">
          <mxGeometry x="790" y="600" width="80" height="40" as="geometry" />
        </mxCell>
        <mxCell id="5tH3CqDgPVyV3SlfPhvh-68" style="edgeStyle=orthogonalEdgeStyle;rounded=0;orthogonalLoop=1;jettySize=auto;html=1;entryX=1;entryY=0.5;entryDx=0;entryDy=0;" edge="1" parent="9_HHhEcuFP4VOnC7p468-1" source="5tH3CqDgPVyV3SlfPhvh-62" target="5tH3CqDgPVyV3SlfPhvh-38">
          <mxGeometry relative="1" as="geometry" />
        </mxCell>
        <mxCell id="5tH3CqDgPVyV3SlfPhvh-62" value="" style="shape=rhombus;html=1;verticalLabelPosition=top;verticalAlignment=bottom;shadow=0;" vertex="1" parent="9_HHhEcuFP4VOnC7p468-1">
          <mxGeometry x="310" y="500" width="40" height="40" as="geometry" />
        </mxCell>
        <mxCell id="5tH3CqDgPVyV3SlfPhvh-75" value="True" style="text;html=1;align=center;verticalAlign=middle;resizable=0;points=[];autosize=1;" vertex="1" parent="9_HHhEcuFP4VOnC7p468-1">
          <mxGeometry x="755" y="602" width="40" height="20" as="geometry" />
        </mxCell>
        <mxCell id="5tH3CqDgPVyV3SlfPhvh-76" value="Fail" style="text;html=1;align=center;verticalAlign=middle;resizable=0;points=[];autosize=1;" vertex="1" parent="9_HHhEcuFP4VOnC7p468-1">
          <mxGeometry x="840" y="640" width="30" height="20" as="geometry" />
        </mxCell>
        <mxCell id="Ikn8HG0rkWI2z5CSAfAs-8" style="edgeStyle=orthogonalEdgeStyle;rounded=0;orthogonalLoop=1;jettySize=auto;html=1;entryX=0.5;entryY=0;entryDx=0;entryDy=0;" edge="1" parent="9_HHhEcuFP4VOnC7p468-1" source="Ikn8HG0rkWI2z5CSAfAs-3" target="5tH3CqDgPVyV3SlfPhvh-31">
          <mxGeometry relative="1" as="geometry" />
        </mxCell>
        <mxCell id="Ikn8HG0rkWI2z5CSAfAs-3" value="" style="shape=rhombus;html=1;verticalLabelPosition=top;verticalAlignment=bottom;shadow=0;" vertex="1" parent="9_HHhEcuFP4VOnC7p468-1">
          <mxGeometry x="165" y="1240" width="40" height="40" as="geometry" />
        </mxCell>
      </root>
    </mxGraphModel>
  </diagram>
  <diagram id="jY-NodR_yRw77Y8jswE3" name="Delete-Product">
    <mxGraphModel dx="1113" dy="676" grid="1" gridSize="10" guides="1" tooltips="1" connect="1" arrows="1" fold="1" page="1" pageScale="1" pageWidth="827" pageHeight="1169" background="none" math="0" shadow="0">
      <root>
        <mxCell id="IckBUdiaLZKEjxlFPhhD-0" />
        <mxCell id="IckBUdiaLZKEjxlFPhhD-1" parent="IckBUdiaLZKEjxlFPhhD-0" />
        <mxCell id="IckBUdiaLZKEjxlFPhhD-2" value="&lt;span style=&quot;font-size: 24px&quot;&gt;Xóa sản phẩm&lt;/span&gt;" style="text;html=1;align=center;verticalAlign=middle;resizable=0;points=[];autosize=1;" vertex="1" parent="IckBUdiaLZKEjxlFPhhD-1">
          <mxGeometry x="340" y="40" width="170" height="20" as="geometry" />
        </mxCell>
        <mxCell id="IckBUdiaLZKEjxlFPhhD-3" value="&amp;nbsp;Admin" style="text;html=1;align=center;verticalAlign=middle;resizable=0;points=[];autosize=1;" vertex="1" parent="IckBUdiaLZKEjxlFPhhD-1">
          <mxGeometry x="150" y="80" width="50" height="20" as="geometry" />
        </mxCell>
        <mxCell id="IckBUdiaLZKEjxlFPhhD-4" value="System" style="text;html=1;align=center;verticalAlign=middle;resizable=0;points=[];autosize=1;" vertex="1" parent="IckBUdiaLZKEjxlFPhhD-1">
          <mxGeometry x="610" y="80" width="60" height="20" as="geometry" />
        </mxCell>
        <mxCell id="IckBUdiaLZKEjxlFPhhD-5" value="" style="endArrow=none;html=1;" edge="1" parent="IckBUdiaLZKEjxlFPhhD-1">
          <mxGeometry width="50" height="50" relative="1" as="geometry">
            <mxPoint x="420" y="1410" as="sourcePoint" />
            <mxPoint x="419.9999999999998" y="80" as="targetPoint" />
          </mxGeometry>
        </mxCell>
        <mxCell id="IckBUdiaLZKEjxlFPhhD-6" value="" style="ellipse;html=1;shape=startState;fillColor=#000000;strokeColor=#ff0000;shadow=0;" vertex="1" parent="IckBUdiaLZKEjxlFPhhD-1">
          <mxGeometry x="165" y="134" width="30" height="30" as="geometry" />
        </mxCell>
        <mxCell id="IckBUdiaLZKEjxlFPhhD-7" value="" style="edgeStyle=orthogonalEdgeStyle;html=1;verticalAlign=bottom;endArrow=open;endSize=8;strokeColor=#ff0000;entryX=0.5;entryY=0;entryDx=0;entryDy=0;" edge="1" parent="IckBUdiaLZKEjxlFPhhD-1" source="IckBUdiaLZKEjxlFPhhD-6" target="IckBUdiaLZKEjxlFPhhD-9">
          <mxGeometry relative="1" as="geometry">
            <mxPoint x="175.00000000000023" y="224" as="targetPoint" />
          </mxGeometry>
        </mxCell>
        <mxCell id="IckBUdiaLZKEjxlFPhhD-8" style="edgeStyle=orthogonalEdgeStyle;rounded=0;orthogonalLoop=1;jettySize=auto;html=1;entryX=0;entryY=0.5;entryDx=0;entryDy=0;" edge="1" parent="IckBUdiaLZKEjxlFPhhD-1" source="IckBUdiaLZKEjxlFPhhD-9" target="IckBUdiaLZKEjxlFPhhD-20">
          <mxGeometry relative="1" as="geometry" />
        </mxCell>
        <mxCell id="IckBUdiaLZKEjxlFPhhD-9" value="Tìm kiếm sản phẩm muốn chỉnh sửa" style="shape=ext;rounded=1;html=1;whiteSpace=wrap;strokeWidth=3;shadow=0;" vertex="1" parent="IckBUdiaLZKEjxlFPhhD-1">
          <mxGeometry x="120" y="230" width="120" height="80" as="geometry" />
        </mxCell>
        <mxCell id="IckBUdiaLZKEjxlFPhhD-10" style="edgeStyle=orthogonalEdgeStyle;rounded=0;orthogonalLoop=1;jettySize=auto;html=1;exitX=0.5;exitY=0;exitDx=0;exitDy=0;entryX=0.75;entryY=0;entryDx=0;entryDy=0;" edge="1" parent="IckBUdiaLZKEjxlFPhhD-1" source="IckBUdiaLZKEjxlFPhhD-12" target="IckBUdiaLZKEjxlFPhhD-9">
          <mxGeometry relative="1" as="geometry">
            <Array as="points">
              <mxPoint x="640" y="160" />
              <mxPoint x="210" y="160" />
            </Array>
          </mxGeometry>
        </mxCell>
        <mxCell id="IckBUdiaLZKEjxlFPhhD-11" style="edgeStyle=orthogonalEdgeStyle;rounded=0;orthogonalLoop=1;jettySize=auto;html=1;entryX=0.5;entryY=0;entryDx=0;entryDy=0;" edge="1" parent="IckBUdiaLZKEjxlFPhhD-1" source="IckBUdiaLZKEjxlFPhhD-12" target="IckBUdiaLZKEjxlFPhhD-15">
          <mxGeometry relative="1" as="geometry" />
        </mxCell>
        <mxCell id="IckBUdiaLZKEjxlFPhhD-12" value="Check" style="rhombus;whiteSpace=wrap;html=1;fillColor=#ffffc0;strokeColor=#ff0000;shadow=0;" vertex="1" parent="IckBUdiaLZKEjxlFPhhD-1">
          <mxGeometry x="590" y="240" width="100" height="60" as="geometry" />
        </mxCell>
        <mxCell id="IckBUdiaLZKEjxlFPhhD-13" value="Fail" style="text;html=1;align=center;verticalAlign=middle;resizable=0;points=[];autosize=1;" vertex="1" parent="IckBUdiaLZKEjxlFPhhD-1">
          <mxGeometry x="640" y="220" width="30" height="20" as="geometry" />
        </mxCell>
        <mxCell id="IckBUdiaLZKEjxlFPhhD-14" style="edgeStyle=orthogonalEdgeStyle;rounded=0;orthogonalLoop=1;jettySize=auto;html=1;exitX=0.5;exitY=1;exitDx=0;exitDy=0;entryX=0.5;entryY=0;entryDx=0;entryDy=0;" edge="1" parent="IckBUdiaLZKEjxlFPhhD-1" source="IckBUdiaLZKEjxlFPhhD-15" target="IckBUdiaLZKEjxlFPhhD-18">
          <mxGeometry relative="1" as="geometry" />
        </mxCell>
        <mxCell id="IckBUdiaLZKEjxlFPhhD-15" value="&amp;nbsp;Kiểm tra số lần xóa trong ngày" style="shape=ext;rounded=1;html=1;whiteSpace=wrap;strokeWidth=3;shadow=0;" vertex="1" parent="IckBUdiaLZKEjxlFPhhD-1">
          <mxGeometry x="570" y="370" width="140" height="80" as="geometry" />
        </mxCell>
        <mxCell id="IckBUdiaLZKEjxlFPhhD-16" style="edgeStyle=orthogonalEdgeStyle;rounded=0;orthogonalLoop=1;jettySize=auto;html=1;entryX=1;entryY=0.5;entryDx=0;entryDy=0;" edge="1" parent="IckBUdiaLZKEjxlFPhhD-1" source="IckBUdiaLZKEjxlFPhhD-18" target="IckBUdiaLZKEjxlFPhhD-34">
          <mxGeometry relative="1" as="geometry">
            <mxPoint x="349.9999999999998" y="520" as="targetPoint" />
          </mxGeometry>
        </mxCell>
        <mxCell id="aAEEda6cJx0gcKsJ-8lK-1" style="edgeStyle=orthogonalEdgeStyle;rounded=0;orthogonalLoop=1;jettySize=auto;html=1;entryX=1;entryY=0.5;entryDx=0;entryDy=0;" edge="1" parent="IckBUdiaLZKEjxlFPhhD-1" source="IckBUdiaLZKEjxlFPhhD-18" target="IckBUdiaLZKEjxlFPhhD-50">
          <mxGeometry relative="1" as="geometry">
            <Array as="points">
              <mxPoint x="760" y="520" />
              <mxPoint x="760" y="1260" />
            </Array>
          </mxGeometry>
        </mxCell>
        <mxCell id="IckBUdiaLZKEjxlFPhhD-18" value="Check" style="rhombus;whiteSpace=wrap;html=1;fillColor=#ffffc0;strokeColor=#ff0000;shadow=0;" vertex="1" parent="IckBUdiaLZKEjxlFPhhD-1">
          <mxGeometry x="600" y="500" width="80" height="40" as="geometry" />
        </mxCell>
        <mxCell id="IckBUdiaLZKEjxlFPhhD-19" style="edgeStyle=orthogonalEdgeStyle;rounded=0;orthogonalLoop=1;jettySize=auto;html=1;exitX=1;exitY=0.5;exitDx=0;exitDy=0;entryX=0;entryY=0.5;entryDx=0;entryDy=0;" edge="1" parent="IckBUdiaLZKEjxlFPhhD-1" source="IckBUdiaLZKEjxlFPhhD-20" target="IckBUdiaLZKEjxlFPhhD-12">
          <mxGeometry relative="1" as="geometry" />
        </mxCell>
        <mxCell id="IckBUdiaLZKEjxlFPhhD-20" value="Kiểm tra sản phẩm tồn tại" style="shape=ext;rounded=1;html=1;whiteSpace=wrap;strokeWidth=3;shadow=0;" vertex="1" parent="IckBUdiaLZKEjxlFPhhD-1">
          <mxGeometry x="450" y="230" width="120" height="80" as="geometry" />
        </mxCell>
        <mxCell id="IckBUdiaLZKEjxlFPhhD-21" value="True" style="text;html=1;align=center;verticalAlign=middle;resizable=0;points=[];autosize=1;" vertex="1" parent="IckBUdiaLZKEjxlFPhhD-1">
          <mxGeometry x="635" y="300" width="40" height="20" as="geometry" />
        </mxCell>
        <mxCell id="r5CggeYdRcIwR0oIO1Qi-3" style="edgeStyle=orthogonalEdgeStyle;rounded=0;orthogonalLoop=1;jettySize=auto;html=1;" edge="1" parent="IckBUdiaLZKEjxlFPhhD-1" source="IckBUdiaLZKEjxlFPhhD-23" target="r5CggeYdRcIwR0oIO1Qi-2">
          <mxGeometry relative="1" as="geometry" />
        </mxCell>
        <mxCell id="IckBUdiaLZKEjxlFPhhD-23" value="&amp;nbsp;Hiển thị lại thông tin mới được cập nhật" style="shape=ext;rounded=1;html=1;whiteSpace=wrap;strokeWidth=3;shadow=0;" vertex="1" parent="IckBUdiaLZKEjxlFPhhD-1">
          <mxGeometry x="125" y="850" width="120" height="80" as="geometry" />
        </mxCell>
        <mxCell id="IckBUdiaLZKEjxlFPhhD-24" style="edgeStyle=orthogonalEdgeStyle;rounded=0;orthogonalLoop=1;jettySize=auto;html=1;entryX=0.5;entryY=0;entryDx=0;entryDy=0;" edge="1" parent="IckBUdiaLZKEjxlFPhhD-1" source="IckBUdiaLZKEjxlFPhhD-25" target="IckBUdiaLZKEjxlFPhhD-28">
          <mxGeometry relative="1" as="geometry" />
        </mxCell>
        <mxCell id="IckBUdiaLZKEjxlFPhhD-25" value="&amp;nbsp;Xóa tiếp sản phẩm khác" style="shape=ext;rounded=1;html=1;whiteSpace=wrap;strokeWidth=3;shadow=0;" vertex="1" parent="IckBUdiaLZKEjxlFPhhD-1">
          <mxGeometry x="125" y="986" width="120" height="80" as="geometry" />
        </mxCell>
        <mxCell id="IckBUdiaLZKEjxlFPhhD-26" style="edgeStyle=orthogonalEdgeStyle;rounded=0;orthogonalLoop=1;jettySize=auto;html=1;entryX=0.5;entryY=0;entryDx=0;entryDy=0;" edge="1" parent="IckBUdiaLZKEjxlFPhhD-1" source="IckBUdiaLZKEjxlFPhhD-28" target="IckBUdiaLZKEjxlFPhhD-50">
          <mxGeometry relative="1" as="geometry">
            <mxPoint x="184.99999999999977" y="1235.9999999999998" as="targetPoint" />
          </mxGeometry>
        </mxCell>
        <mxCell id="IckBUdiaLZKEjxlFPhhD-27" style="edgeStyle=orthogonalEdgeStyle;rounded=0;orthogonalLoop=1;jettySize=auto;html=1;entryX=0;entryY=0.425;entryDx=0;entryDy=0;entryPerimeter=0;" edge="1" parent="IckBUdiaLZKEjxlFPhhD-1" source="IckBUdiaLZKEjxlFPhhD-28" target="IckBUdiaLZKEjxlFPhhD-9">
          <mxGeometry relative="1" as="geometry">
            <Array as="points">
              <mxPoint x="185" y="1126" />
              <mxPoint x="30" y="1126" />
              <mxPoint x="30" y="264" />
            </Array>
          </mxGeometry>
        </mxCell>
        <mxCell id="IckBUdiaLZKEjxlFPhhD-28" value="" style="rhombus;whiteSpace=wrap;html=1;fillColor=#ffffc0;strokeColor=#ff0000;shadow=0;" vertex="1" parent="IckBUdiaLZKEjxlFPhhD-1">
          <mxGeometry x="145" y="1106" width="80" height="40" as="geometry" />
        </mxCell>
        <mxCell id="IckBUdiaLZKEjxlFPhhD-29" value="" style="ellipse;html=1;shape=endState;fillColor=#000000;strokeColor=#ff0000;shadow=0;" vertex="1" parent="IckBUdiaLZKEjxlFPhhD-1">
          <mxGeometry x="170" y="1350" width="30" height="30" as="geometry" />
        </mxCell>
        <mxCell id="IckBUdiaLZKEjxlFPhhD-30" value="No" style="text;html=1;align=center;verticalAlign=middle;resizable=0;points=[];autosize=1;" vertex="1" parent="IckBUdiaLZKEjxlFPhhD-1">
          <mxGeometry x="185" y="1146" width="30" height="20" as="geometry" />
        </mxCell>
        <mxCell id="IckBUdiaLZKEjxlFPhhD-31" value="Yes" style="text;html=1;align=center;verticalAlign=middle;resizable=0;points=[];autosize=1;" vertex="1" parent="IckBUdiaLZKEjxlFPhhD-1">
          <mxGeometry x="105" y="1106" width="40" height="20" as="geometry" />
        </mxCell>
        <mxCell id="IckBUdiaLZKEjxlFPhhD-32" value="&amp;nbsp;True" style="text;html=1;align=center;verticalAlign=middle;resizable=0;points=[];autosize=1;" vertex="1" parent="IckBUdiaLZKEjxlFPhhD-1">
          <mxGeometry x="560" y="500" width="40" height="20" as="geometry" />
        </mxCell>
        <mxCell id="r5CggeYdRcIwR0oIO1Qi-0" style="edgeStyle=orthogonalEdgeStyle;rounded=0;orthogonalLoop=1;jettySize=auto;html=1;entryX=0.5;entryY=0;entryDx=0;entryDy=0;" edge="1" parent="IckBUdiaLZKEjxlFPhhD-1" source="IckBUdiaLZKEjxlFPhhD-34" target="aAEEda6cJx0gcKsJ-8lK-3">
          <mxGeometry relative="1" as="geometry" />
        </mxCell>
        <mxCell id="IckBUdiaLZKEjxlFPhhD-34" value="Xác nhận xóa sản phẩm" style="shape=ext;rounded=1;html=1;whiteSpace=wrap;strokeWidth=3;shadow=0;" vertex="1" parent="IckBUdiaLZKEjxlFPhhD-1">
          <mxGeometry x="125" y="480" width="120" height="80" as="geometry" />
        </mxCell>
        <mxCell id="IckBUdiaLZKEjxlFPhhD-35" style="edgeStyle=orthogonalEdgeStyle;rounded=0;orthogonalLoop=1;jettySize=auto;html=1;entryX=0;entryY=0.5;entryDx=0;entryDy=0;exitX=1;exitY=0.5;exitDx=0;exitDy=0;" edge="1" parent="IckBUdiaLZKEjxlFPhhD-1" source="aAEEda6cJx0gcKsJ-8lK-3" target="IckBUdiaLZKEjxlFPhhD-38">
          <mxGeometry relative="1" as="geometry">
            <mxPoint x="245.00000000000023" y="710.0000000000002" as="sourcePoint" />
          </mxGeometry>
        </mxCell>
        <mxCell id="IckBUdiaLZKEjxlFPhhD-37" style="edgeStyle=orthogonalEdgeStyle;rounded=0;orthogonalLoop=1;jettySize=auto;html=1;entryX=1;entryY=0.5;entryDx=0;entryDy=0;" edge="1" parent="IckBUdiaLZKEjxlFPhhD-1" source="IckBUdiaLZKEjxlFPhhD-38" target="IckBUdiaLZKEjxlFPhhD-23">
          <mxGeometry relative="1" as="geometry">
            <Array as="points">
              <mxPoint x="640" y="890" />
            </Array>
          </mxGeometry>
        </mxCell>
        <mxCell id="IckBUdiaLZKEjxlFPhhD-38" value="Cập nhật thông tin trong cơ sở dữ liệu" style="shape=ext;rounded=1;html=1;whiteSpace=wrap;strokeWidth=3;shadow=0;" vertex="1" parent="IckBUdiaLZKEjxlFPhhD-1">
          <mxGeometry x="580" y="670" width="120" height="80" as="geometry" />
        </mxCell>
        <mxCell id="IckBUdiaLZKEjxlFPhhD-41" value="Fail" style="text;html=1;align=center;verticalAlign=middle;resizable=0;points=[];autosize=1;" vertex="1" parent="IckBUdiaLZKEjxlFPhhD-1">
          <mxGeometry x="680" y="490" width="30" height="20" as="geometry" />
        </mxCell>
        <mxCell id="IckBUdiaLZKEjxlFPhhD-49" style="edgeStyle=orthogonalEdgeStyle;rounded=0;orthogonalLoop=1;jettySize=auto;html=1;entryX=0.5;entryY=0;entryDx=0;entryDy=0;" edge="1" parent="IckBUdiaLZKEjxlFPhhD-1" source="IckBUdiaLZKEjxlFPhhD-50" target="IckBUdiaLZKEjxlFPhhD-29">
          <mxGeometry relative="1" as="geometry" />
        </mxCell>
        <mxCell id="IckBUdiaLZKEjxlFPhhD-50" value="" style="shape=rhombus;html=1;verticalLabelPosition=top;verticalAlignment=bottom;shadow=0;" vertex="1" parent="IckBUdiaLZKEjxlFPhhD-1">
          <mxGeometry x="165" y="1240" width="40" height="40" as="geometry" />
        </mxCell>
        <mxCell id="r5CggeYdRcIwR0oIO1Qi-1" style="edgeStyle=orthogonalEdgeStyle;rounded=0;orthogonalLoop=1;jettySize=auto;html=1;entryX=0;entryY=0.5;entryDx=0;entryDy=0;" edge="1" parent="IckBUdiaLZKEjxlFPhhD-1" source="aAEEda6cJx0gcKsJ-8lK-3" target="r5CggeYdRcIwR0oIO1Qi-2">
          <mxGeometry relative="1" as="geometry">
            <mxPoint x="60" y="970" as="targetPoint" />
          </mxGeometry>
        </mxCell>
        <mxCell id="aAEEda6cJx0gcKsJ-8lK-3" value="Condition" style="rhombus;whiteSpace=wrap;html=1;fillColor=#ffffc0;strokeColor=#ff0000;shadow=0;" vertex="1" parent="IckBUdiaLZKEjxlFPhhD-1">
          <mxGeometry x="145" y="690" width="80" height="40" as="geometry" />
        </mxCell>
        <mxCell id="aAEEda6cJx0gcKsJ-8lK-7" value="&amp;nbsp;Yes&amp;nbsp;" style="text;html=1;align=center;verticalAlign=middle;resizable=0;points=[];autosize=1;" vertex="1" parent="IckBUdiaLZKEjxlFPhhD-1">
          <mxGeometry x="225" y="690" width="40" height="20" as="geometry" />
        </mxCell>
        <mxCell id="r5CggeYdRcIwR0oIO1Qi-4" style="edgeStyle=orthogonalEdgeStyle;rounded=0;orthogonalLoop=1;jettySize=auto;html=1;" edge="1" parent="IckBUdiaLZKEjxlFPhhD-1" source="r5CggeYdRcIwR0oIO1Qi-2" target="IckBUdiaLZKEjxlFPhhD-25">
          <mxGeometry relative="1" as="geometry" />
        </mxCell>
        <mxCell id="r5CggeYdRcIwR0oIO1Qi-2" value="" style="shape=rhombus;html=1;verticalLabelPosition=top;verticalAlignment=bottom;" vertex="1" parent="IckBUdiaLZKEjxlFPhhD-1">
          <mxGeometry x="65" y="1006" width="40" height="40" as="geometry" />
        </mxCell>
        <mxCell id="r5CggeYdRcIwR0oIO1Qi-5" value="&amp;nbsp;No" style="text;html=1;align=center;verticalAlign=middle;resizable=0;points=[];autosize=1;" vertex="1" parent="IckBUdiaLZKEjxlFPhhD-1">
          <mxGeometry x="117" y="692" width="30" height="20" as="geometry" />
        </mxCell>
      </root>
    </mxGraphModel>
  </diagram>
  <diagram id="Kj1zFgcH2MnbQVhLL6zx" name="Edit-Price">
    <mxGraphModel dx="946" dy="575" grid="1" gridSize="10" guides="1" tooltips="1" connect="1" arrows="1" fold="1" page="1" pageScale="1" pageWidth="827" pageHeight="1169" math="0" shadow="0">
      <root>
        <mxCell id="yVl_zPnCE7ZfCRvyxnzE-0" />
        <mxCell id="yVl_zPnCE7ZfCRvyxnzE-1" parent="yVl_zPnCE7ZfCRvyxnzE-0" />
        <mxCell id="zRgckGs39Syw5ZDX-80b-0" value="&lt;span style=&quot;font-size: 24px&quot;&gt;&amp;nbsp;Cập nhật giá của sản phẩm&lt;/span&gt;" style="text;html=1;align=center;verticalAlign=middle;resizable=0;points=[];autosize=1;" vertex="1" parent="yVl_zPnCE7ZfCRvyxnzE-1">
          <mxGeometry x="265" y="40" width="320" height="20" as="geometry" />
        </mxCell>
        <mxCell id="zRgckGs39Syw5ZDX-80b-1" value="&amp;nbsp;Admin" style="text;html=1;align=center;verticalAlign=middle;resizable=0;points=[];autosize=1;" vertex="1" parent="yVl_zPnCE7ZfCRvyxnzE-1">
          <mxGeometry x="150" y="80" width="50" height="20" as="geometry" />
        </mxCell>
        <mxCell id="zRgckGs39Syw5ZDX-80b-2" value="System" style="text;html=1;align=center;verticalAlign=middle;resizable=0;points=[];autosize=1;" vertex="1" parent="yVl_zPnCE7ZfCRvyxnzE-1">
          <mxGeometry x="610" y="80" width="60" height="20" as="geometry" />
        </mxCell>
        <mxCell id="zRgckGs39Syw5ZDX-80b-3" value="" style="endArrow=none;html=1;" edge="1" parent="yVl_zPnCE7ZfCRvyxnzE-1">
          <mxGeometry width="50" height="50" relative="1" as="geometry">
            <mxPoint x="420" y="1410" as="sourcePoint" />
            <mxPoint x="419.9999999999998" y="80" as="targetPoint" />
          </mxGeometry>
        </mxCell>
        <mxCell id="zRgckGs39Syw5ZDX-80b-4" value="" style="ellipse;html=1;shape=startState;fillColor=#000000;strokeColor=#ff0000;shadow=0;" vertex="1" parent="yVl_zPnCE7ZfCRvyxnzE-1">
          <mxGeometry x="165" y="134" width="30" height="30" as="geometry" />
        </mxCell>
        <mxCell id="zRgckGs39Syw5ZDX-80b-5" value="" style="edgeStyle=orthogonalEdgeStyle;html=1;verticalAlign=bottom;endArrow=open;endSize=8;strokeColor=#ff0000;entryX=0.5;entryY=0;entryDx=0;entryDy=0;" edge="1" parent="yVl_zPnCE7ZfCRvyxnzE-1" source="zRgckGs39Syw5ZDX-80b-4" target="zRgckGs39Syw5ZDX-80b-7">
          <mxGeometry relative="1" as="geometry">
            <mxPoint x="175.00000000000023" y="224" as="targetPoint" />
          </mxGeometry>
        </mxCell>
        <mxCell id="zRgckGs39Syw5ZDX-80b-6" style="edgeStyle=orthogonalEdgeStyle;rounded=0;orthogonalLoop=1;jettySize=auto;html=1;entryX=0;entryY=0.5;entryDx=0;entryDy=0;" edge="1" parent="yVl_zPnCE7ZfCRvyxnzE-1" source="zRgckGs39Syw5ZDX-80b-7" target="zRgckGs39Syw5ZDX-80b-18">
          <mxGeometry relative="1" as="geometry" />
        </mxCell>
        <mxCell id="zRgckGs39Syw5ZDX-80b-7" value="Tìm kiếm sản phẩm muốn chỉnh sửa" style="shape=ext;rounded=1;html=1;whiteSpace=wrap;strokeWidth=3;shadow=0;" vertex="1" parent="yVl_zPnCE7ZfCRvyxnzE-1">
          <mxGeometry x="120" y="230" width="120" height="80" as="geometry" />
        </mxCell>
        <mxCell id="zRgckGs39Syw5ZDX-80b-8" style="edgeStyle=orthogonalEdgeStyle;rounded=0;orthogonalLoop=1;jettySize=auto;html=1;exitX=0.5;exitY=0;exitDx=0;exitDy=0;entryX=0.75;entryY=0;entryDx=0;entryDy=0;" edge="1" parent="yVl_zPnCE7ZfCRvyxnzE-1" source="zRgckGs39Syw5ZDX-80b-10" target="zRgckGs39Syw5ZDX-80b-7">
          <mxGeometry relative="1" as="geometry">
            <Array as="points">
              <mxPoint x="640" y="160" />
              <mxPoint x="210" y="160" />
            </Array>
          </mxGeometry>
        </mxCell>
        <mxCell id="zRgckGs39Syw5ZDX-80b-9" style="edgeStyle=orthogonalEdgeStyle;rounded=0;orthogonalLoop=1;jettySize=auto;html=1;entryX=0.5;entryY=0;entryDx=0;entryDy=0;" edge="1" parent="yVl_zPnCE7ZfCRvyxnzE-1" source="zRgckGs39Syw5ZDX-80b-10" target="zRgckGs39Syw5ZDX-80b-13">
          <mxGeometry relative="1" as="geometry" />
        </mxCell>
        <mxCell id="zRgckGs39Syw5ZDX-80b-10" value="Check" style="rhombus;whiteSpace=wrap;html=1;fillColor=#ffffc0;strokeColor=#ff0000;shadow=0;" vertex="1" parent="yVl_zPnCE7ZfCRvyxnzE-1">
          <mxGeometry x="590" y="240" width="100" height="60" as="geometry" />
        </mxCell>
        <mxCell id="zRgckGs39Syw5ZDX-80b-11" value="Fail" style="text;html=1;align=center;verticalAlign=middle;resizable=0;points=[];autosize=1;" vertex="1" parent="yVl_zPnCE7ZfCRvyxnzE-1">
          <mxGeometry x="640" y="220" width="30" height="20" as="geometry" />
        </mxCell>
        <mxCell id="zRgckGs39Syw5ZDX-80b-12" style="edgeStyle=orthogonalEdgeStyle;rounded=0;orthogonalLoop=1;jettySize=auto;html=1;exitX=0.5;exitY=1;exitDx=0;exitDy=0;entryX=0.5;entryY=0;entryDx=0;entryDy=0;" edge="1" parent="yVl_zPnCE7ZfCRvyxnzE-1" source="zRgckGs39Syw5ZDX-80b-13" target="zRgckGs39Syw5ZDX-80b-16">
          <mxGeometry relative="1" as="geometry" />
        </mxCell>
        <mxCell id="zRgckGs39Syw5ZDX-80b-13" value="&amp;nbsp;Kiểm tra số lần cập nhật trong ngày" style="shape=ext;rounded=1;html=1;whiteSpace=wrap;strokeWidth=3;shadow=0;" vertex="1" parent="yVl_zPnCE7ZfCRvyxnzE-1">
          <mxGeometry x="570" y="370" width="140" height="80" as="geometry" />
        </mxCell>
        <mxCell id="zRgckGs39Syw5ZDX-80b-14" style="edgeStyle=orthogonalEdgeStyle;rounded=0;orthogonalLoop=1;jettySize=auto;html=1;entryX=0.5;entryY=0;entryDx=0;entryDy=0;" edge="1" parent="yVl_zPnCE7ZfCRvyxnzE-1" source="zRgckGs39Syw5ZDX-80b-16" target="zRgckGs39Syw5ZDX-80b-52">
          <mxGeometry relative="1" as="geometry">
            <mxPoint x="270" y="440" as="targetPoint" />
            <Array as="points">
              <mxPoint x="340" y="520" />
              <mxPoint x="340" y="440" />
              <mxPoint x="60" y="440" />
            </Array>
          </mxGeometry>
        </mxCell>
        <mxCell id="zRgckGs39Syw5ZDX-80b-15" style="edgeStyle=orthogonalEdgeStyle;rounded=0;orthogonalLoop=1;jettySize=auto;html=1;entryX=1;entryY=0.5;entryDx=0;entryDy=0;" edge="1" parent="yVl_zPnCE7ZfCRvyxnzE-1" source="zRgckGs39Syw5ZDX-80b-16" target="zRgckGs39Syw5ZDX-80b-38">
          <mxGeometry relative="1" as="geometry">
            <Array as="points">
              <mxPoint x="760" y="520" />
              <mxPoint x="760" y="1260" />
            </Array>
          </mxGeometry>
        </mxCell>
        <mxCell id="zRgckGs39Syw5ZDX-80b-16" value="Check" style="rhombus;whiteSpace=wrap;html=1;fillColor=#ffffc0;strokeColor=#ff0000;shadow=0;" vertex="1" parent="yVl_zPnCE7ZfCRvyxnzE-1">
          <mxGeometry x="600" y="500" width="80" height="40" as="geometry" />
        </mxCell>
        <mxCell id="zRgckGs39Syw5ZDX-80b-17" style="edgeStyle=orthogonalEdgeStyle;rounded=0;orthogonalLoop=1;jettySize=auto;html=1;exitX=1;exitY=0.5;exitDx=0;exitDy=0;entryX=0;entryY=0.5;entryDx=0;entryDy=0;" edge="1" parent="yVl_zPnCE7ZfCRvyxnzE-1" source="zRgckGs39Syw5ZDX-80b-18" target="zRgckGs39Syw5ZDX-80b-10">
          <mxGeometry relative="1" as="geometry" />
        </mxCell>
        <mxCell id="zRgckGs39Syw5ZDX-80b-18" value="Kiểm tra sản phẩm tồn tại" style="shape=ext;rounded=1;html=1;whiteSpace=wrap;strokeWidth=3;shadow=0;" vertex="1" parent="yVl_zPnCE7ZfCRvyxnzE-1">
          <mxGeometry x="450" y="230" width="120" height="80" as="geometry" />
        </mxCell>
        <mxCell id="zRgckGs39Syw5ZDX-80b-19" value="True" style="text;html=1;align=center;verticalAlign=middle;resizable=0;points=[];autosize=1;" vertex="1" parent="yVl_zPnCE7ZfCRvyxnzE-1">
          <mxGeometry x="635" y="300" width="40" height="20" as="geometry" />
        </mxCell>
        <mxCell id="zRgckGs39Syw5ZDX-80b-58" style="edgeStyle=orthogonalEdgeStyle;rounded=0;orthogonalLoop=1;jettySize=auto;html=1;entryX=0.5;entryY=0;entryDx=0;entryDy=0;" edge="1" parent="yVl_zPnCE7ZfCRvyxnzE-1" source="zRgckGs39Syw5ZDX-80b-21" target="zRgckGs39Syw5ZDX-80b-23">
          <mxGeometry relative="1" as="geometry" />
        </mxCell>
        <mxCell id="zRgckGs39Syw5ZDX-80b-21" value="&amp;nbsp;Hiển thị lại thông tin mới được cập nhật" style="shape=ext;rounded=1;html=1;whiteSpace=wrap;strokeWidth=3;shadow=0;" vertex="1" parent="yVl_zPnCE7ZfCRvyxnzE-1">
          <mxGeometry x="125" y="850" width="120" height="80" as="geometry" />
        </mxCell>
        <mxCell id="zRgckGs39Syw5ZDX-80b-22" style="edgeStyle=orthogonalEdgeStyle;rounded=0;orthogonalLoop=1;jettySize=auto;html=1;entryX=0.5;entryY=0;entryDx=0;entryDy=0;" edge="1" parent="yVl_zPnCE7ZfCRvyxnzE-1" source="zRgckGs39Syw5ZDX-80b-23" target="zRgckGs39Syw5ZDX-80b-26">
          <mxGeometry relative="1" as="geometry" />
        </mxCell>
        <mxCell id="zRgckGs39Syw5ZDX-80b-23" value="&amp;nbsp;Cập nhật tiếp sản phẩm khác" style="shape=ext;rounded=1;html=1;whiteSpace=wrap;strokeWidth=3;shadow=0;" vertex="1" parent="yVl_zPnCE7ZfCRvyxnzE-1">
          <mxGeometry x="125" y="986" width="120" height="80" as="geometry" />
        </mxCell>
        <mxCell id="zRgckGs39Syw5ZDX-80b-24" style="edgeStyle=orthogonalEdgeStyle;rounded=0;orthogonalLoop=1;jettySize=auto;html=1;entryX=0.5;entryY=0;entryDx=0;entryDy=0;" edge="1" parent="yVl_zPnCE7ZfCRvyxnzE-1" source="zRgckGs39Syw5ZDX-80b-26" target="zRgckGs39Syw5ZDX-80b-38">
          <mxGeometry relative="1" as="geometry">
            <mxPoint x="184.99999999999977" y="1235.9999999999998" as="targetPoint" />
          </mxGeometry>
        </mxCell>
        <mxCell id="zRgckGs39Syw5ZDX-80b-25" style="edgeStyle=orthogonalEdgeStyle;rounded=0;orthogonalLoop=1;jettySize=auto;html=1;entryX=0;entryY=0.425;entryDx=0;entryDy=0;entryPerimeter=0;" edge="1" parent="yVl_zPnCE7ZfCRvyxnzE-1" source="zRgckGs39Syw5ZDX-80b-26" target="zRgckGs39Syw5ZDX-80b-7">
          <mxGeometry relative="1" as="geometry">
            <Array as="points">
              <mxPoint x="185" y="1126" />
              <mxPoint x="30" y="1126" />
              <mxPoint x="30" y="264" />
            </Array>
          </mxGeometry>
        </mxCell>
        <mxCell id="zRgckGs39Syw5ZDX-80b-26" value="" style="rhombus;whiteSpace=wrap;html=1;fillColor=#ffffc0;strokeColor=#ff0000;shadow=0;" vertex="1" parent="yVl_zPnCE7ZfCRvyxnzE-1">
          <mxGeometry x="145" y="1106" width="80" height="40" as="geometry" />
        </mxCell>
        <mxCell id="zRgckGs39Syw5ZDX-80b-27" value="" style="ellipse;html=1;shape=endState;fillColor=#000000;strokeColor=#ff0000;shadow=0;" vertex="1" parent="yVl_zPnCE7ZfCRvyxnzE-1">
          <mxGeometry x="170" y="1350" width="30" height="30" as="geometry" />
        </mxCell>
        <mxCell id="zRgckGs39Syw5ZDX-80b-28" value="No" style="text;html=1;align=center;verticalAlign=middle;resizable=0;points=[];autosize=1;" vertex="1" parent="yVl_zPnCE7ZfCRvyxnzE-1">
          <mxGeometry x="185" y="1146" width="30" height="20" as="geometry" />
        </mxCell>
        <mxCell id="zRgckGs39Syw5ZDX-80b-29" value="Yes" style="text;html=1;align=center;verticalAlign=middle;resizable=0;points=[];autosize=1;" vertex="1" parent="yVl_zPnCE7ZfCRvyxnzE-1">
          <mxGeometry x="105" y="1106" width="40" height="20" as="geometry" />
        </mxCell>
        <mxCell id="zRgckGs39Syw5ZDX-80b-30" value="&amp;nbsp;True" style="text;html=1;align=center;verticalAlign=middle;resizable=0;points=[];autosize=1;" vertex="1" parent="yVl_zPnCE7ZfCRvyxnzE-1">
          <mxGeometry x="560" y="500" width="40" height="20" as="geometry" />
        </mxCell>
        <mxCell id="zRgckGs39Syw5ZDX-80b-55" style="edgeStyle=orthogonalEdgeStyle;rounded=0;orthogonalLoop=1;jettySize=auto;html=1;entryX=0;entryY=0.5;entryDx=0;entryDy=0;" edge="1" parent="yVl_zPnCE7ZfCRvyxnzE-1" source="zRgckGs39Syw5ZDX-80b-32" target="zRgckGs39Syw5ZDX-80b-45">
          <mxGeometry relative="1" as="geometry">
            <Array as="points">
              <mxPoint x="198" y="650" />
            </Array>
          </mxGeometry>
        </mxCell>
        <mxCell id="zRgckGs39Syw5ZDX-80b-32" value="Nhập giá mới của sản phẩm" style="shape=ext;rounded=1;html=1;whiteSpace=wrap;strokeWidth=3;shadow=0;" vertex="1" parent="yVl_zPnCE7ZfCRvyxnzE-1">
          <mxGeometry x="125" y="480" width="145" height="80" as="geometry" />
        </mxCell>
        <mxCell id="zRgckGs39Syw5ZDX-80b-34" style="edgeStyle=orthogonalEdgeStyle;rounded=0;orthogonalLoop=1;jettySize=auto;html=1;entryX=1;entryY=0.5;entryDx=0;entryDy=0;" edge="1" parent="yVl_zPnCE7ZfCRvyxnzE-1" source="zRgckGs39Syw5ZDX-80b-35" target="zRgckGs39Syw5ZDX-80b-21">
          <mxGeometry relative="1" as="geometry">
            <Array as="points">
              <mxPoint x="690" y="890" />
            </Array>
          </mxGeometry>
        </mxCell>
        <mxCell id="zRgckGs39Syw5ZDX-80b-35" value="Cập nhật thông tin trong cơ sở dữ liệu" style="shape=ext;rounded=1;html=1;whiteSpace=wrap;strokeWidth=3;shadow=0;" vertex="1" parent="yVl_zPnCE7ZfCRvyxnzE-1">
          <mxGeometry x="630" y="610" width="120" height="80" as="geometry" />
        </mxCell>
        <mxCell id="zRgckGs39Syw5ZDX-80b-36" value="Fail" style="text;html=1;align=center;verticalAlign=middle;resizable=0;points=[];autosize=1;" vertex="1" parent="yVl_zPnCE7ZfCRvyxnzE-1">
          <mxGeometry x="680" y="490" width="30" height="20" as="geometry" />
        </mxCell>
        <mxCell id="zRgckGs39Syw5ZDX-80b-37" style="edgeStyle=orthogonalEdgeStyle;rounded=0;orthogonalLoop=1;jettySize=auto;html=1;entryX=0.5;entryY=0;entryDx=0;entryDy=0;" edge="1" parent="yVl_zPnCE7ZfCRvyxnzE-1" source="zRgckGs39Syw5ZDX-80b-38" target="zRgckGs39Syw5ZDX-80b-27">
          <mxGeometry relative="1" as="geometry" />
        </mxCell>
        <mxCell id="zRgckGs39Syw5ZDX-80b-38" value="" style="shape=rhombus;html=1;verticalLabelPosition=top;verticalAlignment=bottom;shadow=0;" vertex="1" parent="yVl_zPnCE7ZfCRvyxnzE-1">
          <mxGeometry x="165" y="1240" width="40" height="40" as="geometry" />
        </mxCell>
        <mxCell id="zRgckGs39Syw5ZDX-80b-56" style="edgeStyle=orthogonalEdgeStyle;rounded=0;orthogonalLoop=1;jettySize=auto;html=1;" edge="1" parent="yVl_zPnCE7ZfCRvyxnzE-1" source="zRgckGs39Syw5ZDX-80b-45" target="zRgckGs39Syw5ZDX-80b-46">
          <mxGeometry relative="1" as="geometry" />
        </mxCell>
        <mxCell id="zRgckGs39Syw5ZDX-80b-45" value="&amp;nbsp;Kiểm tra thỏa mãn điều kiện giá 30-150%" style="shape=ext;rounded=1;html=1;whiteSpace=wrap;strokeWidth=3;shadow=0;" vertex="1" parent="yVl_zPnCE7ZfCRvyxnzE-1">
          <mxGeometry x="450" y="610" width="120" height="80" as="geometry" />
        </mxCell>
        <mxCell id="zRgckGs39Syw5ZDX-80b-49" style="edgeStyle=orthogonalEdgeStyle;rounded=0;orthogonalLoop=1;jettySize=auto;html=1;entryX=0;entryY=0.5;entryDx=0;entryDy=0;" edge="1" parent="yVl_zPnCE7ZfCRvyxnzE-1" source="zRgckGs39Syw5ZDX-80b-46" target="zRgckGs39Syw5ZDX-80b-35">
          <mxGeometry relative="1" as="geometry" />
        </mxCell>
        <mxCell id="zRgckGs39Syw5ZDX-80b-51" style="edgeStyle=orthogonalEdgeStyle;rounded=0;orthogonalLoop=1;jettySize=auto;html=1;" edge="1" parent="yVl_zPnCE7ZfCRvyxnzE-1" source="zRgckGs39Syw5ZDX-80b-46" target="zRgckGs39Syw5ZDX-80b-52">
          <mxGeometry relative="1" as="geometry">
            <mxPoint x="60" y="530" as="targetPoint" />
          </mxGeometry>
        </mxCell>
        <mxCell id="zRgckGs39Syw5ZDX-80b-46" value="Condition" style="rhombus;whiteSpace=wrap;html=1;fillColor=#ffffc0;strokeColor=#ff0000;shadow=0;" vertex="1" parent="yVl_zPnCE7ZfCRvyxnzE-1">
          <mxGeometry x="470" y="720" width="80" height="40" as="geometry" />
        </mxCell>
        <mxCell id="zRgckGs39Syw5ZDX-80b-50" value="True" style="text;html=1;align=center;verticalAlign=middle;resizable=0;points=[];autosize=1;" vertex="1" parent="yVl_zPnCE7ZfCRvyxnzE-1">
          <mxGeometry x="550" y="720" width="40" height="20" as="geometry" />
        </mxCell>
        <mxCell id="zRgckGs39Syw5ZDX-80b-53" style="edgeStyle=orthogonalEdgeStyle;rounded=0;orthogonalLoop=1;jettySize=auto;html=1;entryX=0;entryY=0.5;entryDx=0;entryDy=0;" edge="1" parent="yVl_zPnCE7ZfCRvyxnzE-1" source="zRgckGs39Syw5ZDX-80b-52" target="zRgckGs39Syw5ZDX-80b-32">
          <mxGeometry relative="1" as="geometry" />
        </mxCell>
        <mxCell id="zRgckGs39Syw5ZDX-80b-52" value="" style="shape=rhombus;html=1;verticalLabelPosition=top;verticalAlignment=bottom;" vertex="1" parent="yVl_zPnCE7ZfCRvyxnzE-1">
          <mxGeometry x="40" y="500" width="40" height="40" as="geometry" />
        </mxCell>
        <mxCell id="zRgckGs39Syw5ZDX-80b-57" value="Fail" style="text;html=1;align=center;verticalAlign=middle;resizable=0;points=[];autosize=1;" vertex="1" parent="yVl_zPnCE7ZfCRvyxnzE-1">
          <mxGeometry x="440" y="720" width="30" height="20" as="geometry" />
        </mxCell>
      </root>
    </mxGraphModel>
  </diagram>
  <diagram id="_Wq6D709LyeruJ3Xjmau" name="Buyer-Buy-Product">
    <mxGraphModel dx="1351" dy="821" grid="1" gridSize="10" guides="1" tooltips="1" connect="1" arrows="1" fold="1" page="1" pageScale="1" pageWidth="827" pageHeight="1169" math="0" shadow="0">
      <root>
        <mxCell id="PCMA6-iWNsx4mEBH3OZs-0" />
        <mxCell id="PCMA6-iWNsx4mEBH3OZs-1" parent="PCMA6-iWNsx4mEBH3OZs-0" />
        <mxCell id="sQT0-sbjs31Z6fddyBxo-0" value="&lt;font style=&quot;font-size: 18px&quot;&gt;Thêm sản phẩm vào giỏ hàng&lt;/font&gt;" style="text;html=1;align=center;verticalAlign=middle;resizable=0;points=[];autosize=1;" vertex="1" parent="PCMA6-iWNsx4mEBH3OZs-1">
          <mxGeometry x="289" y="20" width="250" height="20" as="geometry" />
        </mxCell>
        <mxCell id="sQT0-sbjs31Z6fddyBxo-1" value="&amp;nbsp;Buyer" style="text;html=1;align=center;verticalAlign=middle;resizable=0;points=[];autosize=1;" vertex="1" parent="PCMA6-iWNsx4mEBH3OZs-1">
          <mxGeometry x="170" y="60" width="50" height="20" as="geometry" />
        </mxCell>
        <mxCell id="sQT0-sbjs31Z6fddyBxo-2" value="System" style="text;html=1;align=center;verticalAlign=middle;resizable=0;points=[];autosize=1;" vertex="1" parent="PCMA6-iWNsx4mEBH3OZs-1">
          <mxGeometry x="620" y="60" width="60" height="20" as="geometry" />
        </mxCell>
        <mxCell id="sQT0-sbjs31Z6fddyBxo-3" value="" style="endArrow=none;html=1;" edge="1" parent="PCMA6-iWNsx4mEBH3OZs-1">
          <mxGeometry width="50" height="50" relative="1" as="geometry">
            <mxPoint x="414" y="960" as="sourcePoint" />
            <mxPoint x="414" y="60" as="targetPoint" />
          </mxGeometry>
        </mxCell>
        <mxCell id="sQT0-sbjs31Z6fddyBxo-5" value="" style="ellipse;html=1;shape=startState;fillColor=#000000;strokeColor=#ff0000;shadow=0;" vertex="1" parent="PCMA6-iWNsx4mEBH3OZs-1">
          <mxGeometry x="180" y="90" width="30" height="30" as="geometry" />
        </mxCell>
        <mxCell id="sQT0-sbjs31Z6fddyBxo-6" value="" style="edgeStyle=orthogonalEdgeStyle;html=1;verticalAlign=bottom;endArrow=open;endSize=8;strokeColor=#ff0000;entryX=0.5;entryY=0;entryDx=0;entryDy=0;" edge="1" source="sQT0-sbjs31Z6fddyBxo-5" parent="PCMA6-iWNsx4mEBH3OZs-1" target="sQT0-sbjs31Z6fddyBxo-7">
          <mxGeometry relative="1" as="geometry">
            <mxPoint x="195" y="180" as="targetPoint" />
          </mxGeometry>
        </mxCell>
        <mxCell id="sQT0-sbjs31Z6fddyBxo-8" style="edgeStyle=orthogonalEdgeStyle;rounded=0;orthogonalLoop=1;jettySize=auto;html=1;entryX=0;entryY=0.5;entryDx=0;entryDy=0;" edge="1" parent="PCMA6-iWNsx4mEBH3OZs-1" source="sQT0-sbjs31Z6fddyBxo-7" target="sQT0-sbjs31Z6fddyBxo-9">
          <mxGeometry relative="1" as="geometry">
            <mxPoint x="520" y="230" as="targetPoint" />
          </mxGeometry>
        </mxCell>
        <mxCell id="sQT0-sbjs31Z6fddyBxo-7" value="Chọn sản phẩm" style="shape=ext;rounded=1;html=1;whiteSpace=wrap;strokeWidth=3;shadow=0;" vertex="1" parent="PCMA6-iWNsx4mEBH3OZs-1">
          <mxGeometry x="135" y="190" width="120" height="80" as="geometry" />
        </mxCell>
        <mxCell id="sQT0-sbjs31Z6fddyBxo-13" style="edgeStyle=orthogonalEdgeStyle;rounded=0;orthogonalLoop=1;jettySize=auto;html=1;entryX=0.5;entryY=0;entryDx=0;entryDy=0;" edge="1" parent="PCMA6-iWNsx4mEBH3OZs-1" source="sQT0-sbjs31Z6fddyBxo-9" target="sQT0-sbjs31Z6fddyBxo-10">
          <mxGeometry relative="1" as="geometry" />
        </mxCell>
        <mxCell id="sQT0-sbjs31Z6fddyBxo-9" value="&amp;nbsp;Kiểm tra số lượng sản phẩm trong kho" style="shape=ext;rounded=1;html=1;whiteSpace=wrap;strokeWidth=3;shadow=0;" vertex="1" parent="PCMA6-iWNsx4mEBH3OZs-1">
          <mxGeometry x="590" y="190" width="120" height="80" as="geometry" />
        </mxCell>
        <mxCell id="sQT0-sbjs31Z6fddyBxo-14" style="edgeStyle=orthogonalEdgeStyle;rounded=0;orthogonalLoop=1;jettySize=auto;html=1;entryX=1;entryY=0.5;entryDx=0;entryDy=0;" edge="1" parent="PCMA6-iWNsx4mEBH3OZs-1" source="sQT0-sbjs31Z6fddyBxo-10" target="sQT0-sbjs31Z6fddyBxo-15">
          <mxGeometry relative="1" as="geometry">
            <mxPoint x="260" y="330" as="targetPoint" />
          </mxGeometry>
        </mxCell>
        <mxCell id="sQT0-sbjs31Z6fddyBxo-20" style="edgeStyle=orthogonalEdgeStyle;rounded=0;orthogonalLoop=1;jettySize=auto;html=1;entryX=0.5;entryY=0;entryDx=0;entryDy=0;" edge="1" parent="PCMA6-iWNsx4mEBH3OZs-1" source="sQT0-sbjs31Z6fddyBxo-10" target="sQT0-sbjs31Z6fddyBxo-19">
          <mxGeometry relative="1" as="geometry" />
        </mxCell>
        <mxCell id="sQT0-sbjs31Z6fddyBxo-10" value="Condition" style="rhombus;whiteSpace=wrap;html=1;fillColor=#ffffc0;strokeColor=#ff0000;shadow=0;" vertex="1" parent="PCMA6-iWNsx4mEBH3OZs-1">
          <mxGeometry x="610" y="310" width="80" height="40" as="geometry" />
        </mxCell>
        <mxCell id="sQT0-sbjs31Z6fddyBxo-30" style="edgeStyle=orthogonalEdgeStyle;rounded=0;orthogonalLoop=1;jettySize=auto;html=1;" edge="1" parent="PCMA6-iWNsx4mEBH3OZs-1" source="sQT0-sbjs31Z6fddyBxo-15" target="sQT0-sbjs31Z6fddyBxo-31">
          <mxGeometry relative="1" as="geometry">
            <mxPoint x="60" y="550" as="targetPoint" />
          </mxGeometry>
        </mxCell>
        <mxCell id="sQT0-sbjs31Z6fddyBxo-15" value="&amp;nbsp;Thông báo hết sản phẩm" style="shape=ext;rounded=1;html=1;whiteSpace=wrap;strokeWidth=3;shadow=0;" vertex="1" parent="PCMA6-iWNsx4mEBH3OZs-1">
          <mxGeometry x="135" y="290" width="120" height="80" as="geometry" />
        </mxCell>
        <mxCell id="sQT0-sbjs31Z6fddyBxo-18" value="Fail" style="text;html=1;align=center;verticalAlign=middle;resizable=0;points=[];autosize=1;" vertex="1" parent="PCMA6-iWNsx4mEBH3OZs-1">
          <mxGeometry x="580" y="310" width="30" height="20" as="geometry" />
        </mxCell>
        <mxCell id="sQT0-sbjs31Z6fddyBxo-23" style="edgeStyle=orthogonalEdgeStyle;rounded=0;orthogonalLoop=1;jettySize=auto;html=1;" edge="1" parent="PCMA6-iWNsx4mEBH3OZs-1" source="sQT0-sbjs31Z6fddyBxo-19" target="sQT0-sbjs31Z6fddyBxo-22">
          <mxGeometry relative="1" as="geometry" />
        </mxCell>
        <mxCell id="sQT0-sbjs31Z6fddyBxo-19" value="&amp;nbsp;Thêm sản phẩm vào giỏ hàng" style="shape=ext;rounded=1;html=1;whiteSpace=wrap;strokeWidth=3;shadow=0;" vertex="1" parent="PCMA6-iWNsx4mEBH3OZs-1">
          <mxGeometry x="590" y="410" width="120" height="80" as="geometry" />
        </mxCell>
        <mxCell id="sQT0-sbjs31Z6fddyBxo-24" style="edgeStyle=orthogonalEdgeStyle;rounded=0;orthogonalLoop=1;jettySize=auto;html=1;entryX=1;entryY=0.5;entryDx=0;entryDy=0;" edge="1" parent="PCMA6-iWNsx4mEBH3OZs-1" source="sQT0-sbjs31Z6fddyBxo-22" target="sQT0-sbjs31Z6fddyBxo-25">
          <mxGeometry relative="1" as="geometry">
            <mxPoint x="300" y="580" as="targetPoint" />
          </mxGeometry>
        </mxCell>
        <mxCell id="sQT0-sbjs31Z6fddyBxo-22" value="&amp;nbsp;Cập nhật tạm thời cơ sở dữ liệu&amp;nbsp;" style="shape=ext;rounded=1;html=1;whiteSpace=wrap;strokeWidth=3;shadow=0;" vertex="1" parent="PCMA6-iWNsx4mEBH3OZs-1">
          <mxGeometry x="590" y="540" width="120" height="80" as="geometry" />
        </mxCell>
        <mxCell id="sQT0-sbjs31Z6fddyBxo-32" style="edgeStyle=orthogonalEdgeStyle;rounded=0;orthogonalLoop=1;jettySize=auto;html=1;entryX=1;entryY=0.5;entryDx=0;entryDy=0;" edge="1" parent="PCMA6-iWNsx4mEBH3OZs-1" source="sQT0-sbjs31Z6fddyBxo-25" target="sQT0-sbjs31Z6fddyBxo-31">
          <mxGeometry relative="1" as="geometry">
            <mxPoint x="90" y="580" as="targetPoint" />
          </mxGeometry>
        </mxCell>
        <mxCell id="sQT0-sbjs31Z6fddyBxo-25" value="&amp;nbsp;Hiển thị sản phẩm trong giỏ hàng" style="shape=ext;rounded=1;html=1;whiteSpace=wrap;strokeWidth=3;shadow=0;" vertex="1" parent="PCMA6-iWNsx4mEBH3OZs-1">
          <mxGeometry x="135" y="540" width="120" height="80" as="geometry" />
        </mxCell>
        <mxCell id="sQT0-sbjs31Z6fddyBxo-37" style="edgeStyle=orthogonalEdgeStyle;rounded=0;orthogonalLoop=1;jettySize=auto;html=1;entryX=0.5;entryY=0;entryDx=0;entryDy=0;" edge="1" parent="PCMA6-iWNsx4mEBH3OZs-1" source="sQT0-sbjs31Z6fddyBxo-29" target="sQT0-sbjs31Z6fddyBxo-34">
          <mxGeometry relative="1" as="geometry" />
        </mxCell>
        <mxCell id="sQT0-sbjs31Z6fddyBxo-29" value="&amp;nbsp;Mua sản phẩm khác?" style="shape=ext;rounded=1;html=1;whiteSpace=wrap;strokeWidth=3;shadow=0;" vertex="1" parent="PCMA6-iWNsx4mEBH3OZs-1">
          <mxGeometry x="135" y="670" width="120" height="80" as="geometry" />
        </mxCell>
        <mxCell id="sQT0-sbjs31Z6fddyBxo-33" style="edgeStyle=orthogonalEdgeStyle;rounded=0;orthogonalLoop=1;jettySize=auto;html=1;entryX=0;entryY=0.5;entryDx=0;entryDy=0;" edge="1" parent="PCMA6-iWNsx4mEBH3OZs-1" source="sQT0-sbjs31Z6fddyBxo-31" target="sQT0-sbjs31Z6fddyBxo-29">
          <mxGeometry relative="1" as="geometry">
            <Array as="points">
              <mxPoint x="60" y="710" />
            </Array>
          </mxGeometry>
        </mxCell>
        <mxCell id="sQT0-sbjs31Z6fddyBxo-31" value="" style="shape=rhombus;html=1;verticalLabelPosition=top;verticalAlignment=bottom;" vertex="1" parent="PCMA6-iWNsx4mEBH3OZs-1">
          <mxGeometry x="40" y="560" width="40" height="40" as="geometry" />
        </mxCell>
        <mxCell id="sQT0-sbjs31Z6fddyBxo-39" style="edgeStyle=orthogonalEdgeStyle;rounded=0;orthogonalLoop=1;jettySize=auto;html=1;entryX=0.5;entryY=0;entryDx=0;entryDy=0;" edge="1" parent="PCMA6-iWNsx4mEBH3OZs-1" source="sQT0-sbjs31Z6fddyBxo-34" target="sQT0-sbjs31Z6fddyBxo-38">
          <mxGeometry relative="1" as="geometry" />
        </mxCell>
        <mxCell id="sQT0-sbjs31Z6fddyBxo-34" value="Condition" style="rhombus;whiteSpace=wrap;html=1;fillColor=#ffffc0;strokeColor=#ff0000;shadow=0;" vertex="1" parent="PCMA6-iWNsx4mEBH3OZs-1">
          <mxGeometry x="155" y="800" width="80" height="40" as="geometry" />
        </mxCell>
        <mxCell id="sQT0-sbjs31Z6fddyBxo-38" value="" style="ellipse;html=1;shape=endState;fillColor=#000000;strokeColor=#ff0000;shadow=0;" vertex="1" parent="PCMA6-iWNsx4mEBH3OZs-1">
          <mxGeometry x="180" y="890" width="30" height="30" as="geometry" />
        </mxCell>
        <mxCell id="sQT0-sbjs31Z6fddyBxo-40" value="No" style="text;html=1;align=center;verticalAlign=middle;resizable=0;points=[];autosize=1;" vertex="1" parent="PCMA6-iWNsx4mEBH3OZs-1">
          <mxGeometry x="200" y="840" width="30" height="20" as="geometry" />
        </mxCell>
        <mxCell id="sQT0-sbjs31Z6fddyBxo-42" style="edgeStyle=orthogonalEdgeStyle;rounded=0;orthogonalLoop=1;jettySize=auto;html=1;entryX=0;entryY=0.5;entryDx=0;entryDy=0;exitX=0;exitY=0.5;exitDx=0;exitDy=0;" edge="1" parent="PCMA6-iWNsx4mEBH3OZs-1" source="sQT0-sbjs31Z6fddyBxo-34" target="sQT0-sbjs31Z6fddyBxo-7">
          <mxGeometry relative="1" as="geometry">
            <mxPoint x="165.00000000000023" y="820.0000000000002" as="sourcePoint" />
            <Array as="points">
              <mxPoint x="20" y="820" />
              <mxPoint x="20" y="230" />
            </Array>
          </mxGeometry>
        </mxCell>
        <mxCell id="sQT0-sbjs31Z6fddyBxo-44" value="Yes" style="text;html=1;align=center;verticalAlign=middle;resizable=0;points=[];autosize=1;" vertex="1" parent="PCMA6-iWNsx4mEBH3OZs-1">
          <mxGeometry x="115" y="800" width="40" height="20" as="geometry" />
        </mxCell>
        <mxCell id="sQT0-sbjs31Z6fddyBxo-45" value="True" style="text;html=1;align=center;verticalAlign=middle;resizable=0;points=[];autosize=1;" vertex="1" parent="PCMA6-iWNsx4mEBH3OZs-1">
          <mxGeometry x="650" y="350" width="40" height="20" as="geometry" />
        </mxCell>
      </root>
    </mxGraphModel>
  </diagram>
  <diagram id="1iMrZvidaHF2-JgEcPHd" name="Search-Product">
    <mxGraphModel dx="946" dy="575" grid="1" gridSize="10" guides="1" tooltips="1" connect="1" arrows="1" fold="1" page="1" pageScale="1" pageWidth="827" pageHeight="1169" math="0" shadow="0">
      <root>
        <mxCell id="guq_o4vW0VwaSOrTRJB4-0" />
        <mxCell id="guq_o4vW0VwaSOrTRJB4-1" parent="guq_o4vW0VwaSOrTRJB4-0" />
        <mxCell id="EmCb3rNoEfHo3-ipKysO-0" value="&lt;span style=&quot;font-size: 18px&quot;&gt;&amp;nbsp;Tìm kiếm sản phẩm&lt;/span&gt;" style="text;html=1;align=center;verticalAlign=middle;resizable=0;points=[];autosize=1;" vertex="1" parent="guq_o4vW0VwaSOrTRJB4-1">
          <mxGeometry x="324" y="20" width="180" height="20" as="geometry" />
        </mxCell>
        <mxCell id="EmCb3rNoEfHo3-ipKysO-1" value="&amp;nbsp;Buyer" style="text;html=1;align=center;verticalAlign=middle;resizable=0;points=[];autosize=1;" vertex="1" parent="guq_o4vW0VwaSOrTRJB4-1">
          <mxGeometry x="170" y="60" width="50" height="20" as="geometry" />
        </mxCell>
        <mxCell id="EmCb3rNoEfHo3-ipKysO-2" value="System" style="text;html=1;align=center;verticalAlign=middle;resizable=0;points=[];autosize=1;" vertex="1" parent="guq_o4vW0VwaSOrTRJB4-1">
          <mxGeometry x="620" y="60" width="60" height="20" as="geometry" />
        </mxCell>
        <mxCell id="EmCb3rNoEfHo3-ipKysO-3" value="" style="endArrow=none;html=1;" edge="1" parent="guq_o4vW0VwaSOrTRJB4-1">
          <mxGeometry width="50" height="50" relative="1" as="geometry">
            <mxPoint x="414" y="790" as="sourcePoint" />
            <mxPoint x="414" y="60" as="targetPoint" />
          </mxGeometry>
        </mxCell>
        <mxCell id="EmCb3rNoEfHo3-ipKysO-4" value="" style="ellipse;html=1;shape=startState;fillColor=#000000;strokeColor=#ff0000;shadow=0;" vertex="1" parent="guq_o4vW0VwaSOrTRJB4-1">
          <mxGeometry x="180" y="90" width="30" height="30" as="geometry" />
        </mxCell>
        <mxCell id="EmCb3rNoEfHo3-ipKysO-5" value="" style="edgeStyle=orthogonalEdgeStyle;html=1;verticalAlign=bottom;endArrow=open;endSize=8;strokeColor=#ff0000;entryX=0.5;entryY=0;entryDx=0;entryDy=0;" edge="1" parent="guq_o4vW0VwaSOrTRJB4-1" source="EmCb3rNoEfHo3-ipKysO-4" target="EmCb3rNoEfHo3-ipKysO-7">
          <mxGeometry relative="1" as="geometry">
            <mxPoint x="195" y="180" as="targetPoint" />
          </mxGeometry>
        </mxCell>
        <mxCell id="EmCb3rNoEfHo3-ipKysO-6" style="edgeStyle=orthogonalEdgeStyle;rounded=0;orthogonalLoop=1;jettySize=auto;html=1;entryX=0;entryY=0.5;entryDx=0;entryDy=0;" edge="1" parent="guq_o4vW0VwaSOrTRJB4-1" source="EmCb3rNoEfHo3-ipKysO-7" target="EmCb3rNoEfHo3-ipKysO-9">
          <mxGeometry relative="1" as="geometry">
            <mxPoint x="520" y="230" as="targetPoint" />
          </mxGeometry>
        </mxCell>
        <mxCell id="EmCb3rNoEfHo3-ipKysO-7" value="&amp;nbsp;Nhập sản phẩm tìm kiếm" style="shape=ext;rounded=1;html=1;whiteSpace=wrap;strokeWidth=3;shadow=0;" vertex="1" parent="guq_o4vW0VwaSOrTRJB4-1">
          <mxGeometry x="135" y="190" width="120" height="80" as="geometry" />
        </mxCell>
        <mxCell id="EmCb3rNoEfHo3-ipKysO-33" style="edgeStyle=orthogonalEdgeStyle;rounded=0;orthogonalLoop=1;jettySize=auto;html=1;entryX=1;entryY=0.5;entryDx=0;entryDy=0;" edge="1" parent="guq_o4vW0VwaSOrTRJB4-1" source="EmCb3rNoEfHo3-ipKysO-9" target="EmCb3rNoEfHo3-ipKysO-14">
          <mxGeometry relative="1" as="geometry">
            <mxPoint x="270" y="390" as="targetPoint" />
            <Array as="points">
              <mxPoint x="650" y="390" />
            </Array>
          </mxGeometry>
        </mxCell>
        <mxCell id="EmCb3rNoEfHo3-ipKysO-9" value="&amp;nbsp;Tìm kiếm trong cơ sở dữ liệu những sản phẩm liên quan" style="shape=ext;rounded=1;html=1;whiteSpace=wrap;strokeWidth=3;shadow=0;" vertex="1" parent="guq_o4vW0VwaSOrTRJB4-1">
          <mxGeometry x="590" y="190" width="120" height="80" as="geometry" />
        </mxCell>
        <mxCell id="EmCb3rNoEfHo3-ipKysO-34" style="edgeStyle=orthogonalEdgeStyle;rounded=0;orthogonalLoop=1;jettySize=auto;html=1;entryX=0.5;entryY=0;entryDx=0;entryDy=0;" edge="1" parent="guq_o4vW0VwaSOrTRJB4-1" source="EmCb3rNoEfHo3-ipKysO-14" target="EmCb3rNoEfHo3-ipKysO-23">
          <mxGeometry relative="1" as="geometry" />
        </mxCell>
        <mxCell id="EmCb3rNoEfHo3-ipKysO-14" value="&amp;nbsp;Hiện thị sản phẩm" style="shape=ext;rounded=1;html=1;whiteSpace=wrap;strokeWidth=3;shadow=0;" vertex="1" parent="guq_o4vW0VwaSOrTRJB4-1">
          <mxGeometry x="135" y="350" width="120" height="80" as="geometry" />
        </mxCell>
        <mxCell id="EmCb3rNoEfHo3-ipKysO-22" style="edgeStyle=orthogonalEdgeStyle;rounded=0;orthogonalLoop=1;jettySize=auto;html=1;entryX=0.5;entryY=0;entryDx=0;entryDy=0;" edge="1" parent="guq_o4vW0VwaSOrTRJB4-1" source="EmCb3rNoEfHo3-ipKysO-23" target="EmCb3rNoEfHo3-ipKysO-27">
          <mxGeometry relative="1" as="geometry" />
        </mxCell>
        <mxCell id="EmCb3rNoEfHo3-ipKysO-23" value="&amp;nbsp;Tìm kiếm sản phẩm khác?" style="shape=ext;rounded=1;html=1;whiteSpace=wrap;strokeWidth=3;shadow=0;" vertex="1" parent="guq_o4vW0VwaSOrTRJB4-1">
          <mxGeometry x="135" y="520" width="120" height="80" as="geometry" />
        </mxCell>
        <mxCell id="EmCb3rNoEfHo3-ipKysO-26" style="edgeStyle=orthogonalEdgeStyle;rounded=0;orthogonalLoop=1;jettySize=auto;html=1;entryX=0.5;entryY=0;entryDx=0;entryDy=0;" edge="1" parent="guq_o4vW0VwaSOrTRJB4-1" source="EmCb3rNoEfHo3-ipKysO-27" target="EmCb3rNoEfHo3-ipKysO-28">
          <mxGeometry relative="1" as="geometry" />
        </mxCell>
        <mxCell id="EmCb3rNoEfHo3-ipKysO-27" value="Condition" style="rhombus;whiteSpace=wrap;html=1;fillColor=#ffffc0;strokeColor=#ff0000;shadow=0;" vertex="1" parent="guq_o4vW0VwaSOrTRJB4-1">
          <mxGeometry x="155" y="650" width="80" height="40" as="geometry" />
        </mxCell>
        <mxCell id="EmCb3rNoEfHo3-ipKysO-28" value="" style="ellipse;html=1;shape=endState;fillColor=#000000;strokeColor=#ff0000;shadow=0;" vertex="1" parent="guq_o4vW0VwaSOrTRJB4-1">
          <mxGeometry x="180" y="740" width="30" height="30" as="geometry" />
        </mxCell>
        <mxCell id="EmCb3rNoEfHo3-ipKysO-29" value="No" style="text;html=1;align=center;verticalAlign=middle;resizable=0;points=[];autosize=1;" vertex="1" parent="guq_o4vW0VwaSOrTRJB4-1">
          <mxGeometry x="200" y="690" width="30" height="20" as="geometry" />
        </mxCell>
        <mxCell id="EmCb3rNoEfHo3-ipKysO-30" style="edgeStyle=orthogonalEdgeStyle;rounded=0;orthogonalLoop=1;jettySize=auto;html=1;entryX=0;entryY=0.5;entryDx=0;entryDy=0;exitX=0;exitY=0.5;exitDx=0;exitDy=0;" edge="1" parent="guq_o4vW0VwaSOrTRJB4-1" source="EmCb3rNoEfHo3-ipKysO-27" target="EmCb3rNoEfHo3-ipKysO-7">
          <mxGeometry relative="1" as="geometry">
            <mxPoint x="165.00000000000023" y="820.0000000000002" as="sourcePoint" />
            <Array as="points">
              <mxPoint x="20" y="670" />
              <mxPoint x="20" y="230" />
            </Array>
          </mxGeometry>
        </mxCell>
        <mxCell id="EmCb3rNoEfHo3-ipKysO-31" value="Yes" style="text;html=1;align=center;verticalAlign=middle;resizable=0;points=[];autosize=1;" vertex="1" parent="guq_o4vW0VwaSOrTRJB4-1">
          <mxGeometry x="115" y="650" width="40" height="20" as="geometry" />
        </mxCell>
      </root>
    </mxGraphModel>
  </diagram>
  <diagram id="pheTXnYzo5vwMMLFaQM4" name="Remove-Product-Cart">
    <mxGraphModel dx="946" dy="575" grid="1" gridSize="10" guides="1" tooltips="1" connect="1" arrows="1" fold="1" page="1" pageScale="1" pageWidth="827" pageHeight="1169" math="0" shadow="0">
      <root>
        <mxCell id="FJXqFInQ5YgQXu8MXpkx-0" />
        <mxCell id="FJXqFInQ5YgQXu8MXpkx-1" parent="FJXqFInQ5YgQXu8MXpkx-0" />
        <mxCell id="-ONLb6HiEC_oExUYh7Dm-0" value="&lt;span style=&quot;font-size: 18px&quot;&gt;&amp;nbsp;Xóa sản phẩm khỏi giỏ hàng&lt;/span&gt;" style="text;html=1;align=center;verticalAlign=middle;resizable=0;points=[];autosize=1;" vertex="1" parent="FJXqFInQ5YgQXu8MXpkx-1">
          <mxGeometry x="289" y="20" width="250" height="20" as="geometry" />
        </mxCell>
        <mxCell id="-ONLb6HiEC_oExUYh7Dm-1" value="&amp;nbsp;Buyer" style="text;html=1;align=center;verticalAlign=middle;resizable=0;points=[];autosize=1;" vertex="1" parent="FJXqFInQ5YgQXu8MXpkx-1">
          <mxGeometry x="170" y="60" width="50" height="20" as="geometry" />
        </mxCell>
        <mxCell id="-ONLb6HiEC_oExUYh7Dm-2" value="System" style="text;html=1;align=center;verticalAlign=middle;resizable=0;points=[];autosize=1;" vertex="1" parent="FJXqFInQ5YgQXu8MXpkx-1">
          <mxGeometry x="620" y="60" width="60" height="20" as="geometry" />
        </mxCell>
        <mxCell id="-ONLb6HiEC_oExUYh7Dm-3" value="" style="endArrow=none;html=1;" edge="1" parent="FJXqFInQ5YgQXu8MXpkx-1">
          <mxGeometry width="50" height="50" relative="1" as="geometry">
            <mxPoint x="410" y="960" as="sourcePoint" />
            <mxPoint x="414" y="60" as="targetPoint" />
          </mxGeometry>
        </mxCell>
        <mxCell id="-ONLb6HiEC_oExUYh7Dm-4" value="" style="ellipse;html=1;shape=startState;fillColor=#000000;strokeColor=#ff0000;shadow=0;" vertex="1" parent="FJXqFInQ5YgQXu8MXpkx-1">
          <mxGeometry x="180" y="90" width="30" height="30" as="geometry" />
        </mxCell>
        <mxCell id="-ONLb6HiEC_oExUYh7Dm-5" value="" style="edgeStyle=orthogonalEdgeStyle;html=1;verticalAlign=bottom;endArrow=open;endSize=8;strokeColor=#ff0000;entryX=0.5;entryY=0;entryDx=0;entryDy=0;" edge="1" parent="FJXqFInQ5YgQXu8MXpkx-1" source="-ONLb6HiEC_oExUYh7Dm-4" target="-ONLb6HiEC_oExUYh7Dm-7">
          <mxGeometry relative="1" as="geometry">
            <mxPoint x="195" y="180" as="targetPoint" />
          </mxGeometry>
        </mxCell>
        <mxCell id="-ONLb6HiEC_oExUYh7Dm-20" style="edgeStyle=orthogonalEdgeStyle;rounded=0;orthogonalLoop=1;jettySize=auto;html=1;entryX=0.5;entryY=0;entryDx=0;entryDy=0;" edge="1" parent="FJXqFInQ5YgQXu8MXpkx-1" source="-ONLb6HiEC_oExUYh7Dm-7" target="-ONLb6HiEC_oExUYh7Dm-21">
          <mxGeometry relative="1" as="geometry">
            <mxPoint x="195" y="320" as="targetPoint" />
          </mxGeometry>
        </mxCell>
        <mxCell id="-ONLb6HiEC_oExUYh7Dm-7" value="&amp;nbsp;Lựa chọn sản phẩm muốn xóa trong giỏ hàng" style="shape=ext;rounded=1;html=1;whiteSpace=wrap;strokeWidth=3;shadow=0;" vertex="1" parent="FJXqFInQ5YgQXu8MXpkx-1">
          <mxGeometry x="135" y="190" width="120" height="80" as="geometry" />
        </mxCell>
        <mxCell id="-ONLb6HiEC_oExUYh7Dm-32" style="edgeStyle=orthogonalEdgeStyle;rounded=0;orthogonalLoop=1;jettySize=auto;html=1;entryX=1;entryY=0.5;entryDx=0;entryDy=0;" edge="1" parent="FJXqFInQ5YgQXu8MXpkx-1" source="-ONLb6HiEC_oExUYh7Dm-9" target="-ONLb6HiEC_oExUYh7Dm-31">
          <mxGeometry relative="1" as="geometry">
            <Array as="points">
              <mxPoint x="650" y="570" />
            </Array>
          </mxGeometry>
        </mxCell>
        <mxCell id="-ONLb6HiEC_oExUYh7Dm-9" value="Xóa bỏ sản phẩm khỏi giỏ hàng" style="shape=ext;rounded=1;html=1;whiteSpace=wrap;strokeWidth=3;shadow=0;" vertex="1" parent="FJXqFInQ5YgQXu8MXpkx-1">
          <mxGeometry x="590" y="440" width="120" height="80" as="geometry" />
        </mxCell>
        <mxCell id="-ONLb6HiEC_oExUYh7Dm-14" style="edgeStyle=orthogonalEdgeStyle;rounded=0;orthogonalLoop=1;jettySize=auto;html=1;entryX=0.5;entryY=0;entryDx=0;entryDy=0;" edge="1" parent="FJXqFInQ5YgQXu8MXpkx-1" source="-ONLb6HiEC_oExUYh7Dm-15" target="-ONLb6HiEC_oExUYh7Dm-16">
          <mxGeometry relative="1" as="geometry" />
        </mxCell>
        <mxCell id="-ONLb6HiEC_oExUYh7Dm-37" style="edgeStyle=orthogonalEdgeStyle;rounded=0;orthogonalLoop=1;jettySize=auto;html=1;" edge="1" parent="FJXqFInQ5YgQXu8MXpkx-1" source="-ONLb6HiEC_oExUYh7Dm-15" target="-ONLb6HiEC_oExUYh7Dm-7">
          <mxGeometry relative="1" as="geometry">
            <Array as="points">
              <mxPoint x="20" y="820" />
              <mxPoint x="20" y="230" />
            </Array>
          </mxGeometry>
        </mxCell>
        <mxCell id="-ONLb6HiEC_oExUYh7Dm-15" value="Condition" style="rhombus;whiteSpace=wrap;html=1;fillColor=#ffffc0;strokeColor=#ff0000;shadow=0;" vertex="1" parent="FJXqFInQ5YgQXu8MXpkx-1">
          <mxGeometry x="155" y="800" width="80" height="40" as="geometry" />
        </mxCell>
        <mxCell id="-ONLb6HiEC_oExUYh7Dm-16" value="" style="ellipse;html=1;shape=endState;fillColor=#000000;strokeColor=#ff0000;shadow=0;" vertex="1" parent="FJXqFInQ5YgQXu8MXpkx-1">
          <mxGeometry x="180" y="890" width="30" height="30" as="geometry" />
        </mxCell>
        <mxCell id="-ONLb6HiEC_oExUYh7Dm-17" value="No" style="text;html=1;align=center;verticalAlign=middle;resizable=0;points=[];autosize=1;" vertex="1" parent="FJXqFInQ5YgQXu8MXpkx-1">
          <mxGeometry x="200" y="840" width="30" height="20" as="geometry" />
        </mxCell>
        <mxCell id="-ONLb6HiEC_oExUYh7Dm-26" style="edgeStyle=orthogonalEdgeStyle;rounded=0;orthogonalLoop=1;jettySize=auto;html=1;entryX=0.5;entryY=0;entryDx=0;entryDy=0;" edge="1" parent="FJXqFInQ5YgQXu8MXpkx-1" source="-ONLb6HiEC_oExUYh7Dm-21" target="-ONLb6HiEC_oExUYh7Dm-23">
          <mxGeometry relative="1" as="geometry" />
        </mxCell>
        <mxCell id="-ONLb6HiEC_oExUYh7Dm-21" value="&amp;nbsp;Xác nhận xóa sản phẩm" style="shape=ext;rounded=1;html=1;whiteSpace=wrap;strokeWidth=3;shadow=0;" vertex="1" parent="FJXqFInQ5YgQXu8MXpkx-1">
          <mxGeometry x="135" y="330" width="120" height="80" as="geometry" />
        </mxCell>
        <mxCell id="-ONLb6HiEC_oExUYh7Dm-29" style="edgeStyle=orthogonalEdgeStyle;rounded=0;orthogonalLoop=1;jettySize=auto;html=1;entryX=0;entryY=0.5;entryDx=0;entryDy=0;" edge="1" parent="FJXqFInQ5YgQXu8MXpkx-1" source="-ONLb6HiEC_oExUYh7Dm-23" target="-ONLb6HiEC_oExUYh7Dm-9">
          <mxGeometry relative="1" as="geometry" />
        </mxCell>
        <mxCell id="-ONLb6HiEC_oExUYh7Dm-39" style="edgeStyle=orthogonalEdgeStyle;rounded=0;orthogonalLoop=1;jettySize=auto;html=1;" edge="1" parent="FJXqFInQ5YgQXu8MXpkx-1" source="-ONLb6HiEC_oExUYh7Dm-23" target="-ONLb6HiEC_oExUYh7Dm-40">
          <mxGeometry relative="1" as="geometry">
            <mxPoint x="60" y="540" as="targetPoint" />
          </mxGeometry>
        </mxCell>
        <mxCell id="-ONLb6HiEC_oExUYh7Dm-23" value="Condition" style="rhombus;whiteSpace=wrap;html=1;fillColor=#ffffc0;strokeColor=#ff0000;shadow=0;" vertex="1" parent="FJXqFInQ5YgQXu8MXpkx-1">
          <mxGeometry x="155" y="460" width="80" height="40" as="geometry" />
        </mxCell>
        <mxCell id="-ONLb6HiEC_oExUYh7Dm-41" style="edgeStyle=orthogonalEdgeStyle;rounded=0;orthogonalLoop=1;jettySize=auto;html=1;entryX=1;entryY=0.5;entryDx=0;entryDy=0;" edge="1" parent="FJXqFInQ5YgQXu8MXpkx-1" source="-ONLb6HiEC_oExUYh7Dm-31" target="-ONLb6HiEC_oExUYh7Dm-40">
          <mxGeometry relative="1" as="geometry" />
        </mxCell>
        <mxCell id="-ONLb6HiEC_oExUYh7Dm-31" value="&amp;nbsp;Hiển thị lại thông tin giỏ hàng mới" style="shape=ext;rounded=1;html=1;whiteSpace=wrap;strokeWidth=3;shadow=0;" vertex="1" parent="FJXqFInQ5YgQXu8MXpkx-1">
          <mxGeometry x="135" y="530" width="120" height="80" as="geometry" />
        </mxCell>
        <mxCell id="-ONLb6HiEC_oExUYh7Dm-36" style="edgeStyle=orthogonalEdgeStyle;rounded=0;orthogonalLoop=1;jettySize=auto;html=1;entryX=0.5;entryY=0;entryDx=0;entryDy=0;" edge="1" parent="FJXqFInQ5YgQXu8MXpkx-1" source="-ONLb6HiEC_oExUYh7Dm-33" target="-ONLb6HiEC_oExUYh7Dm-15">
          <mxGeometry relative="1" as="geometry" />
        </mxCell>
        <mxCell id="-ONLb6HiEC_oExUYh7Dm-33" value="&amp;nbsp;Xóa sản phẩm khác?" style="shape=ext;rounded=1;html=1;whiteSpace=wrap;strokeWidth=3;shadow=0;" vertex="1" parent="FJXqFInQ5YgQXu8MXpkx-1">
          <mxGeometry x="135" y="670" width="120" height="80" as="geometry" />
        </mxCell>
        <mxCell id="-ONLb6HiEC_oExUYh7Dm-38" value="Yes" style="text;html=1;align=center;verticalAlign=middle;resizable=0;points=[];autosize=1;" vertex="1" parent="FJXqFInQ5YgQXu8MXpkx-1">
          <mxGeometry x="115" y="800" width="40" height="20" as="geometry" />
        </mxCell>
        <mxCell id="-ONLb6HiEC_oExUYh7Dm-42" style="edgeStyle=orthogonalEdgeStyle;rounded=0;orthogonalLoop=1;jettySize=auto;html=1;entryX=0;entryY=0.5;entryDx=0;entryDy=0;" edge="1" parent="FJXqFInQ5YgQXu8MXpkx-1" source="-ONLb6HiEC_oExUYh7Dm-40" target="-ONLb6HiEC_oExUYh7Dm-33">
          <mxGeometry relative="1" as="geometry">
            <Array as="points">
              <mxPoint x="60" y="710" />
            </Array>
          </mxGeometry>
        </mxCell>
        <mxCell id="-ONLb6HiEC_oExUYh7Dm-40" value="" style="shape=rhombus;html=1;verticalLabelPosition=bottom;verticalAlignment=top;" vertex="1" parent="FJXqFInQ5YgQXu8MXpkx-1">
          <mxGeometry x="40" y="550" width="40" height="40" as="geometry" />
        </mxCell>
      </root>
    </mxGraphModel>
  </diagram>
  <diagram id="y6Tfm3juyTMjgBtaHm-1" name=" Payment">
    <mxGraphModel dx="1113" dy="676" grid="1" gridSize="10" guides="1" tooltips="1" connect="1" arrows="1" fold="1" page="1" pageScale="1" pageWidth="827" pageHeight="1169" math="0" shadow="0">
      <root>
        <mxCell id="YiehGa9-LwkshTnIvYxl-0" />
        <mxCell id="YiehGa9-LwkshTnIvYxl-1" parent="YiehGa9-LwkshTnIvYxl-0" />
        <mxCell id="YalKXjyiTAbiHCEyGo1a-27" value="&lt;font style=&quot;font-size: 24px&quot;&gt;&amp;nbsp;Thanh toán sản phẩm&lt;/font&gt;" style="text;html=1;align=center;verticalAlign=middle;resizable=0;points=[];autosize=1;" vertex="1" parent="YiehGa9-LwkshTnIvYxl-1">
          <mxGeometry x="284" y="20" width="260" height="20" as="geometry" />
        </mxCell>
        <mxCell id="YalKXjyiTAbiHCEyGo1a-28" value="Buyer" style="text;html=1;align=center;verticalAlign=middle;resizable=0;points=[];autosize=1;" vertex="1" parent="YiehGa9-LwkshTnIvYxl-1">
          <mxGeometry x="97" y="56" width="50" height="20" as="geometry" />
        </mxCell>
        <mxCell id="YalKXjyiTAbiHCEyGo1a-29" value="System" style="text;html=1;align=center;verticalAlign=middle;resizable=0;points=[];autosize=1;" vertex="1" parent="YiehGa9-LwkshTnIvYxl-1">
          <mxGeometry x="400" y="56" width="60" height="20" as="geometry" />
        </mxCell>
        <mxCell id="YalKXjyiTAbiHCEyGo1a-30" value="Bank" style="text;html=1;align=center;verticalAlign=middle;resizable=0;points=[];autosize=1;" vertex="1" parent="YiehGa9-LwkshTnIvYxl-1">
          <mxGeometry x="690" y="56" width="40" height="20" as="geometry" />
        </mxCell>
        <mxCell id="YalKXjyiTAbiHCEyGo1a-31" value="" style="endArrow=none;html=1;" edge="1" parent="YiehGa9-LwkshTnIvYxl-1">
          <mxGeometry width="50" height="50" relative="1" as="geometry">
            <mxPoint x="270" y="1920" as="sourcePoint" />
            <mxPoint x="270" y="56" as="targetPoint" />
          </mxGeometry>
        </mxCell>
        <mxCell id="YalKXjyiTAbiHCEyGo1a-32" value="" style="endArrow=none;html=1;" edge="1" parent="YiehGa9-LwkshTnIvYxl-1">
          <mxGeometry width="50" height="50" relative="1" as="geometry">
            <mxPoint x="600" y="1920" as="sourcePoint" />
            <mxPoint x="600" y="56" as="targetPoint" />
          </mxGeometry>
        </mxCell>
        <mxCell id="YalKXjyiTAbiHCEyGo1a-33" value="" style="ellipse;html=1;shape=startState;fillColor=#000000;strokeColor=#ff0000;shadow=0;" vertex="1" parent="YiehGa9-LwkshTnIvYxl-1">
          <mxGeometry x="107" y="100" width="30" height="30" as="geometry" />
        </mxCell>
        <mxCell id="YalKXjyiTAbiHCEyGo1a-34" value="" style="edgeStyle=orthogonalEdgeStyle;html=1;verticalAlign=bottom;endArrow=open;endSize=8;strokeColor=#ff0000;" edge="1" source="YalKXjyiTAbiHCEyGo1a-33" parent="YiehGa9-LwkshTnIvYxl-1">
          <mxGeometry relative="1" as="geometry">
            <mxPoint x="122" y="190" as="targetPoint" />
          </mxGeometry>
        </mxCell>
        <mxCell id="YalKXjyiTAbiHCEyGo1a-39" style="edgeStyle=orthogonalEdgeStyle;rounded=0;orthogonalLoop=1;jettySize=auto;html=1;entryX=0;entryY=0.5;entryDx=0;entryDy=0;" edge="1" parent="YiehGa9-LwkshTnIvYxl-1" source="YalKXjyiTAbiHCEyGo1a-35">
          <mxGeometry relative="1" as="geometry">
            <mxPoint x="310" y="230" as="targetPoint" />
          </mxGeometry>
        </mxCell>
        <mxCell id="YalKXjyiTAbiHCEyGo1a-35" value="Lựa chọn thanh toán" style="shape=ext;rounded=1;html=1;whiteSpace=wrap;strokeWidth=3;shadow=0;" vertex="1" parent="YiehGa9-LwkshTnIvYxl-1">
          <mxGeometry x="62" y="190" width="120" height="80" as="geometry" />
        </mxCell>
        <mxCell id="YalKXjyiTAbiHCEyGo1a-45" style="edgeStyle=orthogonalEdgeStyle;rounded=0;orthogonalLoop=1;jettySize=auto;html=1;entryX=0.5;entryY=0;entryDx=0;entryDy=0;" edge="1" parent="YiehGa9-LwkshTnIvYxl-1" source="YalKXjyiTAbiHCEyGo1a-40" target="YalKXjyiTAbiHCEyGo1a-41">
          <mxGeometry relative="1" as="geometry" />
        </mxCell>
        <mxCell id="YalKXjyiTAbiHCEyGo1a-40" value="&amp;nbsp;Kiểm tra đăng nhập" style="shape=ext;rounded=1;html=1;whiteSpace=wrap;strokeWidth=3;shadow=0;" vertex="1" parent="YiehGa9-LwkshTnIvYxl-1">
          <mxGeometry x="310" y="190" width="120" height="80" as="geometry" />
        </mxCell>
        <mxCell id="YalKXjyiTAbiHCEyGo1a-47" style="edgeStyle=orthogonalEdgeStyle;rounded=0;orthogonalLoop=1;jettySize=auto;html=1;" edge="1" parent="YiehGa9-LwkshTnIvYxl-1" source="YalKXjyiTAbiHCEyGo1a-41" target="YalKXjyiTAbiHCEyGo1a-46">
          <mxGeometry relative="1" as="geometry" />
        </mxCell>
        <mxCell id="YalKXjyiTAbiHCEyGo1a-58" style="edgeStyle=orthogonalEdgeStyle;rounded=0;orthogonalLoop=1;jettySize=auto;html=1;entryX=0.5;entryY=0;entryDx=0;entryDy=0;" edge="1" parent="YiehGa9-LwkshTnIvYxl-1" source="YalKXjyiTAbiHCEyGo1a-41" target="YalKXjyiTAbiHCEyGo1a-57">
          <mxGeometry relative="1" as="geometry" />
        </mxCell>
        <mxCell id="YalKXjyiTAbiHCEyGo1a-41" value="Condition" style="rhombus;whiteSpace=wrap;html=1;fillColor=#ffffc0;strokeColor=#ff0000;shadow=0;" vertex="1" parent="YiehGa9-LwkshTnIvYxl-1">
          <mxGeometry x="330" y="360" width="80" height="40" as="geometry" />
        </mxCell>
        <mxCell id="YalKXjyiTAbiHCEyGo1a-55" style="edgeStyle=orthogonalEdgeStyle;rounded=0;orthogonalLoop=1;jettySize=auto;html=1;entryX=0.5;entryY=0;entryDx=0;entryDy=0;" edge="1" parent="YiehGa9-LwkshTnIvYxl-1" source="YalKXjyiTAbiHCEyGo1a-46" target="YalKXjyiTAbiHCEyGo1a-49">
          <mxGeometry relative="1" as="geometry" />
        </mxCell>
        <mxCell id="YalKXjyiTAbiHCEyGo1a-46" value="Đăng nhập hệ thống" style="shape=ext;rounded=1;html=1;whiteSpace=wrap;strokeWidth=3;shadow=0;" vertex="1" parent="YiehGa9-LwkshTnIvYxl-1">
          <mxGeometry x="62" y="340" width="120" height="80" as="geometry" />
        </mxCell>
        <mxCell id="YalKXjyiTAbiHCEyGo1a-48" value="No" style="text;html=1;align=center;verticalAlign=middle;resizable=0;points=[];autosize=1;" vertex="1" parent="YiehGa9-LwkshTnIvYxl-1">
          <mxGeometry x="300" y="360" width="30" height="20" as="geometry" />
        </mxCell>
        <mxCell id="YalKXjyiTAbiHCEyGo1a-53" style="edgeStyle=orthogonalEdgeStyle;rounded=0;orthogonalLoop=1;jettySize=auto;html=1;" edge="1" parent="YiehGa9-LwkshTnIvYxl-1" source="YalKXjyiTAbiHCEyGo1a-49" target="YalKXjyiTAbiHCEyGo1a-57">
          <mxGeometry relative="1" as="geometry">
            <mxPoint x="340" y="490" as="targetPoint" />
          </mxGeometry>
        </mxCell>
        <mxCell id="YalKXjyiTAbiHCEyGo1a-61" style="edgeStyle=orthogonalEdgeStyle;rounded=0;orthogonalLoop=1;jettySize=auto;html=1;entryX=0;entryY=0.5;entryDx=0;entryDy=0;" edge="1" parent="YiehGa9-LwkshTnIvYxl-1" source="YalKXjyiTAbiHCEyGo1a-49" target="YalKXjyiTAbiHCEyGo1a-46">
          <mxGeometry relative="1" as="geometry">
            <Array as="points">
              <mxPoint x="10" y="490" />
              <mxPoint x="10" y="380" />
            </Array>
          </mxGeometry>
        </mxCell>
        <mxCell id="YalKXjyiTAbiHCEyGo1a-49" value="Condition" style="rhombus;whiteSpace=wrap;html=1;fillColor=#ffffc0;strokeColor=#ff0000;shadow=0;" vertex="1" parent="YiehGa9-LwkshTnIvYxl-1">
          <mxGeometry x="82" y="470" width="80" height="40" as="geometry" />
        </mxCell>
        <mxCell id="YalKXjyiTAbiHCEyGo1a-54" value="True" style="text;html=1;align=center;verticalAlign=middle;resizable=0;points=[];autosize=1;" vertex="1" parent="YiehGa9-LwkshTnIvYxl-1">
          <mxGeometry x="162" y="470" width="40" height="20" as="geometry" />
        </mxCell>
        <mxCell id="YalKXjyiTAbiHCEyGo1a-66" style="edgeStyle=orthogonalEdgeStyle;rounded=0;orthogonalLoop=1;jettySize=auto;html=1;" edge="1" parent="YiehGa9-LwkshTnIvYxl-1" source="YalKXjyiTAbiHCEyGo1a-56" target="YalKXjyiTAbiHCEyGo1a-63">
          <mxGeometry relative="1" as="geometry" />
        </mxCell>
        <mxCell id="YalKXjyiTAbiHCEyGo1a-56" value="&amp;nbsp;Kiểm tra đủ thông tin giao hàng chưa?" style="shape=ext;rounded=1;html=1;whiteSpace=wrap;strokeWidth=3;shadow=0;" vertex="1" parent="YiehGa9-LwkshTnIvYxl-1">
          <mxGeometry x="450" y="450" width="120" height="80" as="geometry" />
        </mxCell>
        <mxCell id="YalKXjyiTAbiHCEyGo1a-59" style="edgeStyle=orthogonalEdgeStyle;rounded=0;orthogonalLoop=1;jettySize=auto;html=1;entryX=0;entryY=0.5;entryDx=0;entryDy=0;" edge="1" parent="YiehGa9-LwkshTnIvYxl-1" source="YalKXjyiTAbiHCEyGo1a-57" target="YalKXjyiTAbiHCEyGo1a-56">
          <mxGeometry relative="1" as="geometry" />
        </mxCell>
        <mxCell id="YalKXjyiTAbiHCEyGo1a-57" value="" style="shape=rhombus;html=1;verticalLabelPosition=bottom;verticalAlignment=top;" vertex="1" parent="YiehGa9-LwkshTnIvYxl-1">
          <mxGeometry x="350" y="470" width="40" height="40" as="geometry" />
        </mxCell>
        <mxCell id="YalKXjyiTAbiHCEyGo1a-60" value="Yes" style="text;html=1;align=center;verticalAlign=middle;resizable=0;points=[];autosize=1;" vertex="1" parent="YiehGa9-LwkshTnIvYxl-1">
          <mxGeometry x="370" y="400" width="40" height="20" as="geometry" />
        </mxCell>
        <mxCell id="YalKXjyiTAbiHCEyGo1a-62" value="Fail" style="text;html=1;align=center;verticalAlign=middle;resizable=0;points=[];autosize=1;" vertex="1" parent="YiehGa9-LwkshTnIvYxl-1">
          <mxGeometry x="52" y="470" width="30" height="20" as="geometry" />
        </mxCell>
        <mxCell id="YalKXjyiTAbiHCEyGo1a-67" style="edgeStyle=orthogonalEdgeStyle;rounded=0;orthogonalLoop=1;jettySize=auto;html=1;entryX=1;entryY=0.5;entryDx=0;entryDy=0;" edge="1" parent="YiehGa9-LwkshTnIvYxl-1" source="YalKXjyiTAbiHCEyGo1a-63" target="YalKXjyiTAbiHCEyGo1a-68">
          <mxGeometry relative="1" as="geometry">
            <mxPoint x="200" y="585" as="targetPoint" />
          </mxGeometry>
        </mxCell>
        <mxCell id="YalKXjyiTAbiHCEyGo1a-80" style="edgeStyle=orthogonalEdgeStyle;rounded=0;orthogonalLoop=1;jettySize=auto;html=1;entryX=1;entryY=0.5;entryDx=0;entryDy=0;" edge="1" parent="YiehGa9-LwkshTnIvYxl-1" source="YalKXjyiTAbiHCEyGo1a-63" target="YalKXjyiTAbiHCEyGo1a-79">
          <mxGeometry relative="1" as="geometry">
            <Array as="points">
              <mxPoint x="510" y="750" />
            </Array>
          </mxGeometry>
        </mxCell>
        <mxCell id="YalKXjyiTAbiHCEyGo1a-63" value="Condition" style="rhombus;whiteSpace=wrap;html=1;fillColor=#ffffc0;strokeColor=#ff0000;shadow=0;" vertex="1" parent="YiehGa9-LwkshTnIvYxl-1">
          <mxGeometry x="470" y="565" width="80" height="40" as="geometry" />
        </mxCell>
        <mxCell id="YalKXjyiTAbiHCEyGo1a-70" style="edgeStyle=orthogonalEdgeStyle;rounded=0;orthogonalLoop=1;jettySize=auto;html=1;" edge="1" parent="YiehGa9-LwkshTnIvYxl-1" source="YalKXjyiTAbiHCEyGo1a-68" target="YalKXjyiTAbiHCEyGo1a-71">
          <mxGeometry relative="1" as="geometry">
            <mxPoint x="122" y="660" as="targetPoint" />
          </mxGeometry>
        </mxCell>
        <mxCell id="YalKXjyiTAbiHCEyGo1a-68" value="&amp;nbsp;Nhập thông tin đầy đủ" style="shape=ext;rounded=1;html=1;whiteSpace=wrap;strokeWidth=3;shadow=0;" vertex="1" parent="YiehGa9-LwkshTnIvYxl-1">
          <mxGeometry x="62" y="545" width="120" height="80" as="geometry" />
        </mxCell>
        <mxCell id="YalKXjyiTAbiHCEyGo1a-69" value="No" style="text;html=1;align=center;verticalAlign=middle;resizable=0;points=[];autosize=1;" vertex="1" parent="YiehGa9-LwkshTnIvYxl-1">
          <mxGeometry x="440" y="565" width="30" height="20" as="geometry" />
        </mxCell>
        <mxCell id="YalKXjyiTAbiHCEyGo1a-72" style="edgeStyle=orthogonalEdgeStyle;rounded=0;orthogonalLoop=1;jettySize=auto;html=1;entryX=0;entryY=0.5;entryDx=0;entryDy=0;" edge="1" parent="YiehGa9-LwkshTnIvYxl-1" source="YalKXjyiTAbiHCEyGo1a-71" target="YalKXjyiTAbiHCEyGo1a-68">
          <mxGeometry relative="1" as="geometry">
            <Array as="points">
              <mxPoint x="10" y="680" />
              <mxPoint x="10" y="585" />
            </Array>
          </mxGeometry>
        </mxCell>
        <mxCell id="YalKXjyiTAbiHCEyGo1a-75" style="edgeStyle=orthogonalEdgeStyle;rounded=0;orthogonalLoop=1;jettySize=auto;html=1;entryX=0.5;entryY=0;entryDx=0;entryDy=0;" edge="1" parent="YiehGa9-LwkshTnIvYxl-1" source="YalKXjyiTAbiHCEyGo1a-71" target="YalKXjyiTAbiHCEyGo1a-79">
          <mxGeometry relative="1" as="geometry">
            <mxPoint x="122" y="750" as="targetPoint" />
          </mxGeometry>
        </mxCell>
        <mxCell id="YalKXjyiTAbiHCEyGo1a-71" value="Condition" style="rhombus;whiteSpace=wrap;html=1;fillColor=#ffffc0;strokeColor=#ff0000;" vertex="1" parent="YiehGa9-LwkshTnIvYxl-1">
          <mxGeometry x="82" y="660" width="80" height="40" as="geometry" />
        </mxCell>
        <mxCell id="YalKXjyiTAbiHCEyGo1a-73" value="Fail" style="text;html=1;align=center;verticalAlign=middle;resizable=0;points=[];autosize=1;" vertex="1" parent="YiehGa9-LwkshTnIvYxl-1">
          <mxGeometry x="52" y="657" width="30" height="20" as="geometry" />
        </mxCell>
        <mxCell id="YalKXjyiTAbiHCEyGo1a-76" value="True" style="text;html=1;align=center;verticalAlign=middle;resizable=0;points=[];autosize=1;" vertex="1" parent="YiehGa9-LwkshTnIvYxl-1">
          <mxGeometry x="122" y="700" width="40" height="20" as="geometry" />
        </mxCell>
        <mxCell id="YalKXjyiTAbiHCEyGo1a-83" style="edgeStyle=orthogonalEdgeStyle;rounded=0;orthogonalLoop=1;jettySize=auto;html=1;" edge="1" parent="YiehGa9-LwkshTnIvYxl-1" source="YalKXjyiTAbiHCEyGo1a-77" target="YalKXjyiTAbiHCEyGo1a-84">
          <mxGeometry relative="1" as="geometry">
            <mxPoint x="390" y="850" as="targetPoint" />
          </mxGeometry>
        </mxCell>
        <mxCell id="YalKXjyiTAbiHCEyGo1a-77" value="&amp;nbsp;Xác nhân thông tin giao hàng" style="shape=ext;rounded=1;html=1;whiteSpace=wrap;strokeWidth=3;shadow=0;" vertex="1" parent="YiehGa9-LwkshTnIvYxl-1">
          <mxGeometry x="62" y="810" width="120" height="80" as="geometry" />
        </mxCell>
        <mxCell id="YalKXjyiTAbiHCEyGo1a-82" style="edgeStyle=orthogonalEdgeStyle;rounded=0;orthogonalLoop=1;jettySize=auto;html=1;entryX=0.5;entryY=0;entryDx=0;entryDy=0;" edge="1" parent="YiehGa9-LwkshTnIvYxl-1" source="YalKXjyiTAbiHCEyGo1a-79" target="YalKXjyiTAbiHCEyGo1a-77">
          <mxGeometry relative="1" as="geometry" />
        </mxCell>
        <mxCell id="YalKXjyiTAbiHCEyGo1a-79" value="" style="shape=rhombus;html=1;verticalLabelPosition=top;verticalAlignment=bottom;" vertex="1" parent="YiehGa9-LwkshTnIvYxl-1">
          <mxGeometry x="102" y="730" width="40" height="40" as="geometry" />
        </mxCell>
        <mxCell id="YalKXjyiTAbiHCEyGo1a-81" value="Yes" style="text;html=1;align=center;verticalAlign=middle;resizable=0;points=[];autosize=1;" vertex="1" parent="YiehGa9-LwkshTnIvYxl-1">
          <mxGeometry x="510" y="605" width="40" height="20" as="geometry" />
        </mxCell>
        <mxCell id="YalKXjyiTAbiHCEyGo1a-86" style="edgeStyle=orthogonalEdgeStyle;rounded=0;orthogonalLoop=1;jettySize=auto;html=1;entryX=1;entryY=0.5;entryDx=0;entryDy=0;" edge="1" parent="YiehGa9-LwkshTnIvYxl-1" source="YalKXjyiTAbiHCEyGo1a-84" target="YalKXjyiTAbiHCEyGo1a-85">
          <mxGeometry relative="1" as="geometry">
            <Array as="points">
              <mxPoint x="430" y="980" />
            </Array>
          </mxGeometry>
        </mxCell>
        <mxCell id="YalKXjyiTAbiHCEyGo1a-84" value="&amp;nbsp;Tính tổng chi phí cần thanh toán" style="shape=ext;rounded=1;html=1;whiteSpace=wrap;strokeWidth=3;" vertex="1" parent="YiehGa9-LwkshTnIvYxl-1">
          <mxGeometry x="370" y="810" width="120" height="80" as="geometry" />
        </mxCell>
        <mxCell id="YalKXjyiTAbiHCEyGo1a-95" style="edgeStyle=orthogonalEdgeStyle;rounded=0;orthogonalLoop=1;jettySize=auto;html=1;" edge="1" parent="YiehGa9-LwkshTnIvYxl-1" source="YalKXjyiTAbiHCEyGo1a-85" target="YalKXjyiTAbiHCEyGo1a-96">
          <mxGeometry relative="1" as="geometry">
            <mxPoint x="122" y="1090" as="targetPoint" />
          </mxGeometry>
        </mxCell>
        <mxCell id="YalKXjyiTAbiHCEyGo1a-85" value="Xác nhận thanh toán qua thẻ" style="shape=ext;rounded=1;html=1;whiteSpace=wrap;strokeWidth=3;shadow=0;" vertex="1" parent="YiehGa9-LwkshTnIvYxl-1">
          <mxGeometry x="62" y="940" width="120" height="80" as="geometry" />
        </mxCell>
        <mxCell id="YalKXjyiTAbiHCEyGo1a-97" style="edgeStyle=orthogonalEdgeStyle;rounded=0;orthogonalLoop=1;jettySize=auto;html=1;" edge="1" parent="YiehGa9-LwkshTnIvYxl-1" source="YalKXjyiTAbiHCEyGo1a-96" target="YalKXjyiTAbiHCEyGo1a-98">
          <mxGeometry relative="1" as="geometry">
            <mxPoint x="660" y="1090" as="targetPoint" />
          </mxGeometry>
        </mxCell>
        <mxCell id="YalKXjyiTAbiHCEyGo1a-127" style="edgeStyle=orthogonalEdgeStyle;rounded=0;orthogonalLoop=1;jettySize=auto;html=1;entryX=0.5;entryY=0;entryDx=0;entryDy=0;" edge="1" parent="YiehGa9-LwkshTnIvYxl-1" source="YalKXjyiTAbiHCEyGo1a-96" target="YalKXjyiTAbiHCEyGo1a-116">
          <mxGeometry relative="1" as="geometry" />
        </mxCell>
        <mxCell id="YalKXjyiTAbiHCEyGo1a-96" value="Condition" style="rhombus;whiteSpace=wrap;html=1;fillColor=#ffffc0;strokeColor=#ff0000;" vertex="1" parent="YiehGa9-LwkshTnIvYxl-1">
          <mxGeometry x="82" y="1070" width="80" height="40" as="geometry" />
        </mxCell>
        <mxCell id="YalKXjyiTAbiHCEyGo1a-99" style="edgeStyle=orthogonalEdgeStyle;rounded=0;orthogonalLoop=1;jettySize=auto;html=1;" edge="1" parent="YiehGa9-LwkshTnIvYxl-1" source="YalKXjyiTAbiHCEyGo1a-98" target="YalKXjyiTAbiHCEyGo1a-100">
          <mxGeometry relative="1" as="geometry">
            <mxPoint x="700" y="1220" as="targetPoint" />
          </mxGeometry>
        </mxCell>
        <mxCell id="YalKXjyiTAbiHCEyGo1a-98" value="Kiểm tra có đủ tiền để thanh toán" style="shape=ext;rounded=1;html=1;whiteSpace=wrap;strokeWidth=3;" vertex="1" parent="YiehGa9-LwkshTnIvYxl-1">
          <mxGeometry x="640" y="1050" width="120" height="80" as="geometry" />
        </mxCell>
        <mxCell id="YalKXjyiTAbiHCEyGo1a-114" style="edgeStyle=orthogonalEdgeStyle;rounded=0;orthogonalLoop=1;jettySize=auto;html=1;entryX=1;entryY=0.5;entryDx=0;entryDy=0;" edge="1" parent="YiehGa9-LwkshTnIvYxl-1" source="YalKXjyiTAbiHCEyGo1a-100" target="YalKXjyiTAbiHCEyGo1a-103">
          <mxGeometry relative="1" as="geometry">
            <Array as="points">
              <mxPoint x="700" y="1240" />
            </Array>
          </mxGeometry>
        </mxCell>
        <mxCell id="YalKXjyiTAbiHCEyGo1a-118" style="edgeStyle=orthogonalEdgeStyle;rounded=0;orthogonalLoop=1;jettySize=auto;html=1;entryX=1;entryY=0.5;entryDx=0;entryDy=0;" edge="1" parent="YiehGa9-LwkshTnIvYxl-1" source="YalKXjyiTAbiHCEyGo1a-100" target="YalKXjyiTAbiHCEyGo1a-116">
          <mxGeometry relative="1" as="geometry" />
        </mxCell>
        <mxCell id="YalKXjyiTAbiHCEyGo1a-100" value="Condition" style="rhombus;whiteSpace=wrap;html=1;fillColor=#ffffc0;strokeColor=#ff0000;" vertex="1" parent="YiehGa9-LwkshTnIvYxl-1">
          <mxGeometry x="660" y="1150" width="80" height="40" as="geometry" />
        </mxCell>
        <mxCell id="YalKXjyiTAbiHCEyGo1a-101" value="Yes" style="text;html=1;align=center;verticalAlign=middle;resizable=0;points=[];autosize=1;" vertex="1" parent="YiehGa9-LwkshTnIvYxl-1">
          <mxGeometry x="150" y="1070" width="40" height="20" as="geometry" />
        </mxCell>
        <mxCell id="YalKXjyiTAbiHCEyGo1a-104" style="edgeStyle=orthogonalEdgeStyle;rounded=0;orthogonalLoop=1;jettySize=auto;html=1;" edge="1" parent="YiehGa9-LwkshTnIvYxl-1" source="YalKXjyiTAbiHCEyGo1a-103" target="YalKXjyiTAbiHCEyGo1a-105">
          <mxGeometry relative="1" as="geometry">
            <mxPoint x="122" y="1310" as="targetPoint" />
            <Array as="points">
              <mxPoint x="122" y="1320" />
            </Array>
          </mxGeometry>
        </mxCell>
        <mxCell id="YalKXjyiTAbiHCEyGo1a-103" value="Xác nhận số tiền cần thanh toán" style="shape=ext;rounded=1;html=1;whiteSpace=wrap;strokeWidth=3;" vertex="1" parent="YiehGa9-LwkshTnIvYxl-1">
          <mxGeometry x="62" y="1200" width="120" height="80" as="geometry" />
        </mxCell>
        <mxCell id="YalKXjyiTAbiHCEyGo1a-107" value="" style="edgeStyle=orthogonalEdgeStyle;rounded=0;orthogonalLoop=1;jettySize=auto;html=1;" edge="1" parent="YiehGa9-LwkshTnIvYxl-1" source="YalKXjyiTAbiHCEyGo1a-105" target="YalKXjyiTAbiHCEyGo1a-106">
          <mxGeometry relative="1" as="geometry">
            <Array as="points">
              <mxPoint x="700" y="1420" />
            </Array>
          </mxGeometry>
        </mxCell>
        <mxCell id="YalKXjyiTAbiHCEyGo1a-105" value="&amp;nbsp;Trừ tiền trong thẻ" style="shape=ext;rounded=1;html=1;whiteSpace=wrap;strokeWidth=3;" vertex="1" parent="YiehGa9-LwkshTnIvYxl-1">
          <mxGeometry x="640" y="1280" width="120" height="80" as="geometry" />
        </mxCell>
        <mxCell id="YalKXjyiTAbiHCEyGo1a-108" style="edgeStyle=orthogonalEdgeStyle;rounded=0;orthogonalLoop=1;jettySize=auto;html=1;" edge="1" parent="YiehGa9-LwkshTnIvYxl-1" source="YalKXjyiTAbiHCEyGo1a-106" target="YalKXjyiTAbiHCEyGo1a-109">
          <mxGeometry relative="1" as="geometry">
            <mxPoint x="170" y="1420" as="targetPoint" />
          </mxGeometry>
        </mxCell>
        <mxCell id="YalKXjyiTAbiHCEyGo1a-106" value="Thanh toán thành công, lưu tuông tin vào hệ thống" style="shape=ext;rounded=1;html=1;whiteSpace=wrap;strokeWidth=3;" vertex="1" parent="YiehGa9-LwkshTnIvYxl-1">
          <mxGeometry x="370" y="1380" width="120" height="80" as="geometry" />
        </mxCell>
        <mxCell id="YalKXjyiTAbiHCEyGo1a-126" style="edgeStyle=orthogonalEdgeStyle;rounded=0;orthogonalLoop=1;jettySize=auto;html=1;entryX=1;entryY=0.5;entryDx=0;entryDy=0;" edge="1" parent="YiehGa9-LwkshTnIvYxl-1" source="YalKXjyiTAbiHCEyGo1a-109" target="YalKXjyiTAbiHCEyGo1a-121">
          <mxGeometry relative="1" as="geometry">
            <Array as="points">
              <mxPoint x="122" y="1530" />
              <mxPoint x="220" y="1530" />
              <mxPoint x="220" y="1810" />
            </Array>
          </mxGeometry>
        </mxCell>
        <mxCell id="YalKXjyiTAbiHCEyGo1a-109" value="Hiển thị thông tin đặt đơn thành công cho khách hàng" style="shape=ext;rounded=1;html=1;whiteSpace=wrap;strokeWidth=3;" vertex="1" parent="YiehGa9-LwkshTnIvYxl-1">
          <mxGeometry x="62" y="1380" width="120" height="80" as="geometry" />
        </mxCell>
        <mxCell id="YalKXjyiTAbiHCEyGo1a-120" style="edgeStyle=orthogonalEdgeStyle;rounded=0;orthogonalLoop=1;jettySize=auto;html=1;" edge="1" parent="YiehGa9-LwkshTnIvYxl-1" source="YalKXjyiTAbiHCEyGo1a-112" target="YalKXjyiTAbiHCEyGo1a-121">
          <mxGeometry relative="1" as="geometry">
            <mxPoint x="122" y="1810" as="targetPoint" />
          </mxGeometry>
        </mxCell>
        <mxCell id="YalKXjyiTAbiHCEyGo1a-112" value="&amp;nbsp;Thanh toán thất bại" style="shape=ext;rounded=1;html=1;whiteSpace=wrap;strokeWidth=3;shadow=0;" vertex="1" parent="YiehGa9-LwkshTnIvYxl-1">
          <mxGeometry x="62" y="1640" width="120" height="80" as="geometry" />
        </mxCell>
        <mxCell id="YalKXjyiTAbiHCEyGo1a-119" style="edgeStyle=orthogonalEdgeStyle;rounded=0;orthogonalLoop=1;jettySize=auto;html=1;entryX=0;entryY=0.5;entryDx=0;entryDy=0;" edge="1" parent="YiehGa9-LwkshTnIvYxl-1" source="YalKXjyiTAbiHCEyGo1a-116" target="YalKXjyiTAbiHCEyGo1a-112">
          <mxGeometry relative="1" as="geometry">
            <Array as="points">
              <mxPoint x="32" y="1680" />
            </Array>
          </mxGeometry>
        </mxCell>
        <mxCell id="YalKXjyiTAbiHCEyGo1a-116" value="" style="shape=rhombus;html=1;verticalLabelPosition=bottom;verticalAlignment=top;" vertex="1" parent="YiehGa9-LwkshTnIvYxl-1">
          <mxGeometry x="12" y="1150" width="40" height="40" as="geometry" />
        </mxCell>
        <mxCell id="YalKXjyiTAbiHCEyGo1a-122" style="edgeStyle=orthogonalEdgeStyle;rounded=0;orthogonalLoop=1;jettySize=auto;html=1;" edge="1" parent="YiehGa9-LwkshTnIvYxl-1" source="YalKXjyiTAbiHCEyGo1a-121" target="YalKXjyiTAbiHCEyGo1a-125">
          <mxGeometry relative="1" as="geometry">
            <mxPoint x="122" y="1870" as="targetPoint" />
          </mxGeometry>
        </mxCell>
        <mxCell id="YalKXjyiTAbiHCEyGo1a-121" value="" style="shape=rhombus;html=1;verticalLabelPosition=bottom;verticalAlignment=top;" vertex="1" parent="YiehGa9-LwkshTnIvYxl-1">
          <mxGeometry x="102" y="1790" width="40" height="40" as="geometry" />
        </mxCell>
        <mxCell id="YalKXjyiTAbiHCEyGo1a-125" value="" style="ellipse;html=1;shape=endState;fillColor=#000000;strokeColor=#ff0000;" vertex="1" parent="YiehGa9-LwkshTnIvYxl-1">
          <mxGeometry x="107" y="1855" width="30" height="30" as="geometry" />
        </mxCell>
        <mxCell id="YalKXjyiTAbiHCEyGo1a-128" value="No" style="text;html=1;align=center;verticalAlign=middle;resizable=0;points=[];autosize=1;" vertex="1" parent="YiehGa9-LwkshTnIvYxl-1">
          <mxGeometry x="52" y="1070" width="30" height="20" as="geometry" />
        </mxCell>
        <mxCell id="YalKXjyiTAbiHCEyGo1a-129" value="True" style="text;html=1;align=center;verticalAlign=middle;resizable=0;points=[];autosize=1;" vertex="1" parent="YiehGa9-LwkshTnIvYxl-1">
          <mxGeometry x="700" y="1190" width="40" height="20" as="geometry" />
        </mxCell>
        <mxCell id="YalKXjyiTAbiHCEyGo1a-130" value="Fail" style="text;html=1;align=center;verticalAlign=middle;resizable=0;points=[];autosize=1;" vertex="1" parent="YiehGa9-LwkshTnIvYxl-1">
          <mxGeometry x="630" y="1149" width="30" height="20" as="geometry" />
        </mxCell>
      </root>
    </mxGraphModel>
  </diagram>
  <diagram id="hF3XkQwlZSzLgBc60hVy" name="Delete-Payment">
    <mxGraphModel dx="946" dy="575" grid="1" gridSize="10" guides="1" tooltips="1" connect="1" arrows="1" fold="1" page="1" pageScale="1" pageWidth="827" pageHeight="1169" math="0" shadow="0">
      <root>
        <mxCell id="n8gZYx4STEoGfslWMU72-0" />
        <mxCell id="n8gZYx4STEoGfslWMU72-1" parent="n8gZYx4STEoGfslWMU72-0" />
        <mxCell id="OVreLJDfbN2Lm7DDd5s--0" value="&lt;span style=&quot;font-size: 24px&quot;&gt;&amp;nbsp;Hủy đơn hàng&lt;/span&gt;" style="text;html=1;align=center;verticalAlign=middle;resizable=0;points=[];autosize=1;" vertex="1" parent="n8gZYx4STEoGfslWMU72-1">
          <mxGeometry x="329" y="20" width="170" height="20" as="geometry" />
        </mxCell>
        <mxCell id="OVreLJDfbN2Lm7DDd5s--1" value="Buyer" style="text;html=1;align=center;verticalAlign=middle;resizable=0;points=[];autosize=1;" vertex="1" parent="n8gZYx4STEoGfslWMU72-1">
          <mxGeometry x="97" y="56" width="50" height="20" as="geometry" />
        </mxCell>
        <mxCell id="OVreLJDfbN2Lm7DDd5s--2" value="System" style="text;html=1;align=center;verticalAlign=middle;resizable=0;points=[];autosize=1;" vertex="1" parent="n8gZYx4STEoGfslWMU72-1">
          <mxGeometry x="400" y="56" width="60" height="20" as="geometry" />
        </mxCell>
        <mxCell id="OVreLJDfbN2Lm7DDd5s--3" value="Bank" style="text;html=1;align=center;verticalAlign=middle;resizable=0;points=[];autosize=1;" vertex="1" parent="n8gZYx4STEoGfslWMU72-1">
          <mxGeometry x="690" y="56" width="40" height="20" as="geometry" />
        </mxCell>
        <mxCell id="OVreLJDfbN2Lm7DDd5s--4" value="" style="endArrow=none;html=1;" edge="1" parent="n8gZYx4STEoGfslWMU72-1">
          <mxGeometry width="50" height="50" relative="1" as="geometry">
            <mxPoint x="270" y="1620" as="sourcePoint" />
            <mxPoint x="270" y="55.999999999999886" as="targetPoint" />
          </mxGeometry>
        </mxCell>
        <mxCell id="OVreLJDfbN2Lm7DDd5s--5" value="" style="endArrow=none;html=1;" edge="1" parent="n8gZYx4STEoGfslWMU72-1">
          <mxGeometry width="50" height="50" relative="1" as="geometry">
            <mxPoint x="600" y="1610" as="sourcePoint" />
            <mxPoint x="600" y="55.999999999999886" as="targetPoint" />
          </mxGeometry>
        </mxCell>
        <mxCell id="OVreLJDfbN2Lm7DDd5s--6" value="" style="ellipse;html=1;shape=startState;fillColor=#000000;strokeColor=#ff0000;shadow=0;" vertex="1" parent="n8gZYx4STEoGfslWMU72-1">
          <mxGeometry x="107" y="100" width="30" height="30" as="geometry" />
        </mxCell>
        <mxCell id="OVreLJDfbN2Lm7DDd5s--7" value="" style="edgeStyle=orthogonalEdgeStyle;html=1;verticalAlign=bottom;endArrow=open;endSize=8;strokeColor=#ff0000;" edge="1" parent="n8gZYx4STEoGfslWMU72-1" source="OVreLJDfbN2Lm7DDd5s--6">
          <mxGeometry relative="1" as="geometry">
            <mxPoint x="122" y="190" as="targetPoint" />
          </mxGeometry>
        </mxCell>
        <mxCell id="F-aneFAahZEEW1tXFp73-0" style="edgeStyle=orthogonalEdgeStyle;rounded=0;orthogonalLoop=1;jettySize=auto;html=1;" edge="1" parent="n8gZYx4STEoGfslWMU72-1" source="OVreLJDfbN2Lm7DDd5s--9" target="F-aneFAahZEEW1tXFp73-2">
          <mxGeometry relative="1" as="geometry">
            <mxPoint x="122" y="310" as="targetPoint" />
          </mxGeometry>
        </mxCell>
        <mxCell id="OVreLJDfbN2Lm7DDd5s--9" value="&amp;nbsp;Lựa chọn đơn hàng muốn hủy" style="shape=ext;rounded=1;html=1;whiteSpace=wrap;strokeWidth=3;shadow=0;" vertex="1" parent="n8gZYx4STEoGfslWMU72-1">
          <mxGeometry x="62" y="190" width="120" height="80" as="geometry" />
        </mxCell>
        <mxCell id="OVreLJDfbN2Lm7DDd5s--19" style="edgeStyle=orthogonalEdgeStyle;rounded=0;orthogonalLoop=1;jettySize=auto;html=1;entryX=0;entryY=0.5;entryDx=0;entryDy=0;" edge="1" parent="n8gZYx4STEoGfslWMU72-1" source="OVreLJDfbN2Lm7DDd5s--20">
          <mxGeometry relative="1" as="geometry">
            <Array as="points">
              <mxPoint x="10" y="490" />
              <mxPoint x="10" y="380" />
            </Array>
            <mxPoint x="62" y="380" as="targetPoint" />
          </mxGeometry>
        </mxCell>
        <mxCell id="F-aneFAahZEEW1tXFp73-3" style="edgeStyle=orthogonalEdgeStyle;rounded=0;orthogonalLoop=1;jettySize=auto;html=1;" edge="1" parent="n8gZYx4STEoGfslWMU72-1" source="F-aneFAahZEEW1tXFp73-2" target="F-aneFAahZEEW1tXFp73-4">
          <mxGeometry relative="1" as="geometry">
            <mxPoint x="122" y="450" as="targetPoint" />
          </mxGeometry>
        </mxCell>
        <mxCell id="F-aneFAahZEEW1tXFp73-2" value="&amp;nbsp;Xác nhận hủy đơn?" style="shape=ext;rounded=1;html=1;whiteSpace=wrap;strokeWidth=3;" vertex="1" parent="n8gZYx4STEoGfslWMU72-1">
          <mxGeometry x="62" y="330" width="120" height="80" as="geometry" />
        </mxCell>
        <mxCell id="F-aneFAahZEEW1tXFp73-5" style="edgeStyle=orthogonalEdgeStyle;rounded=0;orthogonalLoop=1;jettySize=auto;html=1;" edge="1" parent="n8gZYx4STEoGfslWMU72-1" source="F-aneFAahZEEW1tXFp73-4" target="F-aneFAahZEEW1tXFp73-6">
          <mxGeometry relative="1" as="geometry">
            <mxPoint x="390" y="490" as="targetPoint" />
          </mxGeometry>
        </mxCell>
        <mxCell id="F-aneFAahZEEW1tXFp73-27" style="edgeStyle=orthogonalEdgeStyle;rounded=0;orthogonalLoop=1;jettySize=auto;html=1;entryX=0;entryY=0.5;entryDx=0;entryDy=0;" edge="1" parent="n8gZYx4STEoGfslWMU72-1" source="F-aneFAahZEEW1tXFp73-4" target="F-aneFAahZEEW1tXFp73-24">
          <mxGeometry relative="1" as="geometry">
            <mxPoint x="20" y="820" as="targetPoint" />
            <Array as="points">
              <mxPoint x="10" y="490" />
              <mxPoint x="10" y="1000" />
            </Array>
          </mxGeometry>
        </mxCell>
        <mxCell id="F-aneFAahZEEW1tXFp73-4" value="Condition" style="rhombus;whiteSpace=wrap;html=1;fillColor=#ffffc0;strokeColor=#ff0000;" vertex="1" parent="n8gZYx4STEoGfslWMU72-1">
          <mxGeometry x="82" y="470" width="80" height="40" as="geometry" />
        </mxCell>
        <mxCell id="F-aneFAahZEEW1tXFp73-13" style="edgeStyle=orthogonalEdgeStyle;rounded=0;orthogonalLoop=1;jettySize=auto;html=1;entryX=0.505;entryY=0.4;entryDx=0;entryDy=0;entryPerimeter=0;" edge="1" parent="n8gZYx4STEoGfslWMU72-1" source="F-aneFAahZEEW1tXFp73-6" target="F-aneFAahZEEW1tXFp73-11">
          <mxGeometry relative="1" as="geometry" />
        </mxCell>
        <mxCell id="F-aneFAahZEEW1tXFp73-6" value="Thực hiện hủy đơn" style="shape=ext;rounded=1;html=1;whiteSpace=wrap;strokeWidth=3;" vertex="1" parent="n8gZYx4STEoGfslWMU72-1">
          <mxGeometry x="370" y="450" width="120" height="80" as="geometry" />
        </mxCell>
        <mxCell id="F-aneFAahZEEW1tXFp73-20" style="edgeStyle=orthogonalEdgeStyle;rounded=0;orthogonalLoop=1;jettySize=auto;html=1;entryX=0.75;entryY=0.5;entryDx=0;entryDy=0;entryPerimeter=0;" edge="1" parent="n8gZYx4STEoGfslWMU72-1" source="F-aneFAahZEEW1tXFp73-9" target="F-aneFAahZEEW1tXFp73-17">
          <mxGeometry relative="1" as="geometry">
            <Array as="points">
              <mxPoint x="710" y="780" />
              <mxPoint x="480" y="780" />
            </Array>
          </mxGeometry>
        </mxCell>
        <mxCell id="F-aneFAahZEEW1tXFp73-9" value="Hoàn tiền cho khác hàng" style="shape=ext;rounded=1;html=1;whiteSpace=wrap;strokeWidth=3;" vertex="1" parent="n8gZYx4STEoGfslWMU72-1">
          <mxGeometry x="650" y="670" width="120" height="80" as="geometry" />
        </mxCell>
        <mxCell id="F-aneFAahZEEW1tXFp73-10" value="Yes" style="text;html=1;align=center;verticalAlign=middle;resizable=0;points=[];autosize=1;" vertex="1" parent="n8gZYx4STEoGfslWMU72-1">
          <mxGeometry x="162" y="470" width="40" height="20" as="geometry" />
        </mxCell>
        <mxCell id="F-aneFAahZEEW1tXFp73-14" style="edgeStyle=orthogonalEdgeStyle;rounded=0;orthogonalLoop=1;jettySize=auto;html=1;exitX=0.75;exitY=0.5;exitDx=0;exitDy=0;exitPerimeter=0;entryX=0.5;entryY=0;entryDx=0;entryDy=0;" edge="1" parent="n8gZYx4STEoGfslWMU72-1" source="F-aneFAahZEEW1tXFp73-11" target="F-aneFAahZEEW1tXFp73-9">
          <mxGeometry relative="1" as="geometry">
            <Array as="points">
              <mxPoint x="479" y="630" />
              <mxPoint x="710" y="630" />
            </Array>
          </mxGeometry>
        </mxCell>
        <mxCell id="F-aneFAahZEEW1tXFp73-16" style="edgeStyle=orthogonalEdgeStyle;rounded=0;orthogonalLoop=1;jettySize=auto;html=1;exitX=0.25;exitY=0.5;exitDx=0;exitDy=0;exitPerimeter=0;" edge="1" parent="n8gZYx4STEoGfslWMU72-1" source="F-aneFAahZEEW1tXFp73-11" target="F-aneFAahZEEW1tXFp73-15">
          <mxGeometry relative="1" as="geometry">
            <Array as="points">
              <mxPoint x="380" y="590" />
            </Array>
          </mxGeometry>
        </mxCell>
        <mxCell id="F-aneFAahZEEW1tXFp73-11" value="" style="shape=line;html=1;strokeWidth=6;strokeColor=#ff0000;shadow=0;" vertex="1" parent="n8gZYx4STEoGfslWMU72-1">
          <mxGeometry x="329" y="585" width="200" height="10" as="geometry" />
        </mxCell>
        <mxCell id="F-aneFAahZEEW1tXFp73-19" style="edgeStyle=orthogonalEdgeStyle;rounded=0;orthogonalLoop=1;jettySize=auto;html=1;entryX=0.25;entryY=0.5;entryDx=0;entryDy=0;entryPerimeter=0;" edge="1" parent="n8gZYx4STEoGfslWMU72-1" source="F-aneFAahZEEW1tXFp73-15" target="F-aneFAahZEEW1tXFp73-17">
          <mxGeometry relative="1" as="geometry" />
        </mxCell>
        <mxCell id="F-aneFAahZEEW1tXFp73-15" value="Cập nhật lại số lượng trong hệ thống" style="shape=ext;rounded=1;html=1;whiteSpace=wrap;strokeWidth=3;shadow=0;" vertex="1" parent="n8gZYx4STEoGfslWMU72-1">
          <mxGeometry x="320" y="670" width="120" height="80" as="geometry" />
        </mxCell>
        <mxCell id="F-aneFAahZEEW1tXFp73-30" style="edgeStyle=orthogonalEdgeStyle;rounded=0;orthogonalLoop=1;jettySize=auto;html=1;entryX=0.5;entryY=0;entryDx=0;entryDy=0;" edge="1" parent="n8gZYx4STEoGfslWMU72-1" source="F-aneFAahZEEW1tXFp73-17" target="F-aneFAahZEEW1tXFp73-28">
          <mxGeometry relative="1" as="geometry" />
        </mxCell>
        <mxCell id="F-aneFAahZEEW1tXFp73-17" value="" style="shape=line;html=1;strokeWidth=6;strokeColor=#ff0000;shadow=0;" vertex="1" parent="n8gZYx4STEoGfslWMU72-1">
          <mxGeometry x="330" y="810" width="200" height="10" as="geometry" />
        </mxCell>
        <mxCell id="F-aneFAahZEEW1tXFp73-23" style="edgeStyle=orthogonalEdgeStyle;rounded=0;orthogonalLoop=1;jettySize=auto;html=1;" edge="1" parent="n8gZYx4STEoGfslWMU72-1" source="F-aneFAahZEEW1tXFp73-21" target="F-aneFAahZEEW1tXFp73-24">
          <mxGeometry relative="1" as="geometry">
            <mxPoint x="122" y="1000" as="targetPoint" />
          </mxGeometry>
        </mxCell>
        <mxCell id="F-aneFAahZEEW1tXFp73-21" value="&amp;nbsp;Thông báo hủy đơn thành công" style="shape=ext;rounded=1;html=1;whiteSpace=wrap;strokeWidth=3;shadow=0;" vertex="1" parent="n8gZYx4STEoGfslWMU72-1">
          <mxGeometry x="62" y="870" width="120" height="80" as="geometry" />
        </mxCell>
        <mxCell id="F-aneFAahZEEW1tXFp73-25" style="edgeStyle=orthogonalEdgeStyle;rounded=0;orthogonalLoop=1;jettySize=auto;html=1;" edge="1" parent="n8gZYx4STEoGfslWMU72-1" source="F-aneFAahZEEW1tXFp73-24" target="F-aneFAahZEEW1tXFp73-26">
          <mxGeometry relative="1" as="geometry">
            <mxPoint x="122" y="1090" as="targetPoint" />
          </mxGeometry>
        </mxCell>
        <mxCell id="F-aneFAahZEEW1tXFp73-24" value="" style="shape=rhombus;html=1;verticalLabelPosition=bottom;verticalAlignment=top;" vertex="1" parent="n8gZYx4STEoGfslWMU72-1">
          <mxGeometry x="102" y="980" width="40" height="40" as="geometry" />
        </mxCell>
        <mxCell id="F-aneFAahZEEW1tXFp73-26" value="" style="ellipse;html=1;shape=endState;fillColor=#000000;strokeColor=#ff0000;" vertex="1" parent="n8gZYx4STEoGfslWMU72-1">
          <mxGeometry x="107" y="1075" width="30" height="30" as="geometry" />
        </mxCell>
        <mxCell id="F-aneFAahZEEW1tXFp73-31" style="edgeStyle=orthogonalEdgeStyle;rounded=0;orthogonalLoop=1;jettySize=auto;html=1;" edge="1" parent="n8gZYx4STEoGfslWMU72-1" source="F-aneFAahZEEW1tXFp73-28" target="F-aneFAahZEEW1tXFp73-21">
          <mxGeometry relative="1" as="geometry" />
        </mxCell>
        <mxCell id="F-aneFAahZEEW1tXFp73-28" value="Lưu thông tin vào hệ thống" style="shape=ext;rounded=1;html=1;whiteSpace=wrap;strokeWidth=3;shadow=0;" vertex="1" parent="n8gZYx4STEoGfslWMU72-1">
          <mxGeometry x="370" y="870" width="120" height="80" as="geometry" />
        </mxCell>
      </root>
    </mxGraphModel>
  </diagram>
  <diagram id="BhdvpD9EX2GSILo-v-1W" name="View-Media">
    <mxGraphModel dx="946" dy="575" grid="1" gridSize="10" guides="1" tooltips="1" connect="1" arrows="1" fold="1" page="1" pageScale="1" pageWidth="827" pageHeight="1169" math="0" shadow="0">
      <root>
        <mxCell id="YJ0PyMhYkwxOtCHctrww-0" />
        <mxCell id="YJ0PyMhYkwxOtCHctrww-1" parent="YJ0PyMhYkwxOtCHctrww-0" />
        <mxCell id="YJ0PyMhYkwxOtCHctrww-2" value="&lt;span style=&quot;font-size: 24px&quot;&gt;&amp;nbsp;Xem nội dung Media&lt;/span&gt;" style="text;html=1;align=center;verticalAlign=middle;resizable=0;points=[];autosize=1;" vertex="1" parent="YJ0PyMhYkwxOtCHctrww-1">
          <mxGeometry x="294" y="20" width="240" height="20" as="geometry" />
        </mxCell>
        <mxCell id="YJ0PyMhYkwxOtCHctrww-3" value="Buyer" style="text;html=1;align=center;verticalAlign=middle;resizable=0;points=[];autosize=1;" vertex="1" parent="YJ0PyMhYkwxOtCHctrww-1">
          <mxGeometry x="150" y="60" width="50" height="20" as="geometry" />
        </mxCell>
        <mxCell id="YJ0PyMhYkwxOtCHctrww-4" value="System" style="text;html=1;align=center;verticalAlign=middle;resizable=0;points=[];autosize=1;" vertex="1" parent="YJ0PyMhYkwxOtCHctrww-1">
          <mxGeometry x="600" y="60" width="60" height="20" as="geometry" />
        </mxCell>
        <mxCell id="YJ0PyMhYkwxOtCHctrww-5" value="" style="endArrow=none;html=1;" edge="1" parent="YJ0PyMhYkwxOtCHctrww-1">
          <mxGeometry width="50" height="50" relative="1" as="geometry">
            <mxPoint x="420" y="940" as="sourcePoint" />
            <mxPoint x="420" y="60" as="targetPoint" />
          </mxGeometry>
        </mxCell>
        <mxCell id="YJ0PyMhYkwxOtCHctrww-6" value="" style="ellipse;html=1;shape=startState;fillColor=#000000;strokeColor=#ff0000;shadow=0;" vertex="1" parent="YJ0PyMhYkwxOtCHctrww-1">
          <mxGeometry x="160" y="100" width="30" height="30" as="geometry" />
        </mxCell>
        <mxCell id="YJ0PyMhYkwxOtCHctrww-7" value="" style="edgeStyle=orthogonalEdgeStyle;html=1;verticalAlign=bottom;endArrow=open;endSize=8;strokeColor=#ff0000;" edge="1" source="YJ0PyMhYkwxOtCHctrww-6" parent="YJ0PyMhYkwxOtCHctrww-1">
          <mxGeometry relative="1" as="geometry">
            <mxPoint x="175" y="190" as="targetPoint" />
          </mxGeometry>
        </mxCell>
        <mxCell id="YJ0PyMhYkwxOtCHctrww-9" style="edgeStyle=orthogonalEdgeStyle;rounded=0;orthogonalLoop=1;jettySize=auto;html=1;" edge="1" parent="YJ0PyMhYkwxOtCHctrww-1" source="YJ0PyMhYkwxOtCHctrww-8" target="YJ0PyMhYkwxOtCHctrww-10">
          <mxGeometry relative="1" as="geometry">
            <mxPoint x="590" y="230" as="targetPoint" />
          </mxGeometry>
        </mxCell>
        <mxCell id="YJ0PyMhYkwxOtCHctrww-8" value="&amp;nbsp;Chọn Media" style="shape=ext;rounded=1;html=1;whiteSpace=wrap;strokeWidth=3;shadow=0;" vertex="1" parent="YJ0PyMhYkwxOtCHctrww-1">
          <mxGeometry x="115" y="190" width="120" height="80" as="geometry" />
        </mxCell>
        <mxCell id="YJ0PyMhYkwxOtCHctrww-11" style="edgeStyle=orthogonalEdgeStyle;rounded=0;orthogonalLoop=1;jettySize=auto;html=1;" edge="1" parent="YJ0PyMhYkwxOtCHctrww-1" source="YJ0PyMhYkwxOtCHctrww-10" target="YJ0PyMhYkwxOtCHctrww-12">
          <mxGeometry relative="1" as="geometry">
            <mxPoint x="630" y="330" as="targetPoint" />
          </mxGeometry>
        </mxCell>
        <mxCell id="YJ0PyMhYkwxOtCHctrww-10" value="Kiểm tra Media đã mua hay chưa?" style="shape=ext;rounded=1;html=1;whiteSpace=wrap;strokeWidth=3;" vertex="1" parent="YJ0PyMhYkwxOtCHctrww-1">
          <mxGeometry x="570" y="190" width="120" height="80" as="geometry" />
        </mxCell>
        <mxCell id="YJ0PyMhYkwxOtCHctrww-17" style="edgeStyle=orthogonalEdgeStyle;rounded=0;orthogonalLoop=1;jettySize=auto;html=1;entryX=1;entryY=0.588;entryDx=0;entryDy=0;entryPerimeter=0;" edge="1" parent="YJ0PyMhYkwxOtCHctrww-1" source="YJ0PyMhYkwxOtCHctrww-12" target="YJ0PyMhYkwxOtCHctrww-15">
          <mxGeometry relative="1" as="geometry">
            <Array as="points">
              <mxPoint x="630" y="427" />
            </Array>
          </mxGeometry>
        </mxCell>
        <mxCell id="YJ0PyMhYkwxOtCHctrww-19" style="edgeStyle=orthogonalEdgeStyle;rounded=0;orthogonalLoop=1;jettySize=auto;html=1;" edge="1" parent="YJ0PyMhYkwxOtCHctrww-1" source="YJ0PyMhYkwxOtCHctrww-12" target="YJ0PyMhYkwxOtCHctrww-20">
          <mxGeometry relative="1" as="geometry">
            <mxPoint x="70" y="340" as="targetPoint" />
          </mxGeometry>
        </mxCell>
        <mxCell id="YJ0PyMhYkwxOtCHctrww-12" value="Condition" style="rhombus;whiteSpace=wrap;html=1;fillColor=#ffffc0;strokeColor=#ff0000;" vertex="1" parent="YJ0PyMhYkwxOtCHctrww-1">
          <mxGeometry x="590" y="320" width="80" height="40" as="geometry" />
        </mxCell>
        <mxCell id="YJ0PyMhYkwxOtCHctrww-14" value="No" style="text;html=1;align=center;verticalAlign=middle;resizable=0;points=[];autosize=1;" vertex="1" parent="YJ0PyMhYkwxOtCHctrww-1">
          <mxGeometry x="560" y="310" width="30" height="20" as="geometry" />
        </mxCell>
        <mxCell id="YJ0PyMhYkwxOtCHctrww-22" style="edgeStyle=orthogonalEdgeStyle;rounded=0;orthogonalLoop=1;jettySize=auto;html=1;" edge="1" parent="YJ0PyMhYkwxOtCHctrww-1" source="YJ0PyMhYkwxOtCHctrww-15" target="YJ0PyMhYkwxOtCHctrww-23">
          <mxGeometry relative="1" as="geometry">
            <mxPoint x="175" y="560" as="targetPoint" />
          </mxGeometry>
        </mxCell>
        <mxCell id="YJ0PyMhYkwxOtCHctrww-15" value="&amp;nbsp;Hiển thị Media" style="shape=ext;rounded=1;html=1;whiteSpace=wrap;strokeWidth=3;shadow=0;" vertex="1" parent="YJ0PyMhYkwxOtCHctrww-1">
          <mxGeometry x="115" y="380" width="120" height="80" as="geometry" />
        </mxCell>
        <mxCell id="YJ0PyMhYkwxOtCHctrww-18" value="Yes" style="text;html=1;align=center;verticalAlign=middle;resizable=0;points=[];autosize=1;" vertex="1" parent="YJ0PyMhYkwxOtCHctrww-1">
          <mxGeometry x="630" y="360" width="40" height="20" as="geometry" />
        </mxCell>
        <mxCell id="YJ0PyMhYkwxOtCHctrww-21" style="edgeStyle=orthogonalEdgeStyle;rounded=0;orthogonalLoop=1;jettySize=auto;html=1;entryX=0;entryY=0.5;entryDx=0;entryDy=0;" edge="1" parent="YJ0PyMhYkwxOtCHctrww-1" source="YJ0PyMhYkwxOtCHctrww-20" target="YJ0PyMhYkwxOtCHctrww-8">
          <mxGeometry relative="1" as="geometry">
            <Array as="points">
              <mxPoint x="60" y="230" />
            </Array>
          </mxGeometry>
        </mxCell>
        <mxCell id="YJ0PyMhYkwxOtCHctrww-20" value="" style="shape=rhombus;html=1;verticalLabelPosition=bottom;verticalAlignment=top;" vertex="1" parent="YJ0PyMhYkwxOtCHctrww-1">
          <mxGeometry x="40" y="320" width="40" height="40" as="geometry" />
        </mxCell>
        <mxCell id="YJ0PyMhYkwxOtCHctrww-24" style="edgeStyle=orthogonalEdgeStyle;rounded=0;orthogonalLoop=1;jettySize=auto;html=1;" edge="1" parent="YJ0PyMhYkwxOtCHctrww-1" source="YJ0PyMhYkwxOtCHctrww-23" target="YJ0PyMhYkwxOtCHctrww-25">
          <mxGeometry relative="1" as="geometry">
            <mxPoint x="175" y="650" as="targetPoint" />
          </mxGeometry>
        </mxCell>
        <mxCell id="YJ0PyMhYkwxOtCHctrww-23" value="Xem Media khác?" style="shape=ext;rounded=1;html=1;whiteSpace=wrap;strokeWidth=3;" vertex="1" parent="YJ0PyMhYkwxOtCHctrww-1">
          <mxGeometry x="115" y="520" width="120" height="80" as="geometry" />
        </mxCell>
        <mxCell id="YJ0PyMhYkwxOtCHctrww-26" style="edgeStyle=orthogonalEdgeStyle;rounded=0;orthogonalLoop=1;jettySize=auto;html=1;" edge="1" parent="YJ0PyMhYkwxOtCHctrww-1" source="YJ0PyMhYkwxOtCHctrww-25" target="YJ0PyMhYkwxOtCHctrww-27">
          <mxGeometry relative="1" as="geometry">
            <mxPoint x="175" y="720" as="targetPoint" />
          </mxGeometry>
        </mxCell>
        <mxCell id="YJ0PyMhYkwxOtCHctrww-29" style="edgeStyle=orthogonalEdgeStyle;rounded=0;orthogonalLoop=1;jettySize=auto;html=1;entryX=0.5;entryY=1;entryDx=0;entryDy=0;" edge="1" parent="YJ0PyMhYkwxOtCHctrww-1" source="YJ0PyMhYkwxOtCHctrww-25" target="YJ0PyMhYkwxOtCHctrww-20">
          <mxGeometry relative="1" as="geometry" />
        </mxCell>
        <mxCell id="YJ0PyMhYkwxOtCHctrww-25" value="Condition" style="rhombus;whiteSpace=wrap;html=1;fillColor=#ffffc0;strokeColor=#ff0000;" vertex="1" parent="YJ0PyMhYkwxOtCHctrww-1">
          <mxGeometry x="135" y="630" width="80" height="40" as="geometry" />
        </mxCell>
        <mxCell id="YJ0PyMhYkwxOtCHctrww-27" value="" style="ellipse;html=1;shape=endState;fillColor=#000000;strokeColor=#ff0000;" vertex="1" parent="YJ0PyMhYkwxOtCHctrww-1">
          <mxGeometry x="160" y="705" width="30" height="30" as="geometry" />
        </mxCell>
        <mxCell id="YJ0PyMhYkwxOtCHctrww-28" value="No" style="text;html=1;align=center;verticalAlign=middle;resizable=0;points=[];autosize=1;" vertex="1" parent="YJ0PyMhYkwxOtCHctrww-1">
          <mxGeometry x="180" y="670" width="30" height="20" as="geometry" />
        </mxCell>
        <mxCell id="YJ0PyMhYkwxOtCHctrww-30" value="Yes" style="text;html=1;align=center;verticalAlign=middle;resizable=0;points=[];autosize=1;" vertex="1" parent="YJ0PyMhYkwxOtCHctrww-1">
          <mxGeometry x="95" y="630" width="40" height="20" as="geometry" />
        </mxCell>
      </root>
    </mxGraphModel>
  </diagram>
</mxfile>
